# This file uses centimeters as units for non-parametric coordinates.

mtllib diana boat.mtl
g default
v -0.092171 -0.020381 -0.360288
v 0.092171 -0.020381 -0.360288
v -0.012284 1.247785 -0.074550
v 0.012284 1.247785 -0.074550
v 0.046081 -0.407838 -0.503281
v -0.046081 -0.407838 -0.503281
v 0.046081 -0.020381 -0.746592
v -0.046081 -0.020381 -0.746592
v 0.006141 1.247785 -0.159857
v -0.006141 1.247785 -0.159857
v -0.092171 -0.020381 0.000000
v -0.046081 -0.407838 0.000000
v 0.046081 -0.407838 0.000000
v 0.092171 -0.020381 0.000000
v -0.012284 1.247785 0.000000
v 0.012284 1.247785 0.000000
v -0.092171 -0.020381 0.360288
v 0.092171 -0.020381 0.360288
v -0.012284 1.247785 0.074550
v 0.012284 1.247785 0.074550
v 0.046081 -0.407838 0.503281
v -0.046081 -0.407838 0.503281
v 0.046081 -0.020381 0.746592
v -0.046081 -0.020381 0.746592
v 0.006141 1.247785 0.159857
v -0.006141 1.247785 0.159857
v -0.046081 -0.407838 -0.866539
v 0.046081 -0.407838 -0.866539
v -0.046081 -0.407838 0.866539
v 0.046081 -0.407838 0.866539
v 0.046081 0.467392 -1.520473
v 0.046081 0.451717 -1.534677
v -0.046081 0.467392 -1.520473
v -0.046081 0.451717 -1.534677
v 0.468461 0.436923 -0.533354
v 0.457627 0.445933 -0.517384
v -0.457627 0.445933 -0.517384
v -0.468461 0.436923 -0.533354
v -0.442689 0.426873 0.000000
v -0.458450 0.416899 0.000000
v 0.458450 0.416899 0.000000
v 0.442689 0.426873 0.000000
v 0.046081 0.467392 1.520473
v 0.046081 0.451717 1.534677
v -0.046081 0.467392 1.520473
v -0.046081 0.451717 1.534677
v 0.457627 0.445933 0.517384
v 0.468461 0.436923 0.533354
v -0.468461 0.436923 0.533354
v -0.457627 0.445933 0.517384
vt 0.325370 0.499917
vt 0.278339 0.502127
vt 0.647299 0.334772
vt 0.648402 0.333234
vt 0.112606 0.517239
vt 0.630109 0.329803
vt 0.491562 0.506279
vt 0.638216 0.318496
vt 0.000000 0.544918
vt 0.925703 0.323138
vt 0.341937 0.997575
vt 0.289371 0.000012
vt 0.298011 0.898173
vt 0.327089 0.897638
vt 0.631483 0.304197
vt 0.605423 0.472461
vt 0.325211 0.499918
vt 0.913837 0.290827
vt 0.912549 0.292213
vt 0.278206 0.497709
vt 0.920811 0.308109
vt 0.112577 0.482393
vt 0.491450 0.493809
vt 0.930269 0.297905
vt 0.327529 0.101756
vt 0.298448 0.102104
vt 0.301907 0.833394
vt 0.319406 0.833665
vt 0.320183 0.166790
vt 0.302752 0.165838
vt 0.314711 0.612378
vt 0.312810 0.615246
vt 0.296070 0.614564
vt 0.294237 0.611580
vt 0.494608 0.667122
vt 0.491862 0.670818
vt 0.120766 0.681405
vt 0.117806 0.677897
vt 0.614224 0.734276
vt 0.612908 0.257073
vt 0.004537 0.760409
vt 0.002735 0.247919
vt 0.121331 0.318336
vt 0.118394 0.321851
vt 0.495196 0.332842
vt 0.492372 0.329168
vt 0.315169 0.387716
vt 0.313434 0.384804
vt 0.294598 0.388060
vt 0.296714 0.385147
vt 0.864535 0.000000
vt 0.775586 0.022764
vt 0.732593 0.617144
vt 0.635260 0.173599
vt 0.679871 0.057889
vt 0.663406 0.075604
vt 0.938351 0.416227
vt 0.817996 0.583431
vt 0.922685 0.516972
vt 0.908566 0.536609
vt 0.614308 0.327871
vt 0.945705 0.301798
vt 0.943218 0.324544
vt 0.605519 0.527865
vt 0.614710 0.265669
vt 0.612414 0.742841
vt 0.341723 0.002078
vt 0.289638 1.000000
vt 0.005020 0.239462
vt 0.002258 0.751923
vt 0.618962 0.263953
vt 0.000000 0.454538
vn -0.518883 0.824455 0.225909
vn 0.518883 0.824455 0.225909
vn -0.948188 0.162686 -0.272899
vn 0.948188 0.162686 -0.272899
vn -0.126586 0.982395 0.137388
vn -0.995672 0.078540 -0.049681
vn 0.126586 0.982395 0.137388
vn 0.995672 0.078540 -0.049681
vn -0.400581 0.916261 0.000000
vn -0.997584 0.069468 0.000000
vn 0.854750 -0.519039 0.000000
vn -0.854750 -0.519039 0.000000
vn -0.880167 -0.448563 -0.155237
vn 0.880167 -0.448563 -0.155237
vn 0.997584 0.069468 0.000000
vn 0.400581 0.916261 0.000000
vn -0.518883 0.824455 -0.225909
vn 0.948187 0.162686 0.272899
vn -0.948187 0.162686 0.272899
vn 0.518883 0.824455 -0.225909
vn -0.995672 0.078540 0.049681
vn -0.126586 0.982395 -0.137388
vn 0.126586 0.982395 -0.137388
vn 0.995672 0.078540 0.049681
vn 0.880167 -0.448563 0.155237
vn -0.880167 -0.448563 0.155237
vn -0.842145 -0.414252 -0.345234
vn 0.842145 -0.414252 -0.345234
vn 0.842145 -0.414252 0.345234
vn -0.842145 -0.414252 0.345234
vn -0.501262 0.791054 0.350672
vn 0.801068 -0.414176 -0.432145
vn -0.801068 -0.414176 -0.432145
vn 0.501262 0.791054 0.350672
vn -0.767785 0.615607 0.177580
vn 0.915094 -0.368202 -0.164408
vn -0.915094 -0.368202 -0.164408
vn 0.767785 0.615607 0.177580
vn -0.766463 0.642289 -0.000000
vn 0.901874 -0.431999 -0.000000
vn -0.901874 -0.431999 -0.000000
vn 0.766463 0.642289 0.000000
vn -0.915094 -0.368202 0.164408
vn 0.767785 0.615607 -0.177580
vn -0.767785 0.615606 -0.177580
vn 0.915094 -0.368202 0.164408
vn -0.501262 0.791054 -0.350672
vn 0.801068 -0.414176 0.432145
vn 0.501262 0.791054 -0.350672
vn -0.801068 -0.414176 0.432145
s 1
g pCube1
usemtl initialShadingGroup
f 7/59/1 8/60/2 10/3/3 9/4/4
f 8/60/2 1/58/5 3/6/6 10/3/3
f 2/57/7 7/59/1 9/4/4 4/8/8
f 1/58/5 11/53/9 15/61/10 3/6/6
f 13/11/11 12/68/12 6/13/13 5/14/14
f 16/15/15 14/63/16 2/57/7 4/8/8
f 23/55/17 25/18/18 26/19/19 24/56/20
f 24/56/20 26/19/19 19/21/21 17/54/22
f 18/52/23 20/24/24 25/18/18 23/55/17
f 17/54/22 19/21/21 15/10/10 11/71/9
f 13/67/11 21/25/25 22/26/26 12/12/12
f 16/62/15 20/24/24 18/52/23 14/51/16
f 5/14/14 6/13/13 27/27/27 28/28/28
f 22/26/26 21/25/25 30/29/29 29/30/30
f 31/31/31 32/32/32 34/33/33 33/34/34
f 32/32/32 31/31/31 36/35/35 35/36/36
f 33/34/34 34/33/33 38/37/37 37/38/38
f 35/36/36 36/35/35 42/39/39 41/66/40
f 37/38/38 38/37/37 40/41/41 39/70/42
f 39/42/42 40/69/41 49/43/43 50/44/44
f 41/40/40 42/65/39 47/45/45 48/46/46
f 43/47/47 44/48/48 48/46/46 47/45/45
f 44/48/48 43/47/47 45/49/49 46/50/50
f 46/50/50 45/49/49 50/44/44 49/43/43
f 31/31/31 33/34/34 8/2/2 7/1/1
f 33/34/34 37/38/38 1/5/5 8/2/2
f 36/35/35 31/31/31 7/1/1 2/7/7
f 37/38/38 39/70/42 11/9/9 1/5/5
f 6/13/13 12/68/12 40/41/41 38/37/37
f 41/66/40 13/11/11 5/14/14 35/36/36
f 14/64/16 42/39/39 36/35/35 2/7/7
f 43/47/47 23/17/17 24/20/20 45/49/49
f 45/49/49 24/20/20 17/22/22 50/44/44
f 47/45/45 18/23/23 23/17/17 43/47/47
f 50/44/44 17/22/22 11/72/9 39/42/42
f 22/26/26 49/43/43 40/69/41 12/12/12
f 41/40/40 48/46/46 21/25/25 13/67/11
f 14/16/16 18/23/23 47/45/45 42/65/39
f 28/28/28 27/27/27 34/33/33 32/32/32
f 29/30/30 30/29/29 44/48/48 46/50/50
f 48/46/46 44/48/48 30/29/29 21/25/25
f 32/32/32 35/36/36 5/14/14 28/28/28
f 46/50/50 49/43/43 22/26/26 29/30/30
f 38/37/37 34/33/33 27/27/27 6/13/13
f 19/21/21 26/19/19 25/18/18 20/24/24
f 10/3/3 3/6/6 4/8/8 9/4/4
f 15/10/10 19/21/21 20/24/24 16/62/15
f 3/6/6 15/61/10 16/15/15 4/8/8
