# Blender 4.4.0
# www.blender.org
mtllib bush.mtl
o bush.001
v -0.500000 0.499693 0.017520
v 0.500000 0.499693 0.017520
v -0.500000 -0.499693 -0.017520
v 0.500000 -0.499693 -0.017520
v 0.000000 0.517213 -0.482173
v -0.000000 0.482173 0.517213
v 0.000000 -0.482173 -0.517213
v 0.000000 -0.517213 0.482173
v -0.353553 0.512081 -0.335816
v 0.353553 0.487304 0.370856
v -0.353553 -0.487304 -0.370856
v 0.353553 -0.512081 0.335816
v -0.353553 0.487304 0.370856
v 0.353553 0.512081 -0.335816
v -0.353553 -0.512081 0.335816
v 0.353553 -0.487304 -0.370856
v -0.500000 0.017520 -0.499693
v 0.500000 0.017520 -0.499693
v -0.500000 -0.017520 0.499693
v 0.500000 -0.017520 0.499693
vn -0.0000 0.0350 -0.9994
vn 1.0000 -0.0000 -0.0000
vn 0.7071 0.0248 -0.7067
vn -0.7071 0.0248 -0.7067
vn -0.0000 -0.9994 -0.0350
vt 0.000000 0.000000
vt 1.000000 0.000000
vt 1.000000 1.000000
vt 0.000000 1.000000
s 0
usemtl bush
f 1/1/1 2/2/1 4/3/1 3/4/1
f 5/1/2 6/2/2 8/3/2 7/4/2
f 9/1/3 10/2/3 12/3/3 11/4/3
f 13/1/4 14/2/4 16/3/4 15/4/4
f 17/1/5 18/2/5 20/3/5 19/4/5
