# Blender 4.3.2
# www.blender.org
o Special_Cube
v -0.500000 -0.500000 0.500000
v -0.500000 0.500000 0.500000
v -0.500000 -0.500000 -0.500000
v -0.500000 0.500000 -0.500000
v 0.500000 -0.500000 0.500000
v 0.500000 0.500000 0.500000
v 0.500000 -0.500000 -0.500000
v 0.500000 0.500000 -0.500000
vn -1.0000 -0.0000 -0.0000
vn -0.0000 -0.0000 -1.0000
vn 1.0000 -0.0000 -0.0000
vn -0.0000 -0.0000 1.0000
vn -0.0000 -1.0000 -0.0000
vn -0.0000 1.0000 -0.0000
vt 1.002002 -0.002002
vt 1.002002 1.002002
vt -0.002001 1.002002
vt -0.002002 -0.002002
vt 1.002001 -0.002002
vt 1.002002 1.002002
vt -0.002002 1.002002
vt -0.002002 -0.002001
vt 1.002002 -0.002002
vt 1.002002 1.002001
vt -0.002002 1.002002
vt -0.002002 -0.002002
vt 1.002002 -0.002002
vt -0.002001 1.002002
vt -0.002002 -0.002002
vt 1.002002 -0.002002
vt -0.002001 1.002002
vt 1.002002 1.002002
vt -0.002002 1.002002
vt 1.002002 -0.002002
s 0
f 1/1/1 2/2/1 4/3/1 3/4/1
f 3/5/2 4/6/2 8/7/2 7/8/2
f 7/9/3 8/10/3 6/11/3 5/12/3
f 5/13/4 6/2/4 2/14/4 1/12/4
f 3/15/5 7/16/5 5/2/5 1/17/5
f 8/18/6 4/19/6 2/8/6 6/20/6
