# This file uses centimeters as units for non-parametric coordinates.

mtllib diana duck.mtl
g default
v 0.593733 -0.855331 -0.159076
v -0.593733 -0.855331 -0.159076
v -0.653361 -0.526800 -0.161383
v -0.429599 -0.233973 -0.185259
v 0.429599 -0.233973 -0.185259
v 0.653361 -0.526800 -0.161383
v 0.396843 -0.794076 -0.979131
v -0.396843 -0.794076 -0.979131
v -0.459011 -0.522312 -0.989971
v -0.321010 -0.273396 -0.989882
v 0.344100 -0.280923 -1.055905
v 0.459047 -0.522329 -0.990027
v 0.569430 -0.854272 -0.616165
v 0.689401 -0.543444 -0.626250
v 0.492032 -0.250656 -0.663233
v -0.450493 -0.243795 -0.616069
v -0.688766 -0.543033 -0.625691
v -0.569430 -0.854272 -0.616165
v -0.284730 -0.426438 0.167435
v 0.284730 -0.426438 0.167435
v -0.240479 -0.186290 0.140882
v 0.240479 -0.186290 0.140882
v -0.224047 0.246831 0.555220
v 0.224047 0.246831 0.555220
v -0.199865 0.193752 -0.296503
v 0.199865 0.193752 -0.296503
v -0.245665 -0.072432 -0.230710
v 0.245665 -0.072432 -0.230710
v -0.128442 -0.104905 -1.249207
v 0.130117 -0.104073 -1.264559
v -0.136883 -0.287863 -1.399691
v 0.136883 -0.287863 -1.399691
v -0.183512 -0.529057 -1.361156
v -0.204246 -0.742916 -1.285343
v -0.179530 -0.893855 -1.135739
v -0.259435 -0.977152 -0.933905
v 0.259435 -0.977153 -0.933906
v 0.179530 -0.893855 -1.135740
v 0.204246 -0.742916 -1.285343
v 0.183512 -0.529057 -1.361156
v -0.376280 -1.003309 -0.160714
v -0.289268 -0.934718 0.073154
v -0.309932 -0.710946 0.181554
v 0.309931 -0.710946 0.181554
v 0.289268 -0.934718 0.073154
v 0.376280 -1.003309 -0.160714
v -0.210751 0.638395 -0.005570
v -0.304206 0.452596 -0.186079
v 0.304206 0.452596 -0.186079
v 0.210751 0.638395 -0.005570
v -0.307436 0.459598 0.381242
v -0.210912 0.617693 0.218115
v 0.210912 0.617693 0.218115
v 0.307436 0.459598 0.381242
v -0.272266 -0.155030 -0.689886
v -0.177607 -0.172815 -1.051883
v 0.191395 -0.173131 -1.127955
v 0.292293 -0.154276 -0.735154
v -0.071710 0.024080 -1.468967
v -0.065720 -0.043181 -1.528555
v 0.065720 -0.043181 -1.528555
v 0.071710 0.024080 -1.468967
v -0.223329 -0.005925 0.360774
v 0.223329 -0.005925 0.360774
v -0.343607 -1.036014 -0.605688
v 0.343607 -1.036014 -0.605688
v -0.355042 0.229797 0.238451
v 0.355042 0.229797 0.238451
v -0.350089 0.200233 -0.083396
v 0.350089 0.200233 -0.083396
v -0.000000 -0.419381 0.267814
v -0.000000 -0.197478 0.207844
v -0.000000 -0.082062 0.390523
v -0.000000 0.278306 0.569838
v -0.000000 0.485833 0.437858
v -0.000000 0.631668 0.236517
v -0.000000 0.662564 -0.021894
v -0.000000 0.470484 -0.235682
v -0.000000 0.189640 -0.315648
v -0.000000 -0.043867 -0.354926
v -0.000000 -0.118010 -0.731961
v -0.000000 -0.141482 -1.117457
v -0.000000 -0.078125 -1.243747
v -0.000000 0.052993 -1.489245
v -0.000000 -0.023365 -1.551872
v -0.000000 -0.303263 -1.455835
v -0.000000 -0.532343 -1.417214
v -0.000000 -0.739447 -1.330696
v 0.000000 -0.917660 -1.146773
v 0.000000 -1.033544 -0.910182
v -0.000000 -1.077955 -0.582540
v -0.000000 -1.056749 -0.154273
v -0.000000 -0.962901 0.092084
v -0.000000 -0.685445 0.253544
v -0.175743 0.020659 0.812371
v -0.210355 0.005700 0.741394
v -0.000000 -0.008983 0.730728
v 0.000035 0.017538 0.810905
v -0.212408 0.093664 0.783727
v 0.210390 0.005732 0.741408
v 0.176114 0.021000 0.812519
v 0.212617 0.093855 0.783810
v 0.000035 0.107754 0.789620
v 0.336925 -0.895694 -0.954486
v -0.336924 -0.895694 -0.954488
v -0.468707 -0.957276 -0.610234
v 0.505067 -0.937887 -0.164503
v 0.378336 -1.021385 -0.373891
v -0.505067 -0.937887 -0.164503
v 0.319167 -0.522930 -1.196332
v 0.164122 -0.418597 -1.375833
v 0.239861 -0.294451 -1.216637
v -0.235997 -0.292426 -1.198197
v -0.319167 -0.522930 -1.196332
v 0.302202 -0.760687 -1.150249
v 0.195998 -0.638249 -1.332286
v -0.302202 -0.760687 -1.150249
v 0.197341 -0.834703 -1.199461
v 0.221638 -0.930259 -1.052720
v 0.346704 -0.227542 0.006325
v 0.265815 -0.298191 0.146160
v 0.477967 -0.478220 0.038281
v -0.477967 -0.478220 0.038281
v -0.346704 -0.227542 0.006325
v 0.293545 -0.563653 0.182389
v 0.475908 -0.789136 0.046024
v -0.475908 -0.789136 0.046024
v 0.341850 -0.862441 0.135071
v 0.349360 -0.975014 -0.014557
v 0.155654 -0.151625 -1.202526
v 0.147901 -0.174692 -1.314534
v -0.147713 -0.174685 -1.312950
v 0.099135 -0.023237 -1.383041
v 0.088384 -0.135748 -1.490238
v 0.070252 0.014961 -1.520488
v -0.314155 0.145390 0.292352
v -0.373473 0.207252 0.074338
v -0.309948 0.086504 -0.140484
v -0.264632 -0.055319 0.061830
v -0.339019 0.466932 0.096009
v 0.373473 0.207252 0.074338
v 0.339019 0.466932 0.096009
v 0.314154 0.145390 0.292352
v 0.264632 -0.055319 0.061830
v 0.309948 0.086504 -0.140484
v 0.228096 0.647238 0.107273
v 0.258574 0.561640 0.287010
v 0.258212 0.584882 -0.080219
v 0.212847 -0.102540 0.198862
v 0.260641 0.361524 0.482325
v 0.250943 0.302363 -0.283215
v 0.140638 -0.410604 0.251729
v 0.122083 -0.173775 0.203059
v 0.111590 -0.063328 0.395170
v 0.128760 0.279296 0.571902
v 0.159864 0.485494 0.438201
v 0.129511 0.631668 0.236517
v 0.129439 0.662645 -0.021920
v 0.157975 0.471455 -0.236233
v 0.119359 0.191622 -0.315237
v 0.124264 -0.050682 -0.339814
v 0.155104 -0.127767 -0.737748
v 0.097856 -0.149060 -1.133226
v 0.074526 -0.078708 -1.248924
v 0.041911 0.053041 -1.489225
v 0.037034 -0.023293 -1.551835
v 0.064165 -0.303172 -1.455750
v 0.082976 -0.531810 -1.416736
v 0.102956 -0.738419 -1.330558
v 0.108874 -0.911469 -1.145630
v 0.141268 -1.023763 -0.917985
v 0.165398 -1.073603 -0.595075
v 0.173816 -1.048147 -0.152635
v 0.156219 -0.958238 0.092521
v 0.156650 -0.680311 0.239351
v -0.119968 -0.008983 0.732207
v -0.111144 0.017525 0.812138
v 0.119968 -0.008983 0.732207
v 0.111283 0.017652 0.812193
v -0.121610 0.107971 0.790042
v 0.121750 0.108099 0.790097
v -0.000000 -0.025245 0.577403
v -0.205535 -0.000120 0.592579
v -0.000000 0.174999 0.685036
v -0.213507 0.151513 0.674800
v 0.213507 0.151513 0.674800
v 0.205535 -0.000120 0.592579
v -0.645681 -0.703505 -0.162783
v -0.703119 -0.542058 -0.390912
v -0.668482 -0.722545 -0.627970
v -0.605410 -0.856848 -0.387997
v -0.554775 -0.356258 -0.166642
v -0.451601 -0.238938 -0.397317
v -0.581533 -0.363188 -0.609384
v 0.554775 -0.356258 -0.166642
v 0.703119 -0.542058 -0.390911
v 0.612061 -0.374028 -0.635898
v 0.477825 -0.242138 -0.414991
v 0.645681 -0.703505 -0.162783
v 0.605410 -0.856848 -0.387997
v 0.668482 -0.722545 -0.627970
v 0.496407 -0.828710 -0.817012
v 0.443482 -0.662928 -0.986899
v 0.599147 -0.532967 -0.833013
v 0.410269 -0.389799 -1.004172
v 0.431289 -0.272116 -0.868554
v -0.394036 -0.259916 -0.801264
v -0.403026 -0.385710 -0.986821
v -0.598345 -0.532347 -0.831887
v -0.443482 -0.662928 -0.986899
v -0.496407 -0.828710 -0.817013
v -0.156650 -0.680311 0.239351
v -0.000000 -0.547541 0.274058
v -0.140638 -0.410604 0.251729
v -0.293580 -0.563653 0.182389
v -0.165398 -1.073603 -0.595075
v -0.000000 -1.078880 -0.363170
v -0.173863 -1.048147 -0.152635
v -0.378336 -1.021385 -0.373891
v -0.000000 -0.295784 0.230207
v -0.122083 -0.173775 0.203059
v -0.265815 -0.298191 0.146160
v -0.128760 0.279296 0.571902
v -0.000000 0.395225 0.499587
v -0.159864 0.485494 0.438201
v -0.260641 0.361524 0.482325
v -0.129511 0.631668 0.236517
v -0.000000 0.671870 0.108574
v -0.129439 0.662645 -0.021920
v -0.228096 0.647238 0.107273
v -0.157975 0.471455 -0.236233
v -0.000000 0.332495 -0.291815
v -0.119359 0.191622 -0.315237
v -0.250943 0.302363 -0.283215
v -0.124264 -0.050682 -0.339814
v -0.000000 -0.094727 -0.510943
v -0.151334 -0.128763 -0.721569
v -0.271106 -0.132010 -0.479640
v -0.093680 -0.149900 -1.087947
v -0.000000 -0.122195 -1.186100
v -0.073684 -0.079725 -1.235628
v -0.149179 -0.152337 -1.155495
v -0.000000 -0.004566 -1.365217
v -0.041911 0.053041 -1.489225
v -0.099135 -0.023237 -1.383041
v -0.037034 -0.023293 -1.551835
v -0.000000 -0.154610 -1.508162
v -0.064165 -0.303172 -1.455750
v -0.088384 -0.135748 -1.490238
v -0.000000 -0.425137 -1.433340
v -0.082976 -0.531810 -1.416736
v -0.164122 -0.418597 -1.375833
v -0.221633 -0.930261 -1.052748
v -0.108873 -0.911469 -1.145632
v 0.000000 -0.984871 -1.038675
v -0.141267 -1.023763 -0.917987
v -0.197341 -0.834703 -1.199463
v -0.102956 -0.738419 -1.330558
v 0.000000 -0.833398 -1.242208
v -0.195998 -0.638249 -1.332286
v -0.000000 -0.636993 -1.383994
v -0.000000 -0.848837 0.192939
v -0.341850 -0.862441 0.135071
v -0.156219 -0.958238 0.092521
v -0.349360 -0.975014 -0.014557
v -0.000000 -1.026209 -0.011824
v -0.258212 0.584882 -0.080219
v -0.000000 0.587971 -0.141178
v -0.258574 0.561640 0.287010
v -0.000000 0.561175 0.348224
v -0.228442 -0.171156 -0.882503
v -0.000000 -0.137274 -0.952619
v -0.070252 0.014961 -1.520488
v -0.000000 0.046281 -1.548515
v -0.000000 -0.132469 0.263484
v -0.111590 -0.063328 0.395170
v -0.212847 -0.102540 0.198862
v 0.394485 -0.188164 -0.703157
v 0.276232 -0.131208 -0.487410
v 0.331739 -0.162810 -0.204471
v -0.331739 -0.162810 -0.204471
v -0.362222 -0.185998 -0.653107
v 0.272981 -0.212576 -1.100924
v 0.249547 -0.171379 -0.957384
v -0.250492 -0.208966 -1.016159
v 0.000000 -1.059370 -0.759861
v -0.298470 -1.018721 -0.794473
v 0.468707 -0.957276 -0.610234
v 0.298470 -1.018721 -0.794471
v -0.686251 -0.722163 -0.393604
v -0.587913 -0.361296 -0.382516
v 0.607493 -0.367854 -0.392139
v 0.686251 -0.722163 -0.393604
v 0.576450 -0.697768 -0.832985
v 0.533976 -0.383472 -0.844368
v -0.513662 -0.372189 -0.814485
v -0.576452 -0.697768 -0.832985
v -0.149224 -0.545408 0.252457
v -0.172112 -1.069482 -0.367574
v -0.131664 -0.278752 0.219493
v -0.147297 0.395547 0.500956
v -0.123416 0.671870 0.108574
v -0.141189 0.334758 -0.293510
v -0.145155 -0.103802 -0.505443
v -0.081295 -0.127112 -1.166770
v -0.057877 -0.004534 -1.365201
v -0.049276 -0.154566 -1.508139
v -0.074365 -0.424817 -1.433027
v -0.123567 -0.971247 -1.039525
v -0.103746 -0.831114 -1.238202
v -0.093098 -0.636460 -1.383642
v -0.159533 -0.842331 0.190783
v -0.164141 -1.018354 -0.009607
v -0.147508 0.588296 -0.141280
v -0.147798 0.561174 0.348224
v -0.123547 -0.147856 -0.917255
v -0.034771 0.046349 -1.548483
v -0.115092 -0.101412 0.267887
v 0.376565 -0.172591 -0.452272
v -0.359177 -0.172710 -0.435027
v 0.338221 -0.206215 -0.901613
v -0.310848 -0.203186 -0.835122
v -0.153591 -1.066651 -0.779392
v 0.408751 -0.935365 -0.804197
v -0.408751 -0.935365 -0.804197
v 0.514789 -0.952967 -0.381976
v -0.514789 -0.952967 -0.381976
v 0.285028 -0.401509 -1.206946
v -0.284665 -0.401212 -1.205500
v 0.318501 -0.645748 -1.179627
v -0.318501 -0.645748 -1.179627
v 0.271447 -0.855067 -1.093032
v -0.271447 -0.855067 -1.093031
v 0.425499 -0.343045 0.020420
v -0.425499 -0.343045 0.020420
v 0.480517 -0.621913 0.040377
v -0.480517 -0.621913 0.040377
v 0.442319 -0.899749 0.010192
v -0.442319 -0.899749 0.010192
v 0.202409 -0.210088 -1.211908
v -0.195162 -0.208608 -1.171094
v 0.107154 -0.079473 -1.436629
v -0.107154 -0.079473 -1.436629
v -0.315418 0.071278 0.072010
v 0.315418 0.071278 0.072010
v 0.295306 0.573342 0.103370
v -0.295307 0.573342 0.103370
v 0.283914 -0.148125 0.028569
v -0.283914 -0.148107 0.028569
v 0.131664 -0.278752 0.219493
v 0.115092 -0.101412 0.267887
v 0.147297 0.395547 0.500956
v 0.147798 0.561108 0.348224
v 0.123416 0.671870 0.108574
v 0.147508 0.588296 -0.141280
v 0.141189 0.334758 -0.293510
v 0.145155 -0.103802 -0.505443
v 0.131848 -0.146452 -0.974051
v 0.083534 -0.125966 -1.196918
v 0.057877 -0.004534 -1.365201
v 0.034771 0.046349 -1.548483
v 0.049276 -0.154566 -1.508139
v 0.074365 -0.424817 -1.433027
v 0.093098 -0.636460 -1.383642
v 0.103746 -0.831114 -1.238202
v 0.123567 -0.971247 -1.039526
v 0.153591 -1.066651 -0.779392
v 0.172112 -1.069482 -0.367574
v 0.164141 -1.018354 -0.009607
v 0.159533 -0.842331 0.190783
v 0.149224 -0.545441 0.252457
v -0.116538 -0.025332 0.577964
v -0.122915 0.175741 0.686452
v 0.116538 -0.025332 0.577964
v 0.122915 0.175741 0.686452
v -0.214479 0.108126 -0.282526
v -0.221210 0.068950 -0.273411
v -0.115332 0.074149 -0.305147
v -0.116327 0.037334 -0.309738
v -0.000000 0.040439 -0.320288
v -0.000000 0.076057 -0.313592
v -0.353517 0.352736 0.322306
v -0.359168 0.320412 0.302823
v -0.373242 0.326181 0.083011
v -0.368231 0.362539 0.086034
v -0.350765 0.288810 -0.134122
v -0.345307 0.323280 -0.148855
v 0.359168 0.320412 0.302823
v 0.353517 0.352736 0.322306
v 0.368231 0.362539 0.086034
v 0.373242 0.326181 0.083011
v 0.345307 0.323280 -0.148855
v 0.350765 0.288810 -0.134122
v 0.299384 0.277220 0.429998
v 0.307007 0.248841 0.406169
v 0.249602 0.130959 0.483862
v 0.247841 0.161737 0.506270
v -0.247841 0.161737 0.506270
v -0.249602 0.130959 0.483862
v -0.299289 0.277454 0.430126
v -0.307020 0.248673 0.405959
v 0.214479 0.108126 -0.282526
v 0.221210 0.068950 -0.273411
v 0.290324 0.213129 -0.251577
v 0.299390 0.181983 -0.231991
v -0.290324 0.213129 -0.251577
v -0.299390 0.181983 -0.231991
v 0.116364 0.036919 -0.309880
v 0.115332 0.074149 -0.305147
v -0.201564 0.056823 0.808065
v -0.175835 0.020729 0.812417
v -0.229826 0.033166 0.754892
v -0.230419 0.066547 0.770954
v 0.230576 0.066712 0.771026
v 0.229956 0.033300 0.754952
v 0.176717 0.021461 0.812818
v 0.202209 0.057516 0.808215
v -0.109591 0.017527 0.812122
v -0.112710 0.053660 0.815187
v 0.000112 0.054132 0.814423
v 0.000038 0.018029 0.811248
v 0.233796 0.092354 0.643039
v 0.232274 0.059780 0.625378
v -0.233797 0.092351 0.643037
v -0.232116 0.059425 0.625184
v 0.113172 0.054148 0.815331
v 0.110234 0.017993 0.812412
vt 0.053634 0.288390
vt 0.098702 0.289490
vt 0.093163 0.358007
vt 0.053184 0.356343
vt 0.073283 0.227508
vt 0.122921 0.229184
vt 0.151155 0.289075
vt 0.146626 0.357208
vt 0.093050 0.427576
vt 0.053948 0.424072
vt 0.024652 0.354555
vt 0.029128 0.290001
vt 0.040449 0.238145
vt 0.096493 0.187277
vt 0.140215 0.187030
vt 0.165575 0.229806
vt 0.201778 0.290636
vt 0.200283 0.354716
vt 0.146336 0.426900
vt 0.100405 0.488433
vt 0.061536 0.483691
vt 0.023373 0.422311
vt 0.004343 0.352155
vt 0.009708 0.288876
vt 0.051523 0.201075
vt 0.018107 0.245491
vt 0.180946 0.191469
vt 0.205700 0.235108
vt 0.238077 0.296162
vt 0.236604 0.359109
vt 0.199721 0.422059
vt 0.149508 0.488107
vt 0.110747 0.534120
vt 0.071817 0.531814
vt 0.029877 0.479887
vt 0.000000 0.420962
vt 0.219015 0.197784
vt 0.239986 0.239292
vt 0.259201 0.301865
vt 0.256263 0.370303
vt 0.235162 0.424043
vt 0.197049 0.482941
vt 0.152487 0.535032
vt 0.115846 0.591329
vt 0.081728 0.582609
vt 0.041653 0.524499
vt 0.005133 0.477001
vt 0.185646 0.166447
vt 0.224785 0.176016
vt 0.252232 0.199351
vt 0.263566 0.232689
vt 0.286029 0.309654
vt 0.268344 0.383546
vt 0.252318 0.435038
vt 0.230376 0.479017
vt 0.193036 0.534097
vt 0.152304 0.596288
vt 0.118072 0.636645
vt 0.087003 0.622710
vt 0.053712 0.565624
vt 0.017473 0.518389
vt 0.277092 0.182140
vt 0.291109 0.222816
vt 0.247216 0.489067
vt 0.226375 0.535006
vt 0.188434 0.599009
vt 0.150485 0.645214
vt 0.059757 0.597218
vt 0.031392 0.553667
vt 0.305771 0.134078
vt 0.328688 0.219794
vt 0.333208 0.282871
vt 0.245501 0.542806
vt 0.220726 0.596842
vt 0.183274 0.649571
vt 0.042199 0.578302
vt 0.350687 0.154388
vt 0.369050 0.219103
vt 0.366967 0.265925
vt 0.361550 0.310034
vt 0.327997 0.322329
vt 0.245607 0.588796
vt 0.222081 0.656653
vt 0.181427 0.666549
vt 0.149668 0.661712
vt 0.346403 0.097541
vt 0.381346 0.120665
vt 0.375743 0.170388
vt 0.404353 0.216529
vt 0.393260 0.280982
vt 0.339626 0.325035
vt 0.370795 0.315848
vt 0.318612 0.333112
vt 0.292485 0.342040
vt 0.256232 0.553410
vt 0.262310 0.584166
vt 0.255676 0.630905
vt 0.217536 0.673294
vt 0.355540 0.090889
vt 0.389889 0.113491
vt 0.402641 0.151280
vt 0.325169 0.055591
vt 0.307494 0.065269
vt 0.415146 0.215632
vt 0.403492 0.285356
vt 0.276390 0.611984
vt 0.283939 0.667618
vt 0.267234 0.683531
vt 0.261649 0.688845
vt 0.334943 0.050291
vt 0.380799 0.076359
vt 0.414844 0.097997
vt 0.412236 0.145497
vt 0.317375 0.017088
vt 0.309222 0.021095
vt 0.446133 0.212671
vt 0.441878 0.296405
vt 0.397283 0.325239
vt 0.300632 0.651711
vt 0.311971 0.692510
vt 0.294712 0.694905
vt 0.300616 0.701815
vt 0.327284 0.012320
vt 0.352505 0.040863
vt 0.443956 0.128002
vt 0.313662 0.000026
vt 0.313683 0.000013
vt 0.477720 0.210486
vt 0.481146 0.264982
vt 0.314678 0.677217
vt 0.321288 0.700821
vt 0.324397 0.001304
vt 0.335333 0.008529
vt 0.474247 0.155974
vt 0.499655 0.209327
vt 0.497030 0.242823
vt 0.306184 0.646415
vt 0.323274 0.683230
vt 0.490885 0.176425
vt 0.702503 0.410668
vt 0.651945 0.412227
vt 0.647421 0.344181
vt 0.699066 0.343817
vt 0.706421 0.466125
vt 0.666347 0.471420
vt 0.599558 0.411812
vt 0.594027 0.343383
vt 0.647010 0.274413
vt 0.697235 0.271552
vt 0.738756 0.405149
vt 0.736336 0.337042
vt 0.740663 0.461946
vt 0.719718 0.503401
vt 0.681698 0.509709
vt 0.623747 0.472041
vt 0.554548 0.412911
vt 0.554098 0.345045
vt 0.593914 0.273903
vt 0.650116 0.213116
vt 0.694436 0.209749
vt 0.733810 0.263449
vt 0.756954 0.325990
vt 0.759853 0.399453
vt 0.764206 0.468540
vt 0.752892 0.501837
vt 0.725481 0.525142
vt 0.686392 0.534698
vt 0.641019 0.514142
vt 0.574172 0.473715
vt 0.530074 0.411302
vt 0.525603 0.346830
vt 0.554862 0.277402
vt 0.601259 0.213124
vt 0.653270 0.166567
vt 0.692560 0.162374
vt 0.727448 0.202579
vt 0.752337 0.251613
vt 0.769222 0.315573
vt 0.786647 0.391675
vt 0.791720 0.478401
vt 0.777721 0.519026
vt 0.597352 0.513895
vt 0.541380 0.463092
vt 0.510679 0.412426
vt 0.505320 0.349227
vt 0.524325 0.279161
vt 0.562440 0.217859
vt 0.611588 0.167494
vt 0.653092 0.105406
vt 0.689088 0.102259
vt 0.724837 0.147037
vt 0.746985 0.192778
vt 0.829251 0.481419
vt 0.833765 0.418423
vt 0.806363 0.567026
vt 0.552440 0.500114
vt 0.519067 0.455755
vt 0.500983 0.280508
vt 0.530821 0.221659
vt 0.572708 0.169797
vt 0.616681 0.110358
vt 0.651275 0.056542
vt 0.684023 0.052191
vt 0.720827 0.099386
vt 0.745099 0.133691
vt 0.851222 0.546741
vt 0.828561 0.379015
vt 0.862071 0.391295
vt 0.869562 0.482109
vt 0.867481 0.435347
vt 0.506110 0.224542
vt 0.542582 0.177104
vt 0.582606 0.119068
vt 0.618904 0.065101
vt 0.650459 0.040065
vt 0.682178 0.035235
vt 0.722780 0.045118
vt 0.745837 0.100788
vt 0.881891 0.580484
vt 0.846944 0.603517
vt 0.876246 0.530762
vt 0.840175 0.376313
vt 0.871304 0.385488
vt 0.893741 0.420309
vt 0.793095 0.359329
vt 0.819065 0.368204
vt 0.904820 0.484680
vt 0.518433 0.183205
vt 0.554626 0.136030
vt 0.587875 0.079018
vt 0.718241 0.028499
vt 0.756330 0.070364
vt 0.763169 0.103570
vt 0.756793 0.125677
vt 0.890305 0.587548
vt 0.856068 0.610160
vt 0.825842 0.645471
vt 0.808084 0.635747
vt 0.903109 0.549846
vt 0.903959 0.415941
vt 0.915598 0.485577
vt 0.532335 0.147981
vt 0.560664 0.104478
vt 0.762297 0.012968
vt 0.767876 0.018275
vt 0.777266 0.085179
vt 0.784559 0.034167
vt 0.912692 0.555622
vt 0.915297 0.603061
vt 0.881295 0.624672
vt 0.835499 0.650706
vt 0.817992 0.683884
vt 0.809819 0.679869
vt 0.897758 0.376109
vt 0.942297 0.404906
vt 0.946546 0.488534
vt 0.543127 0.123369
vt 0.801214 0.000013
vt 0.795318 0.006915
vt 0.801231 0.050054
vt 0.812555 0.009307
vt 0.944372 0.573094
vt 0.853037 0.660122
vt 0.827897 0.688650
vt 0.814482 0.701039
vt 0.814345 0.700950
vt 0.981514 0.436289
vt 0.978093 0.490716
vt 0.821860 0.001007
vt 0.815259 0.024580
vt 0.835944 0.692439
vt 0.825171 0.699675
vt 0.974624 0.545158
vt 0.997378 0.458420
vt 1.000000 0.491873
vt 0.823844 0.018575
vt 0.806776 0.055343
vt 0.991241 0.524733
vt 0.340713 0.529049
vt 0.385870 0.532047
vt 0.385489 0.596317
vt 0.337494 0.594532
vt 0.348753 0.475717
vt 0.388796 0.479977
vt 0.432186 0.535588
vt 0.432186 0.597561
vt 0.385835 0.657037
vt 0.339191 0.654755
vt 0.358895 0.436327
vt 0.392277 0.440824
vt 0.432186 0.485495
vt 0.478502 0.532047
vt 0.478882 0.596317
vt 0.432186 0.656574
vt 0.343976 0.696044
vt 0.387713 0.697443
vt 0.369574 0.402754
vt 0.397278 0.406489
vt 0.432186 0.443029
vt 0.475575 0.479977
vt 0.523659 0.529049
vt 0.526877 0.594532
vt 0.478537 0.657037
vt 0.432186 0.696816
vt 0.356105 0.720823
vt 0.388884 0.726294
vt 0.381468 0.379308
vt 0.401429 0.376514
vt 0.432186 0.406729
vt 0.472094 0.440824
vt 0.515618 0.475717
vt 0.525180 0.654755
vt 0.476658 0.697443
vt 0.432186 0.726171
vt 0.340952 0.738315
vt 0.322060 0.703036
vt 0.387162 0.754053
vt 0.376437 0.361306
vt 0.402877 0.350362
vt 0.432186 0.376191
vt 0.467094 0.406489
vt 0.505477 0.436327
vt 0.520395 0.696044
vt 0.475488 0.726294
vt 0.432186 0.754662
vt 0.374486 0.337045
vt 0.403100 0.324272
vt 0.432186 0.349231
vt 0.462943 0.376514
vt 0.494799 0.402761
vt 0.508267 0.720823
vt 0.477209 0.754053
vt 0.432186 0.324233
vt 0.461494 0.350362
vt 0.482903 0.379308
vt 0.523419 0.738315
vt 0.542311 0.703036
vt 0.461271 0.324272
vt 0.487935 0.361307
vt 0.489886 0.337045
vt 0.832113 0.174935
vt 0.857006 0.169307
vt 0.858870 0.208434
vt 0.826858 0.208832
vt 0.817537 0.153866
vt 0.851414 0.135146
vt 0.896612 0.169307
vt 0.896612 0.208434
vt 0.857028 0.248340
vt 0.832162 0.243340
vt 0.802595 0.125049
vt 0.847724 0.107630
vt 0.896612 0.135146
vt 0.936218 0.169307
vt 0.934354 0.208434
vt 0.896612 0.248333
vt 0.817648 0.266169
vt 0.851502 0.284842
vt 0.816905 0.094137
vt 0.851567 0.088439
vt 0.896612 0.107735
vt 0.941810 0.135146
vt 0.961111 0.174935
vt 0.966367 0.208832
vt 0.936196 0.248340
vt 0.896612 0.284811
vt 0.803582 0.298542
vt 0.848302 0.313880
vt 0.896612 0.088857
vt 0.945500 0.107630
vt 0.975687 0.153866
vt 0.961062 0.243340
vt 0.941722 0.284842
vt 0.896612 0.313712
vt 0.857236 0.066743
vt 0.896612 0.067374
vt 0.941657 0.088439
vt 0.990630 0.125049
vt 0.975576 0.266169
vt 0.944923 0.313880
vt 0.859023 0.031712
vt 0.896612 0.032145
vt 0.935989 0.066743
vt 0.976319 0.094137
vt 0.989642 0.298542
vt 0.859422 0.000033
vt 0.896623 0.000162
vt 0.934201 0.031712
vt 0.831319 0.035275
vt 0.828096 0.071844
vt 0.933845 0.000016
vt 0.831655 0.001964
vt 0.961905 0.035275
vt 0.965128 0.071844
vt 0.961633 0.001939
vt 0.608518 0.513970
vt 0.641893 0.543965
vt 0.636150 0.589499
vt 0.601524 0.582405
vt 0.676056 0.548119
vt 0.676056 0.591011
vt 0.634451 0.648917
vt 0.601205 0.640207
vt 0.710219 0.543965
vt 0.715962 0.589499
vt 0.676056 0.651774
vt 0.613253 0.693161
vt 0.642091 0.702715
vt 0.577664 0.630095
vt 0.577949 0.570141
vt 0.743594 0.513970
vt 0.751998 0.584542
vt 0.718697 0.653365
vt 0.676056 0.712437
vt 0.590641 0.680135
vt 0.627228 0.739727
vt 0.650301 0.749642
vt 0.756414 0.652652
vt 0.712304 0.718329
vt 0.676056 0.757755
vt 0.607191 0.729906
vt 0.653706 0.771312
vt 0.635044 0.768212
vt 0.778763 0.574881
vt 0.782924 0.643855
vt 0.744662 0.713747
vt 0.702959 0.762090
vt 0.676056 0.776626
vt 0.655799 0.790242
vt 0.640745 0.793976
vt 0.769040 0.698415
vt 0.728675 0.760641
vt 0.699021 0.779600
vt 0.676056 0.792474
vt 0.660144 0.825864
vt 0.648802 0.830769
vt 0.751104 0.753209
vt 0.718849 0.781142
vt 0.696545 0.793897
vt 0.676056 0.825869
vt 0.711828 0.798196
vt 0.691968 0.825864
vt 0.676056 0.859967
vt 0.664534 0.859961
vt 0.703310 0.830769
vt 0.687578 0.859961
vt 0.666497 0.876253
vt 0.676056 0.876261
vt 0.685615 0.876253
vt 0.229638 0.720300
vt 0.261823 0.719068
vt 0.261823 0.754594
vt 0.230618 0.755893
vt 0.227683 0.702171
vt 0.261823 0.703509
vt 0.294008 0.720300
vt 0.293029 0.755893
vt 0.261823 0.806854
vt 0.229234 0.807010
vt 0.202302 0.700997
vt 0.199371 0.746275
vt 0.295963 0.702171
vt 0.321344 0.700997
vt 0.324276 0.746275
vt 0.294412 0.807010
vt 0.261823 0.849730
vt 0.228275 0.850143
vt 0.204347 0.811098
vt 0.319300 0.811098
vt 0.295371 0.850143
vt 0.230743 0.872496
vt 0.261833 0.872151
vt 0.202999 0.852713
vt 0.320657 0.852716
vt 0.292943 0.872511
vt 0.212678 0.872561
vt 0.261834 0.872247
vt 0.231177 0.872491
vt 0.311072 0.872602
vt 0.292649 0.872572
vt 0.311241 0.872686
vt 0.005207 0.709041
vt 0.046106 0.717535
vt 0.048165 0.754936
vt 0.009071 0.749878
vt 0.045351 0.672615
vt 0.000000 0.667039
vt 0.089537 0.716111
vt 0.089537 0.754345
vt 0.050545 0.792310
vt 0.011410 0.787920
vt 0.089537 0.670811
vt 0.132968 0.717535
vt 0.130909 0.754927
vt 0.089537 0.789877
vt 0.133723 0.672615
vt 0.173867 0.709041
vt 0.170003 0.749878
vt 0.128529 0.792310
vt 0.089537 0.824144
vt 0.053033 0.828866
vt 0.179074 0.667039
vt 0.167663 0.787920
vt 0.126041 0.828866
vt 0.089537 0.851399
vt 0.055689 0.857971
vt 0.123384 0.857971
vt 0.015932 0.823477
vt 0.022864 0.854501
vt 0.163142 0.823477
vt 0.156209 0.854501
vt 0.057628 0.878033
vt 0.030525 0.877721
vt 0.121446 0.878033
vt 0.148548 0.877721
vt 0.245787 0.000006
vt 0.273470 0.009438
vt 0.268085 0.043212
vt 0.235155 0.033327
vt 0.005186 0.167295
vt -0.000000 0.127086
vt 0.037588 0.122470
vt 0.046495 0.152649
vt 0.000267 0.083647
vt 0.038210 0.083647
vt 0.076946 0.116467
vt 0.076360 0.138604
vt -0.000000 0.040209
vt 0.037588 0.044825
vt 0.077491 0.083647
vt 0.109247 0.115360
vt 0.099904 0.142623
vt 0.071032 0.163478
vt 0.005186 0.000000
vt 0.046495 0.014646
vt 0.076946 0.050827
vt 0.108722 0.083647
vt 0.110677 0.144473
vt 0.119370 0.115634
vt 0.076360 0.028691
vt 0.109247 0.051935
vt 0.118516 0.083647
vt 0.071032 0.003817
vt 0.099904 0.024672
vt 0.119484 0.051651
vt 0.141698 0.083647
vt 0.143572 0.117816
vt 0.110677 0.022821
vt 0.143572 0.049478
vt 0.930864 0.606814
vt 0.941157 0.606834
vt 0.941157 0.643313
vt 0.927461 0.643300
vt 0.931493 0.587457
vt 0.941157 0.587476
vt 0.951450 0.606814
vt 0.954853 0.643300
vt 0.941157 0.684630
vt 0.923323 0.684605
vt 0.950821 0.587457
vt 0.958991 0.684605
vt 0.941157 0.718504
vt 0.920488 0.718415
vt 0.961826 0.718415
vt 0.941157 0.748301
vt 0.918094 0.748153
vt 0.964220 0.748153
vt 0.915281 0.777240
vt 0.941157 0.777388
vt 0.967033 0.777240
vt 0.886680 0.777737
vt 0.890151 0.747388
vt 0.912541 0.805579
vt 0.941157 0.805865
vt 0.992163 0.747388
vt 0.995633 0.777737
vt 0.969773 0.805579
vt 0.884388 0.806829
vt 0.997926 0.806829
vt 0.572825 0.043221
vt 0.567440 0.009446
vt 0.595123 0.000014
vt 0.605755 0.033336
vt 0.787882 0.330613
vt 0.777919 0.323511
vt 0.777035 0.305225
vt 0.787009 0.306086
vt 0.777900 0.323486
vt 0.777034 0.305653
vt 0.777174 0.274962
vt 0.787140 0.274942
vt 0.802002 0.308543
vt 0.798052 0.333607
vt 0.777164 0.244543
vt 0.787144 0.243732
vt 0.801942 0.274963
vt 0.778121 0.226191
vt 0.788074 0.219154
vt 0.802037 0.241364
vt 0.798105 0.216281
vn -0.833519 -0.436200 0.339081
vn -0.901201 -0.157504 0.403770
vn -0.958208 -0.283708 0.036694
vn -0.808524 -0.588363 -0.010916
vn -0.896207 0.219667 0.385435
vn -0.969643 0.238240 0.055084
vn -0.951969 0.223971 -0.208786
vn -0.913377 -0.329131 -0.239613
vn -0.755906 -0.614850 -0.224869
vn -0.769976 0.572995 0.280738
vn -0.782211 0.621843 0.038173
vn -0.666301 0.726528 0.167931
vn -0.638622 0.769316 0.017760
vn -0.640204 0.758206 -0.123540
vn -0.774913 0.614323 -0.148719
vn 0.659460 0.728039 0.187273
vn 0.768413 0.566450 0.297787
vn 0.804134 0.590316 0.069973
vn 0.643211 0.763810 0.053614
vn 0.895155 0.208718 0.393872
vn 0.976886 0.201855 0.070352
vn 0.966351 0.158550 -0.202554
vn 0.825064 0.545446 -0.147506
vn 0.669441 0.733435 -0.117992
vn 0.901201 -0.157504 0.403769
vn 0.958038 -0.284227 0.037121
vn 0.833519 -0.436200 0.339081
vn 0.808524 -0.588363 -0.010917
vn 0.755906 -0.614849 -0.224870
vn 0.912881 -0.331175 -0.238685
vn 0.808114 -0.291657 -0.511750
vn 0.859180 0.107695 -0.500211
vn 0.713425 -0.543597 -0.442185
vn 0.724043 -0.432444 -0.537359
vn 0.774425 -0.211117 -0.596402
vn 0.791944 0.069438 -0.606633
vn 0.791361 0.433610 -0.430965
vn 0.710378 0.613062 -0.345716
vn 0.788501 0.294752 -0.539802
vn 0.771650 0.447882 -0.451616
vn -0.739134 0.556295 -0.379759
vn -0.852616 0.191962 -0.486001
vn -0.652406 0.696052 -0.299798
vn -0.724912 0.585200 -0.363378
vn -0.760627 0.443428 -0.474150
vn -0.798075 0.135615 -0.587099
vn -0.809174 -0.288730 -0.511735
vn -0.713423 -0.543598 -0.442185
vn -0.775305 -0.209707 -0.595756
vn -0.724042 -0.432444 -0.537360
vn -0.487647 -0.098858 0.867426
vn -0.217013 -0.179395 0.959543
vn -0.293323 -0.003202 0.956008
vn -0.537495 0.045728 0.842026
vn -0.000006 -0.232705 0.972548
vn -0.000003 -0.048290 0.998833
vn 0.000005 0.140196 0.990124
vn -0.313520 0.155012 0.936844
vn -0.560006 0.168960 0.811077
vn -0.363194 -0.928523 -0.077040
vn -0.132647 -0.990757 -0.028362
vn -0.143179 -0.988203 0.054353
vn -0.336536 -0.940971 0.036278
vn 0.000000 -0.999690 -0.024879
vn -0.000000 -0.998522 0.054358
vn -0.000000 -0.989558 0.144137
vn -0.147055 -0.978643 0.143638
vn -0.334750 -0.929304 0.156001
vn -0.301463 0.218968 0.927994
vn -0.599351 0.279386 0.750148
vn 0.000000 0.236999 0.971510
vn 0.000000 -0.168022 0.985783
vn -0.320022 -0.204925 0.924982
vn -0.703421 0.193657 0.683883
vn -0.667193 0.377968 0.641867
vn -0.126139 0.621384 0.773286
vn -0.151798 0.534598 0.831362
vn -0.617949 0.327912 0.714572
vn -0.000000 0.639441 0.768841
vn -0.000000 0.542214 0.840240
vn 0.000043 0.676296 0.736630
vn -0.187279 0.668762 0.719503
vn -0.776422 0.462350 0.428254
vn -0.431961 0.838432 0.332328
vn -0.094670 0.902995 0.419092
vn -0.097090 0.988891 0.112550
vn -0.509559 0.857225 0.074260
vn 0.000053 0.905286 0.424803
vn -0.000000 0.992908 0.118885
vn -0.000000 0.944489 -0.328544
vn -0.109797 0.940574 -0.321349
vn -0.467530 0.854427 -0.226649
vn -0.754015 0.423556 -0.502058
vn -0.165529 0.524362 -0.835251
vn -0.111066 0.298153 -0.948034
vn -0.507514 0.206908 -0.836432
vn 0.000000 0.512592 -0.858632
vn 0.000000 0.280303 -0.959912
vn 0.000000 0.068781 -0.997632
vn -0.083518 0.047589 -0.995369
vn -0.292382 -0.022487 -0.956037
vn -0.875421 0.424105 -0.231890
vn -0.302578 0.813815 -0.496137
vn -0.178980 0.968386 -0.173767
vn -0.388179 0.913972 -0.118200
vn -0.000037 0.836847 -0.547436
vn -0.002059 0.982718 -0.185098
vn -0.007709 0.995089 -0.098688
vn -0.157297 0.981237 -0.111497
vn -0.318427 0.939727 -0.124567
vn -0.409669 0.907781 -0.090031
vn -0.152826 0.987717 0.032559
vn -0.142933 0.919022 0.367380
vn -0.623907 0.780778 0.033546
vn 0.014148 0.998098 0.060009
vn 0.068636 0.888731 0.453261
vn 0.043402 0.831402 0.553975
vn -0.198571 0.848679 0.490218
vn -0.801494 0.587974 0.109058
vn -0.221352 0.871279 0.438036
vn -0.852924 0.514461 0.088606
vn 0.013174 0.878102 0.478293
vn 0.000000 0.955387 0.295358
vn -0.262767 0.939210 0.220993
vn -0.829409 0.557639 0.033448
vn -0.782852 -0.059899 -0.619319
vn -0.256855 -0.160253 -0.953071
vn -0.313206 -0.294015 -0.903027
vn -0.844066 -0.052192 -0.533693
vn 0.000000 -0.211489 -0.977380
vn -0.000000 -0.325670 -0.945483
vn 0.000000 -0.259584 -0.965721
vn -0.362464 -0.205140 -0.909141
vn -0.827035 0.108853 -0.551511
vn -0.341480 -0.107487 -0.933723
vn -0.746207 0.108014 -0.656893
vn 0.000000 -0.165959 -0.986133
vn 0.000000 -0.231316 -0.972879
vn -0.288186 -0.177428 -0.940993
vn -0.694997 -0.025768 -0.718551
vn -0.434799 -0.804004 -0.405619
vn -0.442033 -0.762755 -0.472029
vn -0.166348 -0.880135 -0.444625
vn -0.152813 -0.930602 -0.332609
vn -0.368925 -0.747030 -0.553028
vn -0.139796 -0.802828 -0.579589
vn 0.000002 -0.811341 -0.584573
vn 0.000001 -0.898808 -0.438342
vn 0.000001 -0.955450 -0.295152
vn -0.474640 -0.640145 -0.604095
vn -0.140090 -0.714531 -0.685434
vn -0.582567 -0.435229 -0.686434
vn -0.186307 -0.558482 -0.808324
vn 0.000000 -0.595454 -0.803390
vn 0.000002 -0.723990 -0.689810
vn -0.657055 -0.203123 -0.725961
vn -0.240064 -0.337810 -0.910084
vn 0.000000 -0.389446 -0.921049
vn -0.000000 -0.755632 0.654997
vn -0.000000 -0.488101 0.872787
vn -0.145448 -0.448584 0.881826
vn -0.104446 -0.754253 0.648223
vn -0.429063 -0.424926 0.797084
vn -0.253998 -0.746725 0.614725
vn -0.338672 -0.869859 0.358672
vn -0.133017 -0.930708 0.340720
vn -0.000000 -0.938855 0.344313
vn -0.706647 0.609238 -0.359832
vn -0.160014 0.728430 -0.666172
vn 0.000000 0.739388 -0.673279
vn -0.683762 0.647312 0.336832
vn -0.151750 0.795807 0.586227
vn 0.000092 0.807718 0.589569
vn -0.340604 0.929332 -0.142586
vn -0.163257 0.982648 -0.088039
vn -0.009494 0.997760 -0.066224
vn -0.888508 0.264681 -0.374831
vn -0.372946 0.607725 -0.701129
vn 0.000001 0.654772 -0.755826
vn -0.319243 -0.811054 0.490179
vn -0.783116 -0.415218 0.462951
vn -0.000000 -0.835664 0.549241
vn -0.000000 -0.958630 0.284654
vn -0.268065 -0.930373 0.250096
vn -0.789612 -0.572666 0.220377
vn 0.527909 0.849300 0.001146
vn 0.680981 0.730011 0.057871
vn 0.495815 0.860882 -0.114240
vn 0.287670 0.952280 -0.102027
vn 0.357842 0.929100 -0.093395
vn 0.863341 0.453284 -0.221756
vn -0.562929 0.826056 -0.027246
vn -0.514234 0.847548 -0.131250
vn -0.698127 0.714675 0.043106
vn 0.550229 0.802353 -0.231254
vn 0.653325 0.676877 -0.339124
vn 0.383794 0.915875 -0.117796
vn 0.311468 0.941257 -0.130471
vn -0.551020 0.802311 -0.229507
vn -0.646853 0.719613 -0.252466
vn -0.127625 -0.977866 -0.165800
vn -0.405644 -0.879658 -0.248303
vn 0.000000 -0.991006 -0.133819
vn 0.624574 -0.696185 -0.353884
vn 0.634226 -0.614212 -0.469576
vn 0.612671 -0.771131 -0.173183
vn 0.363193 -0.928523 -0.077041
vn 0.405644 -0.879658 -0.248303
vn 0.434793 -0.804002 -0.405630
vn -0.624575 -0.696185 -0.353883
vn -0.612671 -0.771131 -0.173183
vn -0.634236 -0.614206 -0.469571
vn 0.598425 -0.801070 -0.013243
vn 0.605045 -0.765746 0.218067
vn 0.334729 -0.929311 0.156002
vn 0.336526 -0.940975 0.036287
vn -0.598424 -0.801070 -0.013243
vn -0.605045 -0.765746 0.218067
vn 0.809774 0.195304 -0.553284
vn 0.818637 0.267794 -0.508056
vn 0.812114 0.048877 -0.581449
vn 0.694156 -0.028074 -0.719277
vn 0.738031 0.083171 -0.669621
vn 0.811603 0.080212 -0.578677
vn -0.812411 0.285428 -0.508448
vn -0.816175 0.073259 -0.573142
vn -0.824782 0.386995 -0.412274
vn 0.800097 -0.167021 -0.576150
vn 0.748030 -0.378976 -0.544819
vn 0.582566 -0.435230 -0.686434
vn 0.657055 -0.203123 -0.725962
vn -0.800138 -0.166937 -0.576118
vn -0.748031 -0.378975 -0.544819
vn 0.368949 -0.747046 -0.552990
vn 0.474638 -0.640153 -0.604089
vn 0.639676 -0.582855 -0.501094
vn 0.442029 -0.762756 -0.472031
vn -0.639689 -0.582840 -0.501095
vn 0.700849 0.448109 0.554985
vn 0.708849 0.197470 0.677155
vn 0.721060 0.578227 0.381740
vn 0.703413 0.193668 0.683888
vn 0.599351 0.279386 0.750148
vn 0.560006 0.168920 0.811085
vn -0.700850 0.448109 0.554985
vn -0.721078 0.578208 0.381737
vn -0.708860 0.197491 0.677137
vn 0.709808 -0.009278 0.704334
vn 0.719474 -0.182280 0.670173
vn 0.537487 0.045724 0.842031
vn 0.487660 -0.098820 0.867423
vn -0.709824 -0.009285 0.704318
vn -0.719477 -0.182297 0.670165
vn 0.429063 -0.424926 0.797084
vn 0.603377 -0.594758 0.531224
vn 0.253998 -0.746725 0.614725
vn 0.338659 -0.869872 0.358654
vn -0.603377 -0.594759 0.531223
vn 0.813573 0.568821 0.120591
vn 0.633219 0.773889 0.011399
vn 0.805958 0.442411 -0.393325
vn 0.921518 0.255579 -0.292376
vn -0.814380 0.515733 -0.266092
vn -0.930292 0.273345 -0.244621
vn 0.829410 0.557639 0.033448
vn 0.851187 0.516648 0.092499
vn 0.958736 0.153649 -0.239201
vn 0.888507 0.264681 -0.374832
vn 0.842473 -0.053123 -0.536114
vn 0.782852 -0.059898 -0.619318
vn -0.960307 0.158168 -0.229767
vn -0.904494 -0.369750 0.212543
vn -0.920497 -0.385870 0.061560
vn -0.969408 -0.224158 0.100003
vn -0.959656 -0.230782 0.160621
vn -0.974621 -0.223680 0.008992
vn -0.967311 -0.202305 -0.152910
vn -0.932854 -0.301957 -0.196484
vn 0.959650 -0.230790 0.160652
vn 0.904503 -0.369716 0.212566
vn 0.920497 -0.385870 0.061560
vn 0.974621 -0.223680 0.008993
vn 0.789672 -0.572598 0.220337
vn 0.969411 -0.224146 0.100008
vn 0.932854 -0.301957 -0.196484
vn 0.967311 -0.202305 -0.152910
vn 0.467530 0.854427 -0.226649
vn 0.509559 0.857225 0.074259
vn 0.853761 0.520565 0.010252
vn 0.706647 0.609238 -0.359832
vn 0.431909 0.838416 0.332435
vn 0.683716 0.647351 0.336852
vn 0.776451 0.462287 0.428269
vn 0.932712 0.360289 -0.015504
vn 0.754015 0.423556 -0.502058
vn -0.853761 0.520565 0.010252
vn -0.932712 0.360289 -0.015504
vn 0.887910 0.421425 0.184439
vn 0.783122 -0.415215 0.462943
vn -0.887910 0.421425 0.184437
vn 0.301463 0.218968 0.927994
vn 0.320022 -0.204925 0.924982
vn 0.313528 0.154989 0.936845
vn 0.319243 -0.811054 0.490179
vn 0.268065 -0.930373 0.250096
vn 0.151798 0.534598 0.831362
vn 0.187264 0.668820 0.719452
vn 0.126139 0.621384 0.773286
vn 0.667281 0.377823 0.641861
vn 0.618127 0.327754 0.714490
vn 0.151752 0.795815 0.586216
vn 0.094704 0.902934 0.419215
vn 0.097090 0.988891 0.112550
vn 0.109798 0.940574 -0.321349
vn 0.160014 0.728430 -0.666172
vn 0.165529 0.524362 -0.835251
vn 0.111066 0.298153 -0.948034
vn 0.083518 0.047589 -0.995369
vn 0.507514 0.206908 -0.836432
vn 0.292382 -0.022487 -0.956037
vn 0.164514 0.973007 -0.161842
vn 0.132709 0.986640 -0.094498
vn 0.294276 0.820962 -0.489309
vn 0.137240 0.987423 -0.078486
vn 0.158499 0.986787 0.033604
vn 0.217128 0.881227 0.419875
vn 0.244228 0.815123 0.525288
vn 0.233119 0.862225 0.449694
vn 0.262767 0.939210 0.220993
vn 0.372946 0.607726 -0.701128
vn 0.256855 -0.160252 -0.953071
vn 0.313207 -0.294014 -0.903027
vn 0.362464 -0.205140 -0.909141
vn 0.341480 -0.107487 -0.933723
vn 0.288186 -0.177428 -0.940993
vn 0.240064 -0.337810 -0.910084
vn 0.186308 -0.558483 -0.808323
vn 0.140093 -0.714533 -0.685432
vn 0.139817 -0.802831 -0.579580
vn 0.166367 -0.880126 -0.444634
vn 0.152818 -0.930599 -0.332615
vn 0.127625 -0.977866 -0.165801
vn 0.132647 -0.990757 -0.028363
vn 0.143184 -0.988202 0.054360
vn 0.147041 -0.978646 0.143638
vn 0.133028 -0.930711 0.340707
vn 0.104446 -0.754253 0.648223
vn 0.145447 -0.448584 0.881826
vn 0.217016 -0.179396 0.959542
vn 0.293335 -0.003217 0.956004
vn -0.031106 -0.951637 0.305646
vn -0.181008 -0.929425 0.321567
vn -0.473028 -0.875690 0.097016
vn -0.076368 -0.984589 0.157332
vn 0.000076 -0.983959 0.178394
vn 0.000208 -0.948397 0.317085
vn 0.031858 -0.950571 0.308869
vn 0.076599 -0.984488 0.157848
vn 0.473707 -0.875261 0.097572
vn 0.182648 -0.927595 0.325894
vn -0.184076 -0.972698 0.141332
vn -0.685989 -0.724372 0.068584
vn -0.000000 -0.983054 0.183314
vn -0.479931 0.694410 0.536153
vn -0.080812 0.748912 0.657724
vn -0.115367 0.787581 0.605315
vn -0.652189 0.604383 0.457570
vn -0.000500 0.732302 0.680980
vn -0.000122 0.787566 0.616231
vn 0.184094 -0.972693 0.141340
vn 0.686286 -0.724105 0.068439
vn 0.115125 0.787882 0.604969
vn 0.079999 0.750343 0.656191
vn 0.479749 0.696438 0.533681
vn 0.652180 0.604857 0.456957
vn -0.392656 -0.108803 -0.913227
vn -0.708540 -0.105940 -0.697673
vn -0.865730 -0.164212 -0.472807
vn -0.717072 -0.002691 -0.696994
vn -0.136654 -0.031636 -0.990114
vn -0.345720 0.144331 -0.927171
vn 0.000021 -0.003809 -0.999993
vn -0.000125 0.301672 -0.953412
vn 0.136718 -0.030967 -0.990126
vn 0.345893 0.144361 -0.927102
vn -0.951068 0.211779 0.224987
vn -0.976770 -0.084712 0.196837
vn -0.911277 -0.270140 0.310803
vn -0.874801 0.014334 0.484271
vn -0.965477 0.258448 -0.032539
vn -0.999766 0.014334 -0.016203
vn -0.930542 0.189152 -0.313548
vn -0.973977 -0.039296 -0.223216
vn 0.976792 -0.084827 0.196675
vn 0.951030 0.211910 0.225024
vn 0.874739 0.014478 0.484378
vn 0.911277 -0.270330 0.310639
vn 0.999766 0.014334 -0.016203
vn 0.965477 0.258448 -0.032539
vn 0.973977 -0.039296 -0.223216
vn 0.930542 0.189153 -0.313548
vn 0.865730 -0.164212 -0.472807
vn 0.717072 -0.002691 -0.696994
vn 0.946801 0.024896 0.320856
vn 0.938667 -0.292394 0.182783
vn 0.982659 0.124545 0.137369
vn 0.963509 -0.266268 0.027414
vn -0.946948 0.024254 0.320471
vn -0.938680 -0.292240 0.182961
vn -0.963490 -0.266317 0.027603
vn -0.982782 0.123427 0.137495
vn 0.392597 -0.108423 -0.913298
vn 0.708587 -0.106000 -0.697616
vn -0.350288 0.155351 0.923669
vn -0.368764 -0.268162 0.890001
vn -0.011381 -0.058851 0.998202
vn -0.025325 0.264451 0.964067
vn -0.971241 0.113068 0.209538
vn -0.939692 -0.324499 0.108076
vn 0.971496 0.114574 0.207530
vn 0.939482 -0.325447 0.107045
vn 0.351381 0.160950 0.922294
vn 0.370397 -0.267720 0.889456
vn 0.023755 0.267341 0.963309
vn 0.009923 -0.058283 0.998251
vn -0.000781 -0.090114 0.995931
vn -0.000913 0.243589 0.969878
s 1
g duck
usemtl initialShadingGroup
f 2/1/1 188/2/2 290/3/3 191/4/4
f 188/2/2 3/7/5 189/8/6 290/3/3
f 290/3/3 189/8/6 17/19/7 190/9/8
f 191/4/4 290/3/3 190/9/8 18/10/9
f 3/7/5 192/17/10 291/18/11 189/8/6
f 192/17/10 4/29/12 193/30/13 291/18/11
f 291/18/11 193/30/13 16/41/14 194/31/15
f 189/8/6 291/18/11 194/31/15 17/19/7
f 5/150/16 195/140/17 292/143/18 198/151/19
f 195/140/17 6/141/20 196/142/21 292/143/18
f 292/143/18 196/142/21 14/148/22 197/149/23
f 198/151/19 292/143/18 197/149/23 15/161/24
f 6/141/20 199/146/25 293/147/26 196/142/21
f 199/146/25 1/156/27 200/157/28 293/147/26
f 293/147/26 200/157/28 13/172/29 201/158/30
f 196/142/21 293/147/26 201/158/30 14/148/22
f 14/148/22 201/158/30 294/173/31 204/159/32
f 201/158/30 13/172/29 202/187/33 294/173/31
f 294/173/31 202/187/33 7/200/34 203/188/35
f 204/159/32 294/173/31 203/188/35 12/174/36
f 15/161/24 197/149/23 295/160/37 206/176/38
f 197/149/23 14/148/22 204/159/32 295/160/37
f 295/160/37 204/159/32 12/174/36 205/175/39
f 206/176/38 295/160/37 205/175/39 11/191/40
f 17/19/7 194/31/15 296/42/41 209/32/42
f 194/31/15 16/41/14 207/55/43 296/42/41
f 296/42/41 207/55/43 10/65/44 208/56/45
f 209/32/42 296/42/41 208/56/45 9/43/46
f 18/10/9 190/9/8 297/20/47 211/21/48
f 190/9/8 17/19/7 209/32/42 297/20/47
f 297/20/47 209/32/42 9/43/46 210/33/49
f 211/21/48 297/20/47 210/33/49 8/34/50
f 43/482/51 212/483/52 298/484/53 215/485/54
f 212/483/52 94/488/55 213/489/56 298/484/53
f 298/484/53 213/489/56 71/495/57 214/490/58
f 215/485/54 298/484/53 214/490/58 19/491/59
f 65/279/60 216/280/61 299/281/62 219/282/63
f 216/280/61 91/285/64 217/286/65 299/281/62
f 299/281/62 217/286/65 92/294/66 218/287/67
f 219/282/63 299/281/62 218/287/67 41/288/68
f 19/27/59 214/48/58 300/49/69 222/37/70
f 214/490/58 71/495/57 220/500/71 300/501/69
f 300/501/69 220/500/71 72/505/72 221/506/73
f 222/508/70 300/501/69 221/506/73 21/509/74
f 23/516/75 223/517/76 301/518/77 226/519/78
f 223/375/76 74/376/79 224/369/80 301/360/77
f 301/360/77 224/369/80 75/361/81 225/352/82
f 226/359/78 301/360/77 225/352/82 51/351/83
f 52/341/84 227/342/85 302/343/86 230/344/87
f 227/342/85 76/347/88 228/348/89 302/343/86
f 302/343/86 228/348/89 77/356/90 229/349/91
f 230/344/87 302/343/86 229/349/91 47/350/92
f 48/520/93 231/521/94 303/522/95 234/523/96
f 231/521/94 78/524/97 232/525/98 303/522/95
f 303/522/95 232/525/98 79/530/99 233/526/100
f 234/523/96 303/522/95 233/526/100 25/527/101
f 27/396/102 235/397/103 304/398/104 238/399/105
f 235/397/103 80/400/106 236/401/107 304/398/104
f 304/398/104 236/401/107 81/406/108 237/402/109
f 238/399/105 304/398/104 237/402/109 55/403/110
f 56/416/111 239/417/112 305/422/113 242/423/114
f 239/417/112 82/420/115 240/428/116 305/422/113
f 305/422/113 240/428/116 83/434/117 241/429/118
f 242/423/114 305/422/113 241/429/118 29/430/119
f 29/430/119 241/429/118 306/435/120 245/436/121
f 241/429/118 83/434/117 243/440/122 306/435/120
f 306/435/120 243/440/122 84/443/123 244/444/124
f 245/119/121 306/137/120 244/138/124 59/130/125
f 60/121/126 246/122/127 307/109/128 249/108/129
f 246/550/127 85/551/130 247/552/131 307/553/128
f 307/553/128 247/552/131 86/558/132 248/559/133
f 249/108/129 307/109/128 248/98/133 31/83/134
f 31/83/134 248/98/133 308/84/135 252/75/136
f 248/559/133 86/558/132 250/562/137 308/563/135
f 308/563/135 250/562/137 87/565/138 251/566/139
f 252/75/136 308/84/135 251/85/139 33/67/140
f 36/289/141 253/297/142 309/298/143 256/290/144
f 253/297/142 35/307/145 254/308/146 309/298/143
f 309/298/143 254/308/146 89/320/147 255/309/148
f 256/290/144 309/298/143 255/309/148 90/299/149
f 35/307/145 257/318/150 310/319/151 254/308/146
f 257/318/150 34/326/152 258/327/153 310/319/151
f 310/319/151 258/327/153 88/333/154 259/328/155
f 254/308/146 310/319/151 259/328/155 89/320/147
f 34/578/152 260/571/156 311/568/157 258/573/153
f 260/571/156 33/572/140 251/566/139 311/568/157
f 311/568/157 251/566/139 87/565/138 261/569/158
f 258/573/153 311/568/157 261/569/158 88/574/154
f 93/314/159 262/325/160 312/317/161 264/306/162
f 262/492/160 94/488/55 212/483/52 312/486/161
f 312/486/161 212/483/52 43/482/51 263/487/163
f 264/306/162 312/317/161 263/315/163 42/305/164
f 42/305/164 265/295/165 313/296/166 264/306/162
f 265/295/165 41/288/68 218/287/67 313/296/166
f 313/296/166 218/287/67 92/294/66 266/304/167
f 264/306/162 313/296/166 266/304/167 93/314/159
f 48/367/93 267/357/168 314/358/169 231/368/94
f 267/357/168 47/350/92 229/349/91 314/358/169
f 314/358/169 229/349/91 77/356/90 268/366/170
f 231/368/94 314/358/169 268/366/170 78/374/97
f 52/341/84 269/345/171 315/346/172 227/342/85
f 269/345/171 51/351/83 225/352/82 315/346/172
f 315/346/172 225/352/82 75/361/81 270/353/173
f 227/342/85 315/346/172 270/353/173 76/347/88
f 56/416/111 271/407/174 316/408/175 239/417/112
f 271/407/174 55/403/110 237/402/109 316/408/175
f 316/408/175 237/402/109 81/406/108 272/414/176
f 239/417/112 316/408/175 272/414/176 82/420/115
f 60/121/126 273/120/177 317/131/178 246/122/127
f 273/120/177 59/130/125 244/138/124 317/131/178
f 317/447/178 244/444/124 84/443/123 274/448/179
f 246/550/127 317/554/178 274/555/179 85/551/130
f 21/509/74 221/506/73 318/512/180 277/513/181
f 221/454/73 72/455/72 275/451/182 318/450/180
f 318/450/180 275/451/182 73/452/183 276/453/184
f 277/460/181 318/450/180 276/453/184 63/461/185
f 5/150/16 198/151/19 319/162/186 280/163/187
f 198/151/19 15/161/24 278/177/188 319/162/186
f 319/424/186 278/425/188 58/418/189 279/412/190
f 280/163/187 319/162/186 279/178/190 28/179/191
f 16/41/14 193/30/13 320/40/192 282/54/193
f 193/30/13 4/29/12 281/39/194 320/40/192
f 320/40/192 281/39/194 27/52/102 238/53/105
f 282/409/193 320/410/192 238/399/105 55/403/110
f 15/161/24 206/176/38 321/192/195 278/177/188
f 206/176/38 11/191/40 283/205/196 321/192/195
f 321/431/195 283/437/196 57/432/197 284/426/198
f 278/425/188 321/431/195 284/426/198 58/418/189
f 10/65/44 207/55/43 322/64/199 285/73/200
f 207/55/43 16/41/14 282/54/193 322/64/199
f 322/415/199 282/409/193 55/403/110 271/407/174
f 285/421/200 322/415/199 271/407/174 56/416/111
f 36/289/141 256/290/144 323/284/201 287/283/202
f 256/290/144 90/299/149 286/291/203 323/284/201
f 323/284/201 286/291/203 91/285/64 216/280/61
f 287/283/202 323/284/201 216/280/61 65/279/60
f 7/200/34 202/187/33 324/199/204 104/212/205
f 202/187/33 13/172/29 288/186/206 324/199/204
f 324/199/204 288/186/206 66/198/207 289/211/208
f 104/212/205 324/199/204 289/211/208 37/228/209
f 18/10/9 211/21/48 325/35/210 106/22/211
f 211/21/48 8/34/50 105/46/212 325/35/210
f 325/35/210 105/46/212 36/61/141 287/47/202
f 106/22/211 325/35/210 287/47/202 65/36/60
f 13/172/29 200/157/28 326/171/213 288/186/206
f 200/157/28 1/156/27 107/170/214 326/171/213
f 326/171/213 107/170/214 46/184/215 108/185/216
f 288/186/206 326/171/213 108/185/216 66/198/207
f 2/1/1 191/4/4 327/11/217 109/12/218
f 191/4/4 18/10/9 106/22/211 327/11/217
f 327/11/217 106/22/211 65/36/60 219/23/63
f 109/12/218 327/11/217 219/23/63 41/24/68
f 11/191/40 205/175/39 328/190/219 112/204/220
f 205/175/39 12/174/36 110/189/221 328/190/219
f 328/190/219 110/189/221 40/202/222 111/203/223
f 112/204/220 328/190/219 111/203/223 32/217/224
f 9/43/46 208/56/45 329/66/225 114/57/226
f 208/56/45 10/65/44 113/74/227 329/66/225
f 329/66/225 113/74/227 31/83/134 252/75/136
f 114/57/226 329/66/225 252/75/136 33/67/140
f 12/174/36 203/188/35 330/201/228 110/189/221
f 203/188/35 7/200/34 115/213/229 330/201/228
f 330/201/228 115/213/229 39/230/230 116/214/231
f 110/189/221 330/201/228 116/214/231 40/202/222
f 8/34/50 210/33/49 331/44/232 117/45/233
f 210/33/49 9/43/46 114/57/226 331/44/232
f 331/44/232 114/57/226 33/67/140 260/58/156
f 117/45/233 331/44/232 260/58/156 34/59/152
f 38/257/234 118/243/235 332/229/236 119/242/237
f 118/243/235 39/230/230 115/213/229 332/229/236
f 332/229/236 115/213/229 7/200/34 104/212/205
f 119/242/237 332/229/236 104/212/205 37/228/209
f 34/59/152 257/68/150 333/60/238 117/45/233
f 257/68/150 35/76/145 253/69/142 333/60/238
f 333/60/238 253/69/142 36/61/141 105/46/212
f 117/45/233 333/60/238 105/46/212 8/34/50
f 6/141/20 195/140/17 334/144/239 122/145/240
f 195/140/17 5/150/16 120/152/241 334/144/239
f 334/144/239 120/152/241 22/165/242 121/153/243
f 122/145/240 334/144/239 121/153/243 20/154/244
f 4/29/12 192/17/10 335/28/245 124/38/246
f 192/17/10 3/7/5 123/16/247 335/28/245
f 335/28/245 123/16/247 19/27/59 222/37/70
f 124/38/246 335/28/245 222/37/70 21/50/74
f 1/156/27 199/146/25 336/155/248 126/169/249
f 199/146/25 6/141/20 122/145/240 336/155/248
f 336/155/248 122/145/240 20/154/244 125/168/250
f 126/169/249 336/155/248 125/168/250 44/182/251
f 3/7/5 188/2/2 337/6/252 123/16/247
f 188/2/2 2/1/1 127/5/253 337/6/252
f 337/6/252 127/5/253 43/14/51 215/15/54
f 123/16/247 337/6/252 215/15/54 19/27/59
f 44/182/251 128/196/254 338/183/255 126/169/249
f 128/336/254 45/331/256 129/323/257 338/337/255
f 338/183/255 129/197/257 46/184/215 107/170/214
f 126/169/249 338/183/255 107/170/214 1/156/27
f 42/305/164 263/315/163 339/316/258 265/295/165
f 263/25/163 43/14/51 127/5/253 339/13/258
f 339/13/258 127/5/253 2/1/1 109/12/218
f 265/26/165 339/13/258 109/12/218 41/24/68
f 30/246/259 130/233/260 340/218/261 131/232/262
f 130/233/260 57/234/197 283/205/196 340/218/261
f 340/218/261 283/205/196 11/191/40 112/204/220
f 131/232/262 340/218/261 112/204/220 32/217/224
f 56/95/111 242/96/114 341/82/263 285/73/200
f 242/96/114 29/106/119 132/97/264 341/82/263
f 341/82/263 132/97/264 31/83/134 113/74/227
f 285/73/200 341/82/263 113/74/227 10/65/44
f 62/270/265 133/260/266 342/247/267 135/261/268
f 133/260/266 30/246/259 131/232/262 342/247/267
f 342/247/267 131/232/262 32/217/224 134/245/269
f 135/261/268 342/247/267 134/245/269 61/259/270
f 29/106/119 245/119/121 343/107/271 132/97/264
f 245/119/121 59/130/125 273/120/177 343/107/271
f 343/107/271 273/120/177 60/121/126 249/108/129
f 132/97/264 343/107/271 249/108/129 31/83/134
f 63/70/185 136/77/272 344/71/273 139/63/274
f 136/77/272 67/88/275 137/78/276 344/71/273
f 344/71/273 137/78/276 69/79/277 138/72/278
f 139/63/274 344/71/273 138/72/278 27/52/102
f 68/221/279 143/206/280 345/193/281 141/209/282
f 143/206/280 64/195/283 144/180/284 345/193/281
f 345/193/281 144/180/284 28/179/191 145/194/285
f 141/209/282 345/193/281 145/194/285 70/210/286
f 50/274/287 146/275/288 346/268/289 148/267/290
f 146/275/288 53/278/291 147/273/292 346/268/289
f 346/268/289 147/273/292 54/262/293 142/256/294
f 148/267/290 346/268/289 142/256/294 49/255/295
f 52/139/84 230/135/87 347/128/296 269/134/171
f 230/135/87 47/136/92 267/129/168 347/128/296
f 347/128/296 267/129/168 48/117/93 140/116/297
f 269/134/171 347/128/296 140/116/297 51/125/83
f 22/165/242 120/152/241 348/164/298 149/181/299
f 120/152/241 5/150/16 280/163/187 348/164/298
f 348/164/298 280/163/187 28/179/191 144/180/284
f 149/181/299 348/164/298 144/180/284 64/195/283
f 4/29/12 124/38/246 349/51/300 281/39/194
f 124/38/246 21/50/74 277/62/181 349/51/300
f 349/51/300 277/62/181 63/70/185 139/63/274
f 281/39/194 349/51/300 139/63/274 27/52/102
f 72/505/72 220/500/71 350/504/301 153/507/302
f 220/500/71 71/495/57 152/499/303 350/504/301
f 350/166/301 152/167/303 20/154/244 121/153/243
f 153/507/302 350/504/301 121/510/243 22/511/242
f 73/452/183 275/451/182 351/456/304 154/457/305
f 275/451/182 72/455/72 153/462/302 351/456/304
f 351/514/304 153/507/302 22/511/242 149/515/299
f 154/457/305 351/456/304 149/463/299 64/464/283
f 75/361/81 224/369/80 352/377/306 156/370/307
f 224/369/80 74/376/79 155/383/308 352/377/306
f 352/580/306 155/581/308 24/582/309 150/583/310
f 156/370/307 352/377/306 150/384/310 54/378/293
f 76/347/88 270/353/173 353/362/311 157/354/312
f 270/353/173 75/361/81 156/370/307 353/362/311
f 353/362/311 156/370/307 54/378/293 147/371/292
f 157/354/312 353/362/311 147/371/292 53/363/291
f 77/356/90 228/348/89 354/355/313 158/365/314
f 228/348/89 76/347/88 157/354/312 354/355/313
f 354/355/313 157/354/312 53/363/291 146/364/288
f 158/365/314 354/355/313 146/364/288 50/372/287
f 78/374/97 268/366/170 355/373/315 159/380/316
f 268/366/170 77/356/90 158/365/314 355/373/315
f 355/373/315 158/365/314 50/372/287 148/379/290
f 159/380/316 355/373/315 148/379/290 49/385/295
f 79/530/99 232/525/98 356/529/317 160/536/318
f 232/525/98 78/524/97 159/528/316 356/529/317
f 356/529/317 159/528/316 49/534/295 151/535/319
f 160/536/318 356/529/317 151/535/319 26/540/320
f 81/406/108 236/401/107 357/405/321 162/413/322
f 236/401/107 80/400/106 161/404/323 357/405/321
f 357/405/321 161/404/323 28/411/191 279/412/190
f 162/413/322 357/405/321 279/412/190 58/418/189
f 82/420/115 272/414/176 358/419/324 163/427/325
f 272/414/176 81/406/108 162/413/322 358/419/324
f 358/419/324 162/413/322 58/418/189 284/426/198
f 163/427/325 358/419/324 284/426/198 57/432/197
f 83/434/117 240/428/116 359/433/326 164/439/327
f 240/428/116 82/420/115 163/427/325 359/433/326
f 359/433/326 163/427/325 57/432/197 130/438/260
f 164/439/327 359/433/326 130/438/260 30/441/259
f 84/443/123 243/440/122 360/442/328 165/446/329
f 243/440/122 83/434/117 164/439/327 360/442/328
f 360/442/328 164/439/327 30/441/259 133/445/266
f 165/276/329 360/277/328 133/260/266 62/270/265
f 85/551/130 274/555/179 361/560/330 166/556/331
f 274/448/179 84/443/123 165/446/329 361/449/330
f 361/269/330 165/276/329 62/270/265 135/261/268
f 166/258/331 361/269/330 135/261/268 61/259/270
f 86/558/132 247/552/131 362/557/332 167/561/333
f 247/552/131 85/551/130 166/556/331 362/557/332
f 362/244/332 166/258/331 61/259/270 134/245/269
f 167/231/333 362/244/332 134/245/269 32/217/224
f 87/565/138 250/562/137 363/564/334 168/567/335
f 250/562/137 86/558/132 167/561/333 363/564/334
f 363/216/334 167/231/333 32/217/224 111/203/223
f 168/215/335 363/216/334 111/203/223 40/202/222
f 88/574/154 261/569/158 364/570/336 169/577/337
f 261/569/158 87/565/138 168/567/335 364/570/336
f 364/570/336 168/567/335 40/575/222 116/576/231
f 169/577/337 364/570/336 116/576/231 39/579/230
f 89/320/147 259/328/155 365/334/338 170/329/339
f 259/328/155 88/333/154 169/338/337 365/334/338
f 365/334/338 169/338/337 39/340/230 118/339/235
f 170/329/339 365/334/338 118/339/235 38/335/234
f 90/299/149 255/309/148 366/321/340 171/310/341
f 255/309/148 89/320/147 170/329/339 366/321/340
f 366/321/340 170/329/339 38/335/234 119/330/237
f 171/310/341 366/321/340 119/330/237 37/322/209
f 91/285/64 286/291/203 367/300/342 172/292/343
f 286/291/203 90/299/149 171/310/341 367/300/342
f 367/300/342 171/310/341 37/322/209 289/311/208
f 172/292/343 367/300/342 289/311/208 66/301/207
f 92/294/66 217/286/65 368/293/344 173/303/345
f 217/286/65 91/285/64 172/292/343 368/293/344
f 368/293/344 172/292/343 66/301/207 108/302/216
f 173/303/345 368/293/344 108/302/216 46/312/215
f 93/314/159 266/304/167 369/313/346 174/324/347
f 266/304/167 92/294/66 173/303/345 369/313/346
f 369/313/346 173/303/345 46/312/215 129/323/257
f 174/324/347 369/313/346 129/323/257 45/331/256
f 45/331/256 128/336/254 370/332/348 174/324/347
f 128/502/254 44/497/251 175/493/349 370/496/348
f 370/496/348 175/493/349 94/488/55 262/492/160
f 174/324/347 370/332/348 262/325/160 93/314/159
f 71/495/57 213/489/56 371/494/350 152/499/303
f 213/489/56 94/488/55 175/493/349 371/494/350
f 371/494/350 175/493/349 44/497/251 125/498/250
f 152/499/303 371/494/350 125/498/250 20/503/244
f 177/471/351 95/476/352 96/473/353 176/467/354
f 177/471/351 176/467/354 97/466/355 98/472/356
f 179/475/357 98/472/356 97/466/355 178/470/358
f 179/475/357 178/470/358 100/474/359 101/479/360
f 63/461/185 276/453/184 372/459/361 183/468/362
f 276/453/184 73/452/183 182/458/363 372/459/361
f 372/459/361 182/458/363 97/466/355 176/467/354
f 183/468/362 372/459/361 176/467/354 96/473/353
f 99/392/364 180/386/365 373/381/366 185/389/367
f 180/386/365 103/387/368 184/382/369 373/381/366
f 373/381/366 184/382/369 74/376/79 223/375/76
f 185/389/367 373/381/366 223/375/76 23/390/75
f 97/466/355 182/458/363 374/465/370 178/470/358
f 182/458/363 73/452/183 154/457/305 374/465/370
f 374/465/370 154/457/305 64/464/283 187/469/371
f 178/470/358 374/465/370 187/469/371 100/474/359
f 74/376/79 184/382/369 375/388/372 155/383/308
f 184/382/369 103/387/368 181/391/373 375/388/372
f 375/388/372 181/391/373 102/395/374 186/393/375
f 155/383/308 375/388/372 186/393/375 24/394/309
f 376/91/376 377/81/377 407/80/378 406/92/379
f 377/538/377 376/532/376 378/531/380 379/539/381
f 379/539/381 378/531/380 381/537/382 380/542/383
f 380/542/383 381/537/382 409/541/384 408/545/385
f 382/113/386 383/101/387 401/87/388 400/100/389
f 383/101/387 382/113/386 385/104/390 384/89/391
f 384/89/391 385/104/390 387/105/392 386/90/393
f 386/90/393 387/105/392 406/92/379 407/80/378
f 388/239/394 389/248/395 394/235/396 395/219/397
f 389/248/395 388/239/394 391/227/398 390/241/399
f 390/241/399 391/227/398 393/224/400 392/240/401
f 392/240/401 393/224/400 405/208/402 404/223/403
f 395/219/397 394/235/396 397/236/404 396/220/405
f 396/220/405 397/236/404 422/251/406 423/237/407
f 398/99/408 399/86/409 425/102/410 424/110/411
f 399/86/409 398/99/408 400/100/389 401/87/388
f 402/544/412 403/548/413 408/545/385 409/541/384
f 403/207/413 402/222/412 404/223/403 405/208/402
f 410/584/414 411/585/415 418/586/416 419/587/417
f 411/127/415 410/132/414 413/123/418 412/114/419
f 412/114/419 413/123/418 424/110/411 425/102/410
f 414/264/420 415/252/421 423/237/407 422/251/406
f 415/252/421 414/264/420 417/272/422 416/265/423
f 416/597/423 417/598/422 426/595/424 427/594/425
f 419/587/417 418/586/416 421/590/426 420/591/427
f 420/591/427 421/590/426 427/594/425 426/595/424
f 25/527/101 233/526/100 378/531/380 376/532/376
f 233/526/100 79/530/99 381/537/382 378/531/380
f 379/539/381 380/542/383 80/546/106 235/547/103
f 377/81/377 379/93/381 235/94/103 27/52/102
f 67/88/275 383/101/387 384/89/391 137/78/276
f 382/113/386 51/125/83 140/116/297 385/104/390
f 385/104/390 140/116/297 48/117/93 387/105/392
f 137/78/276 384/89/391 386/90/393 69/79/277
f 54/262/293 389/248/395 390/241/399 142/256/294
f 388/239/394 68/221/279 141/209/282 391/227/398
f 391/227/398 141/209/282 70/210/286 393/224/400
f 142/256/294 390/241/399 392/240/401 49/255/295
f 54/262/293 150/249/310 394/235/396 389/248/395
f 150/249/310 24/250/309 397/236/404 394/235/396
f 395/219/397 396/220/405 64/195/283 143/206/280
f 388/239/394 395/219/397 143/206/280 68/221/279
f 23/111/75 226/112/78 400/100/389 398/99/408
f 226/112/78 51/125/83 382/113/386 400/100/389
f 401/87/388 383/101/387 67/88/275 136/77/272
f 399/86/409 401/87/388 136/77/272 63/70/185
f 26/540/320 151/535/319 404/543/403 402/544/412
f 151/254/319 49/255/295 392/240/401 404/223/403
f 405/208/402 393/224/400 70/210/286 145/194/285
f 403/207/413 405/208/402 145/194/285 28/179/191
f 48/117/93 234/118/96 406/92/379 387/105/392
f 234/523/96 25/527/101 376/532/376 406/533/379
f 407/80/378 377/81/377 27/52/102 138/72/278
f 386/90/393 407/80/378 138/72/278 69/79/277
f 80/546/106 380/542/383 408/545/385 161/549/323
f 381/537/382 79/530/99 160/536/318 409/541/384
f 409/541/384 160/536/318 26/540/320 402/544/412
f 161/225/323 408/226/385 403/207/413 28/179/191
f 412/114/419 96/115/353 95/126/352 411/127/415
f 413/123/418 410/132/414 99/133/364
f 180/592/365 99/593/364 410/584/414 419/587/417
f 103/596/368 180/592/365 419/587/417 420/591/427
f 416/265/423 101/266/360 100/253/359 415/252/421
f 417/272/422 414/264/420 102/271/374
f 417/598/422 102/600/374 181/599/373 426/595/424
f 181/599/373 103/596/368 420/591/427 426/595/424
f 95/588/352 177/589/351 418/586/416 411/585/415
f 177/471/351 98/472/356 421/477/426 418/478/416
f 24/250/309 186/263/375 422/251/406 397/236/404
f 186/263/375 102/271/374 414/264/420 422/251/406
f 423/237/407 415/252/421 100/253/359 187/238/371
f 396/220/405 423/237/407 187/238/371 64/195/283
f 99/133/364 185/124/367 424/110/411 413/123/418
f 185/124/367 23/111/75 398/99/408 424/110/411
f 425/102/410 399/86/409 63/70/185 183/103/362
f 412/114/419 425/102/410 183/103/362 96/115/353
f 421/477/426 98/472/356 179/475/357 427/480/425
f 427/480/425 179/475/357 101/479/360 416/481/423
g default
v 0.120288 0.245651 0.231961
v 0.120288 0.271074 0.213490
v 0.120288 0.302500 0.213490
v 0.120288 0.327924 0.231961
v 0.120288 0.337635 0.261849
v 0.120288 0.327924 0.291736
v 0.120288 0.302500 0.310208
v 0.120288 0.271074 0.310208
v 0.120288 0.245651 0.291736
v 0.120288 0.235940 0.261849
v 0.143660 0.208541 0.204999
v 0.143660 0.256900 0.169865
v 0.143660 0.316675 0.169865
v 0.143660 0.365034 0.204999
v 0.143660 0.383505 0.261849
v 0.143660 0.365034 0.318698
v 0.143660 0.316675 0.353833
v 0.143660 0.256900 0.353833
v 0.143660 0.208541 0.318698
v 0.143660 0.190069 0.261849
v 0.180063 0.179090 0.183602
v 0.180063 0.245651 0.135243
v 0.180063 0.327924 0.135243
v 0.180063 0.394484 0.183602
v 0.180063 0.419908 0.261849
v 0.180063 0.394484 0.340095
v 0.180063 0.327924 0.388454
v 0.180063 0.245651 0.388454
v 0.180063 0.179090 0.340095
v 0.180063 0.153666 0.261849
v 0.225933 0.160182 0.169865
v 0.225933 0.238428 0.113015
v 0.225933 0.335146 0.113015
v 0.225933 0.413393 0.169865
v 0.225933 0.443280 0.261849
v 0.225933 0.413393 0.353833
v 0.225933 0.335146 0.410682
v 0.225933 0.238428 0.410682
v 0.225933 0.160182 0.353833
v 0.225933 0.130294 0.261849
v 0.276781 0.153666 0.165131
v 0.276781 0.235940 0.105356
v 0.276781 0.337635 0.105356
v 0.276781 0.419908 0.165131
v 0.276781 0.451334 0.261849
v 0.276781 0.419908 0.358567
v 0.276781 0.337635 0.418342
v 0.276781 0.235940 0.418342
v 0.276781 0.153666 0.358567
v 0.276781 0.122241 0.261849
v 0.327628 0.160182 0.169865
v 0.327628 0.238428 0.113015
v 0.327628 0.335146 0.113015
v 0.327628 0.413393 0.169865
v 0.327628 0.443280 0.261849
v 0.327628 0.413393 0.353833
v 0.327628 0.335146 0.410682
v 0.327628 0.238428 0.410682
v 0.327628 0.160182 0.353833
v 0.327628 0.130294 0.261849
v 0.373499 0.179090 0.183602
v 0.373499 0.245651 0.135243
v 0.373499 0.327924 0.135243
v 0.373499 0.394484 0.183602
v 0.373499 0.419908 0.261849
v 0.373499 0.394484 0.340095
v 0.373499 0.327924 0.388454
v 0.373499 0.245651 0.388454
v 0.373499 0.179090 0.340095
v 0.373499 0.153666 0.261849
v 0.409902 0.208541 0.204999
v 0.409902 0.256900 0.169865
v 0.409902 0.316675 0.169865
v 0.409902 0.365034 0.204999
v 0.409902 0.383505 0.261849
v 0.409902 0.365034 0.318698
v 0.409902 0.316675 0.353833
v 0.409902 0.256900 0.353833
v 0.409902 0.208541 0.318698
v 0.409902 0.190069 0.261849
v 0.433274 0.245651 0.231961
v 0.433274 0.271074 0.213490
v 0.433274 0.302500 0.213490
v 0.433274 0.327924 0.231961
v 0.433274 0.337635 0.261849
v 0.433274 0.327924 0.291736
v 0.433274 0.302500 0.310208
v 0.433274 0.271074 0.310208
v 0.433274 0.245651 0.291736
v 0.433274 0.235940 0.261849
v 0.112234 0.286787 0.261849
v 0.441327 0.286787 0.261849
v -0.120288 0.245651 0.231961
v -0.120288 0.271074 0.213490
v -0.120288 0.302500 0.213490
v -0.120288 0.327924 0.231961
v -0.120288 0.337635 0.261849
v -0.120288 0.327924 0.291736
v -0.120288 0.302500 0.310208
v -0.120288 0.271074 0.310208
v -0.120288 0.245651 0.291736
v -0.120288 0.235940 0.261849
v -0.143660 0.208541 0.204999
v -0.143660 0.256900 0.169865
v -0.143660 0.316675 0.169865
v -0.143660 0.365034 0.204999
v -0.143660 0.383505 0.261849
v -0.143660 0.365034 0.318698
v -0.143660 0.316675 0.353833
v -0.143660 0.256900 0.353833
v -0.143660 0.208541 0.318698
v -0.143660 0.190069 0.261849
v -0.180063 0.179090 0.183602
v -0.180063 0.245651 0.135243
v -0.180063 0.327924 0.135243
v -0.180063 0.394484 0.183602
v -0.180063 0.419908 0.261849
v -0.180063 0.394484 0.340095
v -0.180063 0.327924 0.388454
v -0.180063 0.245651 0.388454
v -0.180063 0.179090 0.340095
v -0.180063 0.153666 0.261849
v -0.225933 0.160182 0.169865
v -0.225933 0.238428 0.113015
v -0.225933 0.335146 0.113015
v -0.225933 0.413393 0.169865
v -0.225933 0.443280 0.261849
v -0.225933 0.413393 0.353833
v -0.225933 0.335146 0.410682
v -0.225933 0.238428 0.410682
v -0.225933 0.160182 0.353833
v -0.225933 0.130294 0.261849
v -0.276781 0.153666 0.165131
v -0.276781 0.235940 0.105356
v -0.276781 0.337635 0.105356
v -0.276781 0.419908 0.165131
v -0.276781 0.451334 0.261849
v -0.276781 0.419908 0.358567
v -0.276781 0.337635 0.418342
v -0.276781 0.235940 0.418342
v -0.276781 0.153666 0.358567
v -0.276781 0.122241 0.261849
v -0.327628 0.160182 0.169865
v -0.327628 0.238428 0.113015
v -0.327628 0.335146 0.113015
v -0.327628 0.413393 0.169865
v -0.327628 0.443280 0.261849
v -0.327628 0.413393 0.353833
v -0.327628 0.335146 0.410682
v -0.327628 0.238428 0.410682
v -0.327628 0.160182 0.353833
v -0.327628 0.130294 0.261849
v -0.373499 0.179090 0.183602
v -0.373499 0.245651 0.135243
v -0.373499 0.327924 0.135243
v -0.373499 0.394484 0.183602
v -0.373499 0.419908 0.261849
v -0.373499 0.394484 0.340095
v -0.373499 0.327924 0.388454
v -0.373499 0.245651 0.388454
v -0.373499 0.179090 0.340095
v -0.373499 0.153666 0.261849
v -0.409902 0.208541 0.204999
v -0.409902 0.256900 0.169865
v -0.409902 0.316675 0.169865
v -0.409902 0.365034 0.204999
v -0.409902 0.383505 0.261849
v -0.409902 0.365034 0.318698
v -0.409902 0.316675 0.353833
v -0.409902 0.256900 0.353833
v -0.409902 0.208541 0.318698
v -0.409902 0.190069 0.261849
v -0.433274 0.245651 0.231961
v -0.433274 0.271074 0.213490
v -0.433274 0.302500 0.213490
v -0.433274 0.327924 0.231961
v -0.433274 0.337635 0.261849
v -0.433274 0.327924 0.291736
v -0.433274 0.302500 0.310208
v -0.433274 0.271074 0.310208
v -0.433274 0.245651 0.291736
v -0.433274 0.235940 0.261849
v -0.112234 0.286787 0.261849
v -0.441327 0.286787 0.261849
vt 0.491953 0.073646
vt 0.491953 0.049102
vt 0.506342 0.049102
vt 0.506342 0.077955
vt 0.480534 0.066934
vt 0.480534 0.049102
vt 0.491953 0.024557
vt 0.506342 0.020248
vt 0.522292 0.049102
vt 0.522292 0.079440
vt 0.491953 0.088815
vt 0.506342 0.095788
vt 0.480534 0.031269
vt 0.491953 0.009388
vt 0.506342 0.002416
vt 0.522292 0.018763
vt 0.538242 0.049102
vt 0.538242 0.077955
vt 0.522292 0.098191
vt 0.522292 0.000013
vt 0.538242 0.020248
vt 0.552630 0.049102
vt 0.552630 0.073646
vt 0.538242 0.095788
vt 0.538242 0.002416
vt 0.552630 0.024557
vt 0.564049 0.049102
vt 0.564049 0.066934
vt 0.552630 0.088815
vt 0.552630 0.009388
vt 0.564049 0.031269
vt 0.405048 0.073646
vt 0.405048 0.049102
vt 0.419437 0.049102
vt 0.419437 0.077955
vt 0.393629 0.066934
vt 0.393629 0.049102
vt 0.405048 0.024557
vt 0.419437 0.020248
vt 0.435387 0.049102
vt 0.435387 0.079440
vt 0.405048 0.088815
vt 0.419437 0.095788
vt 0.393629 0.031269
vt 0.405048 0.009388
vt 0.419437 0.002416
vt 0.435387 0.018763
vt 0.451337 0.049102
vt 0.451337 0.077955
vt 0.435387 0.098191
vt 0.435387 0.000013
vt 0.451337 0.020248
vt 0.465725 0.049102
vt 0.465725 0.073646
vt 0.451337 0.095788
vt 0.451337 0.002416
vt 0.465725 0.024557
vt 0.477144 0.049102
vt 0.477144 0.066934
vt 0.465725 0.088815
vt 0.465725 0.009388
vt 0.477144 0.031269
vt 0.286803 0.137462
vt 0.272414 0.141771
vt 0.272414 0.112917
vt 0.286803 0.112917
vt 0.286803 0.152631
vt 0.272414 0.159603
vt 0.256464 0.143256
vt 0.256464 0.112917
vt 0.272414 0.084063
vt 0.286803 0.088373
vt 0.298222 0.130750
vt 0.298222 0.112917
vt 0.256464 0.162006
vt 0.240514 0.141771
vt 0.240514 0.112917
vt 0.256464 0.082579
vt 0.272414 0.066231
vt 0.286803 0.073203
vt 0.298222 0.095085
vt 0.240514 0.159603
vt 0.226126 0.137462
vt 0.226126 0.112917
vt 0.240514 0.084063
vt 0.256464 0.063828
vt 0.226126 0.152631
vt 0.214707 0.130750
vt 0.214707 0.112917
vt 0.226126 0.088373
vt 0.240514 0.066231
vt 0.214707 0.095085
vt 0.226126 0.073203
vt 0.220346 0.073646
vt 0.205957 0.077955
vt 0.205957 0.049102
vt 0.220346 0.049102
vt 0.220346 0.088816
vt 0.205957 0.095788
vt 0.190007 0.079440
vt 0.190007 0.049102
vt 0.205957 0.020248
vt 0.220346 0.024557
vt 0.231765 0.066934
vt 0.231765 0.049102
vt 0.190007 0.098191
vt 0.174057 0.077955
vt 0.174057 0.049102
vt 0.190007 0.018763
vt 0.205957 0.002416
vt 0.220346 0.009388
vt 0.231765 0.031269
vt 0.174057 0.095788
vt 0.159669 0.073646
vt 0.159669 0.049102
vt 0.174057 0.020248
vt 0.190007 0.000013
vt 0.159669 0.088816
vt 0.148250 0.066934
vt 0.148250 0.049102
vt 0.159669 0.024557
vt 0.174057 0.002416
vt 0.148250 0.031269
vt 0.159669 0.009388
vt 0.979397 0.340355
vt 0.971900 0.334909
vt 0.976080 0.322044
vt 0.990340 0.332405
vt 0.967266 0.349169
vt 0.962633 0.334909
vt 0.958453 0.322044
vt 0.979397 0.311835
vt 0.999024 0.326095
vt 0.982260 0.349169
vt 0.995786 0.349169
vt 0.955136 0.340355
vt 0.944193 0.332405
vt 0.955136 0.311835
vt 0.979397 0.357982
vt 0.990340 0.365932
vt 0.952272 0.349169
vt 0.938746 0.349169
vt 0.935509 0.326095
vt 0.971900 0.363429
vt 0.976080 0.376293
vt 0.955136 0.357982
vt 0.944193 0.365932
vt 0.999024 0.372242
vt 0.979397 0.386502
vt 0.962633 0.363429
vt 0.958453 0.376293
vt 0.955136 0.386502
vt 0.935509 0.372242
vt 0.806305 0.195878
vt 0.792045 0.206239
vt 0.787865 0.193375
vt 0.795362 0.187928
vt 0.814990 0.202188
vt 0.795362 0.216448
vt 0.774419 0.206239
vt 0.778598 0.193375
vt 0.783232 0.179114
vt 0.811752 0.179114
vt 0.798226 0.179114
vt 0.771101 0.216448
vt 0.760158 0.195878
vt 0.771101 0.187928
vt 0.806305 0.162351
vt 0.795362 0.170301
vt 0.751474 0.202188
vt 0.754712 0.179114
vt 0.768238 0.179114
vt 0.792045 0.151990
vt 0.787865 0.164854
vt 0.760158 0.162351
vt 0.771101 0.170301
vt 0.795362 0.141781
vt 0.814990 0.156041
vt 0.774419 0.151990
vt 0.778598 0.164854
vt 0.771101 0.141781
vt 0.751474 0.156041
vt 0.350612 0.376725
vt 0.361555 0.384676
vt 0.347295 0.395036
vt 0.343115 0.382172
vt 0.353476 0.367912
vt 0.367002 0.367912
vt 0.370240 0.390985
vt 0.350612 0.405245
vt 0.329669 0.395036
vt 0.333848 0.382172
vt 0.338482 0.367912
vt 0.350612 0.359099
vt 0.361555 0.351148
vt 0.326351 0.405245
vt 0.315408 0.384676
vt 0.326351 0.376725
vt 0.343115 0.353652
vt 0.347295 0.340788
vt 0.306724 0.390985
vt 0.309962 0.367912
vt 0.323488 0.367912
vt 0.333848 0.353652
vt 0.329669 0.340788
vt 0.350612 0.330579
vt 0.370240 0.344839
vt 0.315408 0.351148
vt 0.326351 0.359099
vt 0.326351 0.330579
vt 0.306724 0.344839
vt 0.310434 0.410014
vt 0.299492 0.417965
vt 0.291995 0.412518
vt 0.296174 0.399654
vt 0.315881 0.426778
vt 0.302355 0.426778
vt 0.287361 0.426778
vt 0.282728 0.412518
vt 0.278548 0.399654
vt 0.319119 0.403705
vt 0.299492 0.389445
vt 0.310434 0.443542
vt 0.299492 0.435591
vt 0.275231 0.417965
vt 0.264288 0.410014
vt 0.275231 0.389445
vt 0.296174 0.453903
vt 0.291995 0.441038
vt 0.272367 0.426778
vt 0.258841 0.426778
vt 0.255603 0.403705
vt 0.278548 0.453903
vt 0.282728 0.441038
vt 0.299492 0.464112
vt 0.319119 0.449852
vt 0.275231 0.435591
vt 0.264288 0.443542
vt 0.275231 0.464112
vt 0.255603 0.449852
vt 0.388159 0.053016
vt 0.365618 0.053016
vt 0.363639 0.040448
vt 0.390138 0.040448
vt 0.362957 0.026516
vt 0.390820 0.026516
vt 0.363639 0.012584
vt 0.390138 0.012584
vt 0.365618 0.000016
vt 0.388159 0.000016
vt 0.610997 0.000016
vt 0.633539 0.000016
vt 0.635518 0.012584
vt 0.609018 0.012584
vt 0.636199 0.026516
vt 0.608336 0.026516
vt 0.635518 0.040448
vt 0.609018 0.040448
vt 0.633539 0.053016
vt 0.610997 0.053016
vt 0.301254 0.000016
vt 0.303233 0.012584
vt 0.276734 0.012584
vt 0.278712 0.000016
vt 0.303915 0.026516
vt 0.276052 0.026516
vt 0.303233 0.040448
vt 0.276734 0.040448
vt 0.301254 0.053016
vt 0.278712 0.053016
vt 0.968842 0.053016
vt 0.966863 0.040448
vt 0.993362 0.040448
vt 0.991384 0.053016
vt 0.966181 0.026516
vt 0.994044 0.026516
vt 0.966863 0.012584
vt 0.993362 0.012584
vt 0.968842 0.000016
vt 0.991384 0.000016
vn -0.916327 -0.323956 -0.235368
vn -0.916326 -0.123740 -0.380834
vn -0.773548 -0.195836 -0.602721
vn -0.773548 -0.512705 -0.372502
vn -0.916326 0.123740 -0.380834
vn -0.773548 0.195836 -0.602721
vn -0.916326 0.323956 -0.235368
vn -0.773548 0.512705 -0.372502
vn -0.916326 0.400432 0.000000
vn -0.773548 0.633738 0.000000
vn -0.916326 0.323956 0.235368
vn -0.773548 0.512705 0.372502
vn -0.916326 0.123740 0.380834
vn -0.773548 0.195836 0.602721
vn -0.916326 -0.123740 0.380834
vn -0.773548 -0.195836 0.602721
vn -0.916326 -0.323956 0.235368
vn -0.773548 -0.512705 0.372502
vn -0.916326 -0.400432 0.000000
vn -0.773548 -0.633738 0.000000
vn -0.557962 -0.256443 -0.789250
vn -0.557962 -0.671376 -0.487783
vn -0.557962 0.256443 -0.789250
vn -0.557962 0.671376 -0.487783
vn -0.557962 0.829866 -0.000000
vn -0.557962 0.671376 0.487784
vn -0.557962 0.256443 0.789250
vn -0.557962 -0.256443 0.789250
vn -0.557962 -0.671376 0.487783
vn -0.557962 -0.829866 0.000000
vn -0.291930 -0.295556 -0.909628
vn -0.291930 -0.773776 -0.562181
vn -0.291930 0.295556 -0.909628
vn -0.291930 0.773776 -0.562181
vn -0.291930 0.956440 0.000000
vn -0.291930 0.773776 0.562181
vn -0.291930 0.295556 0.909628
vn -0.291930 -0.295556 0.909628
vn -0.291930 -0.773776 0.562181
vn -0.291930 -0.956440 0.000000
vn -0.000000 -0.309017 -0.951057
vn 0.000000 -0.809017 -0.587785
vn -0.000000 0.309017 -0.951057
vn 0.000000 0.809017 -0.587785
vn -0.000000 1.000000 0.000000
vn 0.000000 0.809017 0.587786
vn -0.000000 0.309017 0.951057
vn -0.000000 -0.309017 0.951057
vn -0.000000 -0.809017 0.587785
vn 0.000000 -1.000000 0.000000
vn 0.291930 -0.295556 -0.909628
vn 0.291930 -0.773776 -0.562181
vn 0.291930 0.295556 -0.909628
vn 0.291930 0.773776 -0.562181
vn 0.291931 0.956439 -0.000000
vn 0.291931 0.773776 0.562181
vn 0.291930 0.295556 0.909628
vn 0.291930 -0.295556 0.909628
vn 0.291930 -0.773776 0.562181
vn 0.291930 -0.956440 0.000000
vn 0.557962 -0.256443 -0.789250
vn 0.557962 -0.671376 -0.487783
vn 0.557962 0.256443 -0.789250
vn 0.557962 0.671376 -0.487783
vn 0.557962 0.829866 0.000000
vn 0.557962 0.671376 0.487784
vn 0.557962 0.256443 0.789250
vn 0.557962 -0.256443 0.789250
vn 0.557962 -0.671376 0.487783
vn 0.557962 -0.829866 0.000000
vn 0.773548 -0.195836 -0.602721
vn 0.773548 -0.512705 -0.372502
vn 0.773548 0.195836 -0.602721
vn 0.773548 0.512705 -0.372502
vn 0.773548 0.633738 0.000000
vn 0.773548 0.512705 0.372502
vn 0.773548 0.195836 0.602721
vn 0.773548 -0.195836 0.602721
vn 0.773548 -0.512705 0.372502
vn 0.773548 -0.633738 -0.000000
vn 0.916326 -0.123740 -0.380834
vn 0.916326 -0.323957 -0.235368
vn 0.916326 0.123741 -0.380834
vn 0.916326 0.323957 -0.235368
vn 0.916326 0.400433 0.000000
vn 0.916326 0.323957 0.235368
vn 0.916326 0.123741 0.380834
vn 0.916326 -0.123741 0.380834
vn 0.916326 -0.323957 0.235368
vn 0.916326 -0.400433 0.000000
vn -1.000000 0.000000 0.000000
vn 1.000000 -0.000000 0.000000
vn 0.916326 -0.323956 -0.235368
vn 0.773548 -0.512705 -0.372502
vn 0.773548 -0.195836 -0.602721
vn 0.916326 -0.123740 -0.380834
vn 0.773548 0.195836 -0.602721
vn 0.916326 0.123740 -0.380834
vn 0.773548 0.512705 -0.372502
vn 0.916326 0.323957 -0.235368
vn 0.773548 0.633738 0.000000
vn 0.916326 0.400432 0.000000
vn 0.773548 0.512705 0.372502
vn 0.916326 0.323957 0.235368
vn 0.773548 0.195836 0.602721
vn 0.916326 0.123740 0.380834
vn 0.773548 -0.195836 0.602721
vn 0.916326 -0.123741 0.380834
vn 0.773548 -0.512705 0.372502
vn 0.916326 -0.323957 0.235368
vn 0.773548 -0.633738 0.000000
vn 0.916326 -0.400432 0.000000
vn 0.557962 -0.671376 -0.487783
vn 0.557962 -0.256443 -0.789250
vn 0.557962 0.256443 -0.789250
vn 0.557962 0.671376 -0.487783
vn 0.557962 0.829866 0.000000
vn 0.557962 0.671376 0.487784
vn 0.557962 0.256443 0.789250
vn 0.557962 -0.256443 0.789250
vn 0.557962 -0.671376 0.487783
vn 0.557962 -0.829866 0.000000
vn 0.291930 -0.773776 -0.562181
vn 0.291930 -0.295556 -0.909628
vn 0.291930 0.295556 -0.909628
vn 0.291930 0.773776 -0.562181
vn 0.291930 0.956440 0.000000
vn 0.291930 0.773776 0.562181
vn 0.291930 0.295556 0.909628
vn 0.291930 -0.295556 0.909628
vn 0.291930 -0.773776 0.562181
vn 0.291930 -0.956440 0.000000
vn 0.000000 -0.809017 -0.587785
vn 0.000000 -0.309017 -0.951057
vn 0.000000 0.309017 -0.951057
vn -0.000000 0.809017 -0.587785
vn -0.000000 1.000000 0.000000
vn 0.000000 0.809017 0.587786
vn 0.000000 0.309017 0.951057
vn 0.000000 -0.309017 0.951057
vn 0.000000 -0.809017 0.587785
vn 0.000000 -1.000000 0.000000
vn -0.291930 -0.773776 -0.562181
vn -0.291930 -0.295556 -0.909628
vn -0.291930 0.295556 -0.909628
vn -0.291930 0.773776 -0.562181
vn -0.291930 0.956439 0.000000
vn -0.291930 0.773776 0.562181
vn -0.291930 0.295556 0.909628
vn -0.291930 -0.295556 0.909628
vn -0.291930 -0.773776 0.562181
vn -0.291930 -0.956440 0.000000
vn -0.557962 -0.671376 -0.487783
vn -0.557962 -0.256443 -0.789250
vn -0.557962 0.256443 -0.789250
vn -0.557962 0.671376 -0.487783
vn -0.557962 0.829866 -0.000000
vn -0.557962 0.671376 0.487784
vn -0.557962 0.256443 0.789250
vn -0.557962 -0.256443 0.789250
vn -0.557962 -0.671376 0.487783
vn -0.557962 -0.829866 0.000000
vn -0.773548 -0.512705 -0.372502
vn -0.773548 -0.195836 -0.602720
vn -0.773548 0.195836 -0.602721
vn -0.773548 0.512705 -0.372502
vn -0.773548 0.633738 0.000000
vn -0.773548 0.512705 0.372502
vn -0.773548 0.195836 0.602721
vn -0.773548 -0.195836 0.602721
vn -0.773548 -0.512705 0.372502
vn -0.773548 -0.633738 -0.000000
vn -0.916326 -0.323957 -0.235369
vn -0.916326 -0.123740 -0.380834
vn -0.916326 0.123741 -0.380834
vn -0.916326 0.323957 -0.235368
vn -0.916326 0.400433 0.000000
vn -0.916326 0.323957 0.235369
vn -0.916326 0.123741 0.380835
vn -0.916326 -0.123741 0.380835
vn -0.916326 -0.323957 0.235369
vn -0.916326 -0.400433 0.000000
vn 1.000000 -0.000000 -0.000000
vn -1.000000 -0.000000 0.000000
s 1
g ducky_eyes
usemtl initialShadingGroup
f 428/725/428 429/726/429 439/727/430 438/728/431
f 429/726/429 430/730/432 440/731/433 439/727/430
f 430/730/432 431/736/434 441/737/435 440/731/433
f 431/736/434 432/741/436 442/742/437 441/737/435
f 432/741/436 433/746/438 443/747/439 442/742/437
f 433/746/438 434/750/440 444/751/441 443/747/439
f 434/750/440 435/744/442 445/745/443 444/751/441
f 435/744/442 436/739/444 446/740/445 445/745/443
f 436/739/444 437/734/446 447/735/447 446/740/445
f 437/734/446 428/725/428 438/728/431 447/735/447
f 438/728/431 439/727/430 449/732/448 448/733/449
f 439/727/430 440/731/433 450/738/450 449/732/448
f 440/731/433 441/737/435 451/743/451 450/738/450
f 441/605/435 442/606/437 452/602/452 451/601/451
f 442/606/437 443/613/439 453/607/453 452/602/452
f 443/747/439 444/751/441 454/752/454 453/753/453
f 444/751/441 445/745/443 455/749/455 454/752/454
f 445/745/443 446/740/445 456/748/456 455/749/455
f 446/636/445 447/637/447 457/633/457 456/632/456
f 447/637/447 438/644/431 448/638/449 457/633/457
f 448/638/449 449/645/448 459/646/458 458/639/459
f 449/841/448 450/842/450 460/843/460 459/844/458
f 450/611/450 451/601/451 461/604/461 460/612/460
f 451/601/451 452/602/452 462/603/462 461/604/461
f 452/602/452 453/607/453 463/608/463 462/603/462
f 453/607/453 454/614/454 464/615/464 463/608/463
f 454/851/454 455/852/455 465/853/465 464/854/464
f 455/642/455 456/632/456 466/635/466 465/643/465
f 456/632/456 457/633/457 467/634/467 466/635/466
f 457/633/457 448/638/449 458/639/459 467/634/467
f 458/639/459 459/646/458 469/651/468 468/647/469
f 459/844/458 460/843/460 470/845/470 469/846/468
f 460/612/460 461/604/461 471/610/471 470/619/470
f 461/604/461 462/603/462 472/609/472 471/610/471
f 462/603/462 463/608/463 473/616/473 472/609/472
f 463/608/463 464/615/464 474/620/474 473/616/473
f 464/854/464 465/853/465 475/855/475 474/856/474
f 465/643/465 466/635/466 476/641/476 475/650/475
f 466/635/466 467/634/467 477/640/477 476/641/476
f 467/634/467 458/639/459 468/647/469 477/640/477
f 468/647/469 469/651/468 479/656/478 478/652/479
f 469/846/468 470/845/470 480/847/480 479/848/478
f 470/619/470 471/610/471 481/618/481 480/624/480
f 471/610/471 472/609/472 482/617/482 481/618/481
f 472/609/472 473/616/473 483/621/483 482/617/482
f 473/616/473 474/620/474 484/625/484 483/621/483
f 474/856/474 475/855/475 485/857/485 484/858/484
f 475/650/475 476/641/476 486/649/486 485/655/485
f 476/641/476 477/640/477 487/648/487 486/649/486
f 477/640/477 468/647/469 478/652/479 487/648/487
f 478/652/479 479/656/478 489/661/488 488/657/489
f 479/848/478 480/847/480 490/849/490 489/850/488
f 480/624/480 481/618/481 491/623/491 490/629/490
f 481/618/481 482/617/482 492/622/492 491/623/491
f 482/617/482 483/621/483 493/626/493 492/622/492
f 483/621/483 484/625/484 494/630/494 493/626/493
f 484/858/484 485/857/485 495/859/495 494/860/494
f 485/655/485 486/649/486 496/654/496 495/660/495
f 486/649/486 487/648/487 497/653/497 496/654/496
f 487/648/487 478/652/479 488/657/489 497/653/497
f 488/758/489 489/759/488 499/755/498 498/754/499
f 489/759/488 490/765/490 500/760/500 499/755/498
f 490/765/490 491/770/491 501/766/501 500/760/500
f 491/623/491 492/622/492 502/627/502 501/628/501
f 492/622/492 493/626/493 503/631/503 502/627/502
f 493/782/493 494/781/494 504/779/504 503/775/503
f 494/781/494 495/777/495 505/773/505 504/779/504
f 495/777/495 496/778/496 506/768/506 505/773/505
f 496/654/496 497/653/497 507/658/507 506/659/506
f 497/653/497 488/657/489 498/662/499 507/658/507
f 498/754/499 499/755/498 509/756/508 508/757/509
f 499/755/498 500/760/500 510/761/510 509/756/508
f 500/760/500 501/766/501 511/767/511 510/761/510
f 501/766/501 502/771/502 512/772/512 511/767/511
f 502/771/502 503/775/503 513/776/513 512/772/512
f 503/775/503 504/779/504 514/780/514 513/776/513
f 504/779/504 505/773/505 515/774/515 514/780/514
f 505/773/505 506/768/506 516/769/516 515/774/515
f 506/768/506 507/763/507 517/764/517 516/769/516
f 507/763/507 498/754/499 508/757/509 517/764/517
f 429/726/429 428/725/428 518/729/518
f 430/730/432 429/726/429 518/729/518
f 431/736/434 430/730/432 518/729/518
f 432/741/436 431/736/434 518/729/518
f 433/746/438 432/741/436 518/729/518
f 434/750/440 433/746/438 518/729/518
f 435/744/442 434/750/440 518/729/518
f 436/739/444 435/744/442 518/729/518
f 437/734/446 436/739/444 518/729/518
f 428/725/428 437/734/446 518/729/518
f 508/757/509 509/756/508 519/762/519
f 509/756/508 510/761/510 519/762/519
f 510/761/510 511/767/511 519/762/519
f 511/767/511 512/772/512 519/762/519
f 512/772/512 513/776/513 519/762/519
f 513/776/513 514/780/514 519/762/519
f 514/780/514 515/774/515 519/762/519
f 515/774/515 516/769/516 519/762/519
f 516/769/516 517/764/517 519/762/519
f 517/764/517 508/757/509 519/762/519
s 2
f 520/783/520 530/784/521 531/785/522 521/786/523
f 521/786/523 531/785/522 532/791/524 522/792/525
f 522/792/525 532/791/524 533/797/526 523/798/527
f 523/798/527 533/797/526 534/802/528 524/803/529
f 524/803/529 534/802/528 535/808/530 525/809/531
f 525/809/531 535/808/530 536/805/532 526/804/533
f 526/804/533 536/805/532 537/800/534 527/799/535
f 527/799/535 537/800/534 538/795/536 528/794/537
f 528/794/537 538/795/536 539/788/538 529/787/539
f 529/787/539 539/788/538 530/784/521 520/783/520
f 530/784/521 540/789/540 541/790/541 531/785/522
f 531/785/522 541/790/541 542/796/542 532/791/524
f 532/791/524 542/796/542 543/801/543 533/797/526
f 533/673/526 543/663/543 544/666/544 534/674/528
f 534/674/528 544/666/544 545/672/545 535/681/530
f 535/808/530 545/811/545 546/810/546 536/805/532
f 536/805/532 546/810/546 547/806/547 537/800/534
f 537/800/534 547/806/547 548/807/548 538/795/536
f 538/704/536 548/694/548 549/697/549 539/705/538
f 539/705/538 549/697/549 540/703/540 530/712/521
f 540/703/540 550/702/550 551/710/551 541/711/541
f 541/861/541 551/862/551 552/863/552 542/864/542
f 542/667/542 552/668/552 553/664/553 543/663/543
f 543/663/543 553/664/553 554/665/554 544/666/544
f 544/666/544 554/665/554 555/671/555 545/672/545
f 545/672/545 555/671/555 556/679/556 546/680/546
f 546/871/546 556/872/556 557/873/557 547/874/547
f 547/698/547 557/699/557 558/695/558 548/694/548
f 548/694/548 558/695/558 559/696/559 549/697/549
f 549/697/549 559/696/559 550/702/550 540/703/540
f 550/702/550 560/709/560 561/717/561 551/710/551
f 551/862/551 561/865/561 562/866/562 552/863/552
f 552/668/552 562/675/562 563/669/563 553/664/553
f 553/664/553 563/669/563 564/670/564 554/665/554
f 554/665/554 564/670/564 565/678/565 555/671/555
f 555/671/555 565/678/565 566/686/566 556/679/556
f 556/872/556 566/875/566 567/876/567 557/873/557
f 557/699/557 567/706/567 568/700/568 558/695/558
f 558/695/558 568/700/568 569/701/569 559/696/559
f 559/696/559 569/701/569 560/709/560 550/702/550
f 560/709/560 570/716/570 571/722/571 561/717/561
f 561/865/561 571/867/571 572/868/572 562/866/562
f 562/675/562 572/682/572 573/676/573 563/669/563
f 563/669/563 573/676/573 574/677/574 564/670/564
f 564/670/564 574/677/574 575/685/575 565/678/565
f 565/678/565 575/685/575 576/691/576 566/686/566
f 566/875/566 576/877/576 577/878/577 567/876/567
f 567/706/567 577/713/577 578/707/578 568/700/568
f 568/700/568 578/707/578 579/708/579 569/701/569
f 569/701/569 579/708/579 570/716/570 560/709/560
f 570/716/570 580/721/580 581/724/581 571/722/571
f 571/867/571 581/869/581 582/870/582 572/868/572
f 572/682/572 582/687/582 583/683/583 573/676/573
f 573/676/573 583/683/583 584/684/584 574/677/574
f 574/677/574 584/684/584 585/690/585 575/685/575
f 575/685/575 585/690/585 586/693/586 576/691/576
f 576/877/576 586/879/586 587/880/587 577/878/577
f 577/713/577 587/718/587 588/714/588 578/707/578
f 578/707/578 588/714/588 589/715/589 579/708/579
f 579/708/579 589/715/589 580/721/580 570/716/570
f 580/821/580 590/812/590 591/815/591 581/822/581
f 581/822/581 591/815/591 592/820/592 582/827/582
f 582/827/582 592/820/592 593/826/593 583/832/583
f 583/683/583 593/688/593 594/689/594 584/684/584
f 584/684/584 594/689/594 595/692/595 585/690/585
f 585/840/585 595/838/595 596/833/596 586/839/586
f 586/839/586 596/833/596 597/828/597 587/835/587
f 587/835/587 597/828/597 598/823/598 588/836/588
f 588/714/588 598/719/598 599/720/599 589/715/589
f 589/715/589 599/720/599 590/723/590 580/721/580
f 590/812/590 600/813/600 601/814/601 591/815/591
f 591/815/591 601/814/601 602/819/602 592/820/592
f 592/820/592 602/819/602 603/825/603 593/826/593
f 593/826/593 603/825/603 604/830/604 594/831/594
f 594/831/594 604/830/604 605/837/605 595/838/595
f 595/838/595 605/837/605 606/834/606 596/833/596
f 596/833/596 606/834/606 607/829/607 597/828/597
f 597/828/597 607/829/607 608/824/608 598/823/598
f 598/823/598 608/824/608 609/817/609 599/816/599
f 599/816/599 609/817/609 600/813/600 590/812/590
f 521/786/523 610/793/610 520/783/520
f 522/792/525 610/793/610 521/786/523
f 523/798/527 610/793/610 522/792/525
f 524/803/529 610/793/610 523/798/527
f 525/809/531 610/793/610 524/803/529
f 526/804/533 610/793/610 525/809/531
f 527/799/535 610/793/610 526/804/533
f 528/794/537 610/793/610 527/799/535
f 529/787/539 610/793/610 528/794/537
f 520/783/520 610/793/610 529/787/539
f 600/813/600 611/818/611 601/814/601
f 601/814/601 611/818/611 602/819/602
f 602/819/602 611/818/611 603/825/603
f 603/825/603 611/818/611 604/830/604
f 604/830/604 611/818/611 605/837/605
f 605/837/605 611/818/611 606/834/606
f 606/834/606 611/818/611 607/829/607
f 607/829/607 611/818/611 608/824/608
f 608/824/608 611/818/611 609/817/609
f 609/817/609 611/818/611 600/813/600
