# Blender 4.4.0
# www.blender.org
mtllib grass_1.mtl
o grass_1.003
v -0.500000 0.000000 -0.500000
v 0.500000 0.000000 -0.500000
v -0.500000 -0.000000 0.500000
v 0.500000 -0.000000 0.500000
v -0.353553 0.353553 -0.500000
v 0.353553 -0.353553 -0.500000
v -0.353553 0.353553 0.500000
v 0.353553 -0.353553 0.500000
v -0.353553 -0.353553 -0.500000
v 0.353553 0.353553 -0.500000
v -0.353553 -0.353553 0.500000
v 0.353553 0.353553 0.500000
v 0.000000 0.500000 -0.500000
v 0.000000 -0.500000 -0.500000
v -0.000000 0.500000 0.500000
v -0.000000 -0.500000 0.500000
vn -0.0000 -1.0000 -0.0000
vn -0.7071 -0.7071 -0.0000
vn 0.7071 -0.7071 -0.0000
vn -1.0000 -0.0000 -0.0000
vt 0.000000 0.000000
vt 1.000000 0.000000
vt 1.000000 1.000000
vt 0.000000 1.000000
s 0
usemtl grass_1.003
f 1/1/1 2/2/1 4/3/1 3/4/1
usemtl grass_1
f 5/1/2 6/2/2 8/3/2 7/4/2
usemtl grass_1.001
f 9/1/3 10/2/3 12/3/3 11/4/3
usemtl grass_1.002
f 13/1/4 14/2/4 16/3/4 15/4/4
