# This file uses centimeters as units for non-parametric coordinates.

mtllib diana leaf.mtl
g default
v 0.822261 -0.039352 3.085444
v 0.591548 -0.060236 2.914886
v 0.300832 -0.070119 2.831640
v -0.300832 -0.070119 2.831640
v -0.591548 -0.060236 2.914886
v -0.822261 -0.039352 3.085444
v -1.021428 -0.012905 3.763537
v -0.822260 -0.181523 4.792838
v -0.591547 -0.421074 5.213563
v -0.300832 -0.700076 5.542891
v 0.300832 -0.700076 5.542891
v 0.591547 -0.421074 5.213563
v 0.822260 -0.181523 4.792838
v 1.021428 -0.012905 3.763537
v 0.812964 0.017397 3.121047
v 0.589136 -0.003964 2.955578
v 0.307096 -0.016046 2.874817
v -0.307096 -0.016046 2.874817
v -0.589135 -0.003964 2.955579
v -0.812963 0.017397 3.121047
v -1.006188 0.041353 3.778904
v -0.812963 -0.124167 4.788578
v -0.589135 -0.354049 5.206070
v -0.307096 -0.627603 5.534414
v 0.307095 -0.627603 5.534414
v 0.589135 -0.354049 5.206070
v 0.812963 -0.124167 4.788578
v 1.006187 0.041353 3.778904
v -0.812963 0.037015 3.760891
v -0.589135 0.024829 3.812791
v -0.307096 -0.012785 3.894621
v 0.307096 -0.012785 3.894621
v 0.589135 0.024829 3.812791
v 0.812963 0.037015 3.760891
v -0.812963 0.034178 3.376935
v -0.589135 0.016915 3.298077
v -0.307096 -0.025443 3.281385
v 0.307096 -0.025443 3.281385
v 0.589135 0.016915 3.298077
v 0.812964 0.034178 3.376935
v 0.990432 -0.012941 3.520341
v 0.899614 -0.025949 3.230427
v -0.899614 -0.025949 3.230427
v -0.990432 -0.012941 3.520341
v 0.976161 0.041353 3.543316
v 0.887851 0.030126 3.261408
v -0.887851 0.030126 3.261408
v -0.976161 0.041353 3.543316
v -0.887985 -0.104542 4.556864
v -0.874365 -0.052069 4.564313
v 0.887985 -0.104542 4.556864
v 0.874365 -0.052069 4.564313
v -0.812964 -0.091307 3.121047
v -0.589136 -0.112151 2.955578
v -0.307096 -0.123576 2.874817
v 0.307096 -0.123576 2.874817
v 0.589135 -0.112151 2.955579
v 0.812963 -0.091307 3.121047
v 1.006188 -0.067820 3.778904
v 0.812963 -0.230508 4.767428
v 0.589135 -0.457026 5.168561
v 0.307096 -0.725550 5.484927
v -0.307095 -0.725550 5.484927
v -0.589135 -0.457026 5.168560
v -0.812963 -0.230509 4.767429
v -1.006187 -0.067820 3.778904
v 0.812963 -0.072046 3.760729
v 0.589135 -0.083693 3.811645
v 0.307096 -0.118082 3.891302
v -0.307096 -0.118082 3.891302
v -0.589135 -0.083693 3.811645
v -0.812963 -0.072046 3.760729
v 0.812963 -0.074861 3.376935
v 0.589135 -0.091779 3.298077
v 0.307096 -0.131230 3.281385
v -0.307096 -0.131230 3.281385
v -0.589135 -0.091779 3.298077
v -0.812964 -0.074861 3.376935
v -0.976161 -0.067820 3.543316
v -0.887851 -0.078835 3.261408
v 0.887851 -0.078835 3.261408
v 0.976161 -0.067820 3.543316
v 0.874365 -0.159159 4.550477
v -0.874365 -0.159159 4.550477
v -0.011522 -0.071312 2.812034
v 0.011522 -0.071312 2.812034
v 0.011522 -0.019960 2.855726
v -0.011522 -0.019960 2.855726
v 0.011522 -0.845371 5.722705
v -0.011522 -0.845371 5.722705
v -0.011522 -0.834023 5.719732
v 0.011522 -0.834023 5.719732
v -0.011522 -0.124928 3.296924
v 0.011522 -0.124928 3.296924
v -0.011522 -0.112109 3.964846
v 0.011522 -0.112109 3.964846
v -0.011522 -0.126730 2.855726
v 0.011522 -0.126730 2.855726
v 0.011522 -0.867953 5.663088
v -0.011522 -0.867953 5.663088
v 0.011522 -0.163977 3.296924
v -0.011522 -0.163977 3.296924
v 0.011522 -0.150500 3.959615
v -0.011522 -0.150500 3.959615
v -0.812963 0.014313 4.169495
v -0.769353 0.034397 3.914288
v -0.589135 -0.026197 4.330832
v -0.589135 0.015280 4.043840
v -0.307096 -0.038964 4.213742
v -0.307096 -0.098437 4.484016
v 0.307095 -0.098437 4.484016
v 0.307096 -0.038964 4.213742
v 0.589135 -0.026197 4.330832
v 0.589135 0.015162 4.046702
v 0.770722 0.034365 3.918490
v 0.854597 0.016538 4.155944
v -0.971909 -0.034477 4.143236
v -1.007305 -0.015475 3.901979
v -0.993633 0.038843 3.902408
v -0.958211 0.019268 4.145893
v 1.007305 -0.015475 3.901979
v 0.971909 -0.034477 4.143236
v 0.958211 0.019268 4.145893
v 0.993633 0.038843 3.902408
v 0.812963 -0.094073 4.165908
v 0.770996 -0.074231 3.911171
v 0.589135 -0.133878 4.321073
v 0.589135 -0.092591 4.037256
v 0.252406 -0.150136 4.221858
v 0.307096 -0.200733 4.459847
v -0.307095 -0.200733 4.459847
v -0.252406 -0.150136 4.221858
v -0.589135 -0.133878 4.321073
v -0.589135 -0.092703 4.040119
v -0.772227 -0.074254 3.915102
v -0.853111 -0.092018 4.153328
v 0.993657 -0.070116 3.901371
v 0.957512 -0.089614 4.145350
v -0.957512 -0.089614 4.145350
v -0.993657 -0.070116 3.901371
v -0.011522 -0.231764 4.588645
v -0.011522 -0.159196 4.341933
v 0.011522 -0.159196 4.341933
v 0.011522 -0.231764 4.588645
v 0.011522 -0.270721 4.571070
v 0.011522 -0.195326 4.317659
v -0.011522 -0.195972 4.322819
v -0.011522 -0.268436 4.566378
v -0.838622 -0.041668 4.504812
v -0.812963 -0.015441 4.373326
v -0.589135 -0.169587 4.828138
v -0.589135 -0.109931 4.664672
v -0.307096 -0.338725 5.090506
v -0.307096 -0.271899 4.957009
v 0.307095 -0.338725 5.090506
v 0.307095 -0.271899 4.957009
v 0.589135 -0.169589 4.828142
v 0.589135 -0.109932 4.664677
v 0.843648 -0.039740 4.501515
v 0.822757 -0.015759 4.375905
v -0.900297 -0.091063 4.504333
v -0.922368 -0.070593 4.400758
v -0.886878 -0.038168 4.510077
v -0.908534 -0.017745 4.407045
v 0.900297 -0.091063 4.504333
v 0.922368 -0.070593 4.400758
v 0.886879 -0.038167 4.510075
v 0.908534 -0.017745 4.407047
v 0.837463 -0.149167 4.492869
v 0.812963 -0.122750 4.362269
v 0.589135 -0.274780 4.801498
v 0.589135 -0.215714 4.642253
v 0.307096 -0.444819 5.057257
v 0.307096 -0.375104 4.922013
v -0.307095 -0.440937 5.051344
v -0.307095 -0.375105 4.922013
v -0.589135 -0.274782 4.801501
v -0.589135 -0.215715 4.642256
v -0.842425 -0.147339 4.489856
v -0.822613 -0.123074 4.364843
v 0.886483 -0.145842 4.499498
v 0.908803 -0.125095 4.396012
v -0.886483 -0.145842 4.499497
v -0.908803 -0.125095 4.396012
v -0.011522 -0.553107 5.247722
v -0.011522 -0.495470 5.140084
v 0.011522 -0.553107 5.247722
v 0.011522 -0.495470 5.140084
v 0.011522 -0.584631 5.202236
v 0.011522 -0.527135 5.097567
v -0.029062 -0.582400 5.198608
v -0.011522 -0.527432 5.098176
vt 0.925442 0.608853
vt 0.923143 0.557626
vt 0.933051 0.563100
vt 0.935035 0.612913
vt 0.915745 0.612913
vt 0.913798 0.563100
vt 0.920775 0.532007
vt 0.930802 0.538298
vt 0.925448 0.651825
vt 0.935035 0.654541
vt 0.915745 0.654541
vt 0.911594 0.538298
vt 0.924994 0.676288
vt 0.934592 0.676364
vt 0.915339 0.676180
vt 0.917085 0.501870
vt 0.907911 0.509060
vt 0.921636 0.718918
vt 0.931133 0.719387
vt 0.911893 0.719291
vt 0.915254 0.764422
vt 0.924593 0.765533
vt 0.905624 0.763583
vt 0.911637 0.782723
vt 0.920984 0.783738
vt 0.901958 0.781869
vt 0.909256 0.792005
vt 0.918528 0.793322
vt 0.899605 0.790877
vt 0.895653 0.833702
vt 0.905788 0.832949
vt 0.886998 0.829212
vt 0.853325 0.908043
vt 0.865168 0.906719
vt 0.846972 0.900091
vt 0.804026 0.966235
vt 0.816831 0.964737
vt 0.799524 0.955993
vt 0.778352 0.998008
vt 0.774362 0.987474
vt 0.873917 0.442374
vt 0.876215 0.391147
vt 0.885809 0.387087
vt 0.883825 0.436900
vt 0.864572 0.436900
vt 0.866518 0.387087
vt 0.876221 0.348175
vt 0.885809 0.345459
vt 0.871548 0.467993
vt 0.881576 0.461702
vt 0.862368 0.461702
vt 0.866518 0.345459
vt 0.875767 0.323712
vt 0.885365 0.323636
vt 0.867858 0.498130
vt 0.858685 0.490940
vt 0.866112 0.323820
vt 0.872410 0.281082
vt 0.881906 0.280613
vt 0.862667 0.280709
vt 0.866028 0.235578
vt 0.875366 0.234467
vt 0.856398 0.236417
vt 0.862411 0.217277
vt 0.871758 0.216262
vt 0.852732 0.218131
vt 0.860029 0.207995
vt 0.869301 0.206678
vt 0.850379 0.209123
vt 0.846427 0.166298
vt 0.856562 0.167051
vt 0.837771 0.170788
vt 0.804098 0.091957
vt 0.815942 0.093281
vt 0.797746 0.099909
vt 0.754799 0.033765
vt 0.767605 0.035263
vt 0.750298 0.044007
vt 0.729126 0.001992
vt 0.725136 0.012526
vt 0.645484 0.490415
vt 0.595648 0.504685
vt 0.595648 0.432845
vt 0.645484 0.429896
vt 0.645910 0.497605
vt 0.594541 0.512314
vt 0.543420 0.508058
vt 0.543420 0.430099
vt 0.595648 0.324487
vt 0.645484 0.338946
vt 0.685034 0.461177
vt 0.685034 0.415961
vt 0.543420 0.515779
vt 0.686677 0.467468
vt 0.539348 0.508058
vt 0.539348 0.430099
vt 0.543420 0.312078
vt 0.595648 0.268099
vt 0.645484 0.297614
vt 0.685034 0.348117
vt 0.713871 0.386562
vt 0.698267 0.436375
vt 0.539348 0.515779
vt 0.487121 0.504685
vt 0.487121 0.432845
vt 0.539348 0.312078
vt 0.543420 0.245447
vt 0.595648 0.220342
vt 0.645484 0.247409
vt 0.677570 0.320269
vt 0.719176 0.344934
vt 0.488228 0.512314
vt 0.437285 0.490415
vt 0.437285 0.429896
vt 0.487121 0.324487
vt 0.539348 0.245447
vt 0.543420 0.201854
vt 0.595648 0.136764
vt 0.645484 0.188419
vt 0.692391 0.278311
vt 0.716958 0.323111
vt 0.436859 0.497605
vt 0.397735 0.461177
vt 0.397735 0.415961
vt 0.437285 0.338946
vt 0.487121 0.268099
vt 0.539348 0.201854
vt 0.543420 0.104415
vt 0.595648 0.113176
vt 0.645484 0.159535
vt 0.686765 0.239445
vt 0.710699 0.280088
vt 0.396092 0.467468
vt 0.384502 0.436375
vt 0.368898 0.386562
vt 0.397735 0.348117
vt 0.437285 0.298120
vt 0.487121 0.220342
vt 0.539348 0.104415
vt 0.543420 0.085396
vt 0.595648 0.034737
vt 0.645484 0.092756
vt 0.690456 0.217250
vt 0.701921 0.233942
vt 0.363592 0.344934
vt 0.405441 0.321012
vt 0.437285 0.247409
vt 0.487121 0.136764
vt 0.539348 0.085396
vt 0.543420 0.001992
vt 0.685034 0.166526
vt 0.698095 0.215737
vt 0.365811 0.323111
vt 0.397735 0.275917
vt 0.437285 0.188420
vt 0.487121 0.113176
vt 0.539348 0.001992
vt 0.695884 0.206153
vt 0.372070 0.280088
vt 0.397735 0.239900
vt 0.437285 0.159536
vt 0.487121 0.034737
vt 0.380848 0.233942
vt 0.393201 0.216667
vt 0.437285 0.092756
vt 0.384674 0.215737
vt 0.397735 0.166526
vt 0.386885 0.206153
vt 0.075559 0.027356
vt 0.125395 0.013086
vt 0.125395 0.084926
vt 0.075559 0.087875
vt 0.075133 0.020166
vt 0.126502 0.005457
vt 0.177622 0.009712
vt 0.177622 0.087672
vt 0.125395 0.192698
vt 0.075559 0.178622
vt 0.036009 0.056594
vt 0.036009 0.101809
vt 0.177622 0.001992
vt 0.181694 0.009712
vt 0.181694 0.087672
vt 0.177622 0.204768
vt 0.135059 0.251106
vt 0.075559 0.218993
vt 0.036009 0.169625
vt 0.007172 0.131209
vt 0.022776 0.081396
vt 0.181694 0.001992
vt 0.233922 0.013086
vt 0.233922 0.084926
vt 0.181694 0.204768
vt 0.177622 0.268946
vt 0.125395 0.293159
vt 0.075559 0.268637
vt 0.043207 0.196903
vt 0.001866 0.172837
vt 0.232815 0.005457
vt 0.283758 0.027356
vt 0.283758 0.087875
vt 0.233922 0.192698
vt 0.181694 0.268034
vt 0.177622 0.311983
vt 0.125395 0.374823
vt 0.075559 0.325390
vt 0.028915 0.238997
vt 0.004080 0.194477
vt 0.284184 0.020166
vt 0.323308 0.056594
vt 0.323308 0.101809
vt 0.283758 0.178622
vt 0.224258 0.251106
vt 0.181694 0.312812
vt 0.177622 0.405951
vt 0.125395 0.397676
vt 0.075559 0.353529
vt 0.034304 0.276372
vt 0.010467 0.237587
vt 0.336541 0.081396
vt 0.352145 0.131209
vt 0.323308 0.169625
vt 0.283758 0.218487
vt 0.233922 0.293159
vt 0.181694 0.405843
vt 0.174523 0.423697
vt 0.125395 0.474289
vt 0.075559 0.418387
vt 0.030803 0.298461
vt 0.019074 0.281879
vt 0.357451 0.172837
vt 0.315892 0.196208
vt 0.283758 0.268637
vt 0.233922 0.374823
vt 0.181694 0.424338
vt 0.177622 0.505770
vt 0.036009 0.347508
vt 0.023018 0.300165
vt 0.355237 0.194477
vt 0.323308 0.241220
vt 0.283758 0.325390
vt 0.233922 0.398720
vt 0.181694 0.505770
vt 0.025159 0.309173
vt 0.348850 0.237587
vt 0.323308 0.275917
vt 0.283758 0.353528
vt 0.233922 0.474289
vt 0.181694 0.516304
vt 0.177622 0.516304
vt 0.340243 0.281879
vt 0.327637 0.298994
vt 0.283758 0.418388
vt 0.336299 0.300165
vt 0.323308 0.347508
vt 0.334158 0.309173
vt 0.730135 0.558169
vt 0.730135 0.554097
vt 0.732140 0.554097
vt 0.732140 0.558169
vt 0.755808 0.502976
vt 0.768614 0.501870
vt 0.755808 0.609290
vt 0.768614 0.610397
vn 0.684630 0.007855 -0.728849
vn 0.412329 -0.005162 -0.911020
vn 0.003930 0.983141 -0.182809
vn 0.102374 0.975780 -0.193322
vn 0.158752 -0.005587 -0.987303
vn -0.103855 0.992307 -0.067382
vn -0.158753 -0.005586 -0.987303
vn -0.412329 -0.005160 -0.911020
vn -0.003930 0.983141 -0.182809
vn 0.103855 0.992307 -0.067382
vn -0.684629 0.007858 -0.728849
vn -0.102374 0.975780 -0.193322
vn -0.916534 -0.073003 0.393237
vn -0.848179 -0.174383 0.500184
vn -0.809329 0.107819 0.577375
vn -0.885400 0.154452 0.438420
vn -0.723529 -0.384557 0.573255
vn -0.694970 0.062182 0.716345
vn 0.723529 -0.384558 0.573255
vn 0.848179 -0.174381 0.500184
vn 0.809328 0.107820 0.577376
vn 0.694971 0.062183 0.716344
vn 0.916534 -0.073001 0.393238
vn 0.885399 0.154454 0.438420
vn -0.199845 0.979697 0.015970
vn -0.099367 0.994742 -0.024799
vn 0.099367 0.994742 -0.024799
vn 0.199845 0.979697 0.015970
vn -0.051269 0.998295 -0.027920
vn 0.051269 0.998295 -0.027920
vn 0.050455 0.998724 -0.002136
vn 0.114932 0.993372 0.001826
vn 0.246137 0.969110 0.015556
vn -0.246065 0.969128 0.015579
vn -0.114841 0.993382 0.001942
vn -0.050518 0.998721 -0.002000
vn 0.970638 0.005322 -0.240487
vn 0.923995 0.002252 -0.382397
vn 0.380177 0.905526 -0.188381
vn 0.238659 0.969057 -0.063007
vn -0.923995 0.002257 -0.382398
vn -0.970638 0.005325 -0.240487
vn -0.238659 0.969057 -0.063007
vn -0.380177 0.905526 -0.188381
vn -0.998004 0.001104 -0.063138
vn -0.210972 0.977487 -0.003080
vn 0.998004 0.001105 -0.063138
vn 0.210203 0.977653 -0.003021
vn -0.966852 -0.018596 0.254662
vn -0.932366 0.189364 0.307953
vn 0.966851 -0.018592 0.254662
vn 0.932365 0.189368 0.307953
vn -0.150079 -0.981049 -0.122553
vn -0.196693 -0.977436 -0.077015
vn -0.089566 -0.984327 -0.151917
vn 0.150079 -0.981049 -0.122553
vn 0.089566 -0.984327 -0.151917
vn 0.196693 -0.977436 -0.077015
vn 0.859291 -0.413656 0.300845
vn 0.909349 -0.330320 0.252930
vn 0.751622 -0.572344 0.327852
vn -0.859290 -0.413658 0.300844
vn -0.751622 -0.572344 0.327851
vn -0.909348 -0.330323 0.252929
vn -0.101200 -0.994862 0.002914
vn -0.093040 -0.995343 0.025236
vn 0.093040 -0.995342 0.025236
vn 0.101200 -0.994862 0.002914
vn -0.049841 -0.998377 0.027571
vn 0.049841 -0.998377 0.027571
vn 0.048927 -0.998799 0.002728
vn 0.107183 -0.994238 -0.001423
vn 0.119198 -0.992794 -0.012344
vn -0.119247 -0.992786 -0.012476
vn -0.107115 -0.994246 -0.001535
vn -0.048984 -0.998796 0.002605
vn -0.419098 -0.901959 -0.104058
vn -0.295511 -0.954068 -0.049278
vn 0.295511 -0.954068 -0.049278
vn 0.419097 -0.901959 -0.104058
vn 0.261319 -0.965204 -0.009726
vn -0.260572 -0.965405 -0.009735
vn 0.948460 -0.263298 0.176346
vn -0.948459 -0.263302 0.176344
vn -0.060641 -0.002029 -0.998158
vn 0.060641 -0.002030 -0.998158
vn 0.058033 -0.983947 -0.168761
vn -0.058033 -0.983947 -0.168760
vn 0.138464 0.990309 0.010803
vn -0.138465 0.990309 0.010803
vn 0.248814 0.967729 0.039893
vn -0.248814 0.967729 0.039893
vn 0.588178 -0.557468 0.585898
vn -0.588178 -0.557468 0.585898
vn -0.548336 -0.764021 0.339999
vn 0.548336 -0.764022 0.339997
vn 0.486096 0.084186 0.869841
vn -0.486096 0.084185 0.869841
vn 0.297174 0.954302 0.031537
vn -0.297174 0.954302 0.031537
vn 0.085934 -0.996265 -0.008397
vn -0.085934 -0.996266 -0.008397
vn 0.103378 -0.994260 -0.027571
vn -0.103460 -0.994245 -0.027810
vn 0.048283 0.990439 0.129224
vn 0.046400 0.997085 0.060565
vn 0.019279 0.998523 0.050792
vn 0.017459 0.995139 0.096922
vn 0.112091 0.971072 0.210843
vn 0.101921 0.989747 0.100062
vn 0.239305 0.926023 0.291915
vn 0.228785 0.963144 0.141463
vn 0.313979 0.884295 0.345600
vn 0.288207 0.940578 0.179580
vn -0.239406 0.925952 0.292059
vn -0.229005 0.963098 0.141420
vn -0.288207 0.940578 0.179580
vn -0.313979 0.884295 0.345600
vn -0.108890 0.972019 0.208140
vn -0.098408 0.989922 0.101839
vn -0.045329 0.990631 0.128822
vn -0.046777 0.996818 0.064537
vn -0.016777 0.995152 0.096907
vn -0.018395 0.998702 0.047500
vn -0.985990 -0.001861 0.166795
vn -0.991513 0.003729 0.129953
vn -0.963302 -0.243406 0.113146
vn -0.959310 -0.246175 0.138281
vn -0.954366 0.232753 0.187113
vn -0.960850 0.239572 0.139187
vn 0.991513 0.003735 0.129953
vn 0.985990 -0.001855 0.166796
vn 0.959311 -0.246170 0.138282
vn 0.963304 -0.243401 0.113146
vn 0.960849 0.239577 0.139187
vn 0.954365 0.232759 0.187113
vn 0.047849 -0.990483 -0.129050
vn 0.044900 -0.997200 -0.059804
vn 0.018309 -0.998586 -0.049898
vn 0.016662 -0.995217 -0.096255
vn 0.105362 -0.970939 -0.214888
vn 0.094344 -0.990401 -0.101022
vn 0.133274 -0.943791 -0.302486
vn 0.109162 -0.982577 -0.150418
vn 0.129360 -0.919932 -0.370123
vn 0.098927 -0.976708 -0.190407
vn -0.132933 -0.943554 -0.303372
vn -0.108883 -0.982769 -0.149367
vn -0.100423 -0.976288 -0.191772
vn -0.131104 -0.920254 -0.368707
vn -0.102570 -0.971810 -0.212286
vn -0.091358 -0.990516 -0.102627
vn -0.044912 -0.990678 -0.128607
vn -0.045291 -0.996943 -0.063671
vn -0.016016 -0.995223 -0.096306
vn -0.017449 -0.998757 -0.046694
vn 0.093569 0.950465 0.296413
vn 0.069197 0.976906 0.202152
vn 0.028630 0.987471 0.155181
vn 0.098446 0.970114 0.221783
vn 0.135373 0.907603 0.397406
vn 0.131734 0.946248 0.295401
vn 0.221761 0.847673 0.481946
vn 0.285069 0.885073 0.367942
vn 0.278144 0.819988 0.500256
vn 0.320339 0.859592 0.398100
vn -0.221761 0.847673 0.481947
vn -0.285069 0.885073 0.367942
vn -0.320339 0.859592 0.398100
vn -0.278145 0.819988 0.500256
vn -0.135594 0.907650 0.397222
vn -0.131926 0.946839 0.293413
vn -0.094541 0.950667 0.295455
vn -0.071307 0.977065 0.200648
vn -0.096397 0.970264 0.222026
vn -0.029524 0.987679 0.153683
vn -0.977419 -0.023842 0.209960
vn -0.981253 -0.012604 0.192312
vn -0.956475 -0.249379 0.151544
vn -0.954548 -0.253858 0.156190
vn -0.943864 0.213192 0.252331
vn -0.948879 0.224210 0.222169
vn 0.977419 -0.023840 0.209961
vn 0.981253 -0.012598 0.192313
vn 0.948878 0.224215 0.222169
vn 0.943863 0.213195 0.252332
vn 0.954548 -0.253855 0.156191
vn 0.956476 -0.249374 0.151546
vn 0.096556 -0.948839 -0.300636
vn 0.070082 -0.976383 -0.204366
vn 0.028849 -0.987315 -0.156130
vn 0.099173 -0.969284 -0.225062
vn 0.137818 -0.904606 -0.403354
vn 0.129418 -0.944583 -0.301686
vn 0.148956 -0.855708 -0.495557
vn 0.151693 -0.909563 -0.386891
vn 0.107229 -0.844405 -0.524864
vn 0.144051 -0.894420 -0.423393
vn -0.150263 -0.855419 -0.495660
vn -0.151709 -0.909625 -0.386738
vn -0.142788 -0.893934 -0.424845
vn -0.112996 -0.844470 -0.523548
vn -0.138266 -0.904721 -0.402943
vn -0.129657 -0.945328 -0.299238
vn -0.097508 -0.949041 -0.299688
vn -0.072169 -0.976544 -0.202863
vn -0.097547 -0.969393 -0.225303
vn -0.029734 -0.987520 -0.154664
vn 0.122349 0.922288 0.366627
vn 0.152518 0.862979 0.481670
vn 0.263558 0.822155 0.504578
vn -0.263559 0.822154 0.504578
vn -0.152510 0.863004 0.481627
vn -0.122314 0.922272 0.366680
vn -0.142474 0.955765 0.257320
vn 0.147802 0.955369 0.255784
vn 0.125240 -0.919650 -0.372235
vn 0.156028 -0.860281 -0.485357
vn 0.118746 -0.842023 -0.526210
vn -0.122811 -0.842471 -0.524558
vn -0.155014 -0.860220 -0.485790
vn -0.125213 -0.919639 -0.372270
vn -0.144123 -0.954247 -0.261994
vn 0.148614 -0.953924 -0.260659
vn 0.252107 0.822948 0.509115
vn -0.252107 0.822948 0.509115
vn 0.092144 -0.841883 -0.531735
vn -0.094956 -0.842568 -0.530154
s 1
g pCylinder3
usemtl initialShadingGroup
f 1/94/1 2/85/2 16/81/3 15/91/4
f 2/85/2 3/86/5 17/82/6 16/81/3
f 4/112/7 5/122/8 19/113/9 18/104/10
f 5/122/8 6/133/11 20/123/12 19/113/9
f 8/70/13 9/73/14 23/74/15 22/71/16
f 9/73/14 10/76/17 24/77/18 23/74/15
f 11/36/19 12/33/20 26/34/21 25/37/22
f 12/33/20 13/30/23 27/31/24 26/34/21
f 16/81/3 17/82/6 38/83/25 39/84/26
f 18/104/10 19/113/9 36/114/27 37/105/28
f 15/91/4 16/81/3 39/84/26 40/92/29
f 19/113/9 20/123/12 35/124/30 36/114/27
f 36/114/27 35/124/30 29/136/31 30/125/32
f 37/105/28 36/114/27 30/125/32 31/115/33
f 39/84/26 38/83/25 32/89/34 33/90/35
f 40/92/29 39/84/26 33/90/35 34/100/36
f 41/1/37 42/2/38 46/3/39 45/4/40
f 43/41/41 44/42/42 48/43/43 47/44/44
f 42/2/38 1/7/1 15/8/4 46/3/39
f 6/49/11 43/41/41 47/44/44 20/50/12
f 44/42/42 7/47/45 21/48/46 48/43/43
f 14/9/47 41/1/37 45/4/40 28/10/48
f 15/91/4 40/92/29 45/101/40 46/102/39
f 35/124/30 20/123/12 47/134/44 48/135/43
f 28/111/48 45/101/40 40/92/29 34/100/36
f 29/136/31 35/124/30 48/135/43 21/145/46
f 49/67/49 8/70/13 22/71/16 50/68/50
f 13/30/23 51/27/51 52/28/52 27/31/24
f 6/49/11 5/55/8 54/56/53 53/51/54
f 5/173/8 4/174/7 55/170/55 54/169/53
f 3/199/5 2/209/2 57/200/56 56/191/57
f 2/16/2 1/7/1 58/12/58 57/17/56
f 13/30/23 12/33/20 61/35/59 60/32/60
f 12/33/20 11/36/19 62/38/61 61/35/59
f 10/76/17 9/73/14 64/75/62 63/78/63
f 9/73/14 8/70/13 65/72/64 64/75/62
f 54/169/53 55/170/55 76/171/65 77/172/66
f 56/191/57 57/200/56 74/201/67 75/192/68
f 53/179/54 54/169/53 77/172/66 78/180/69
f 57/200/56 58/210/58 73/211/70 74/201/67
f 74/201/67 73/211/70 67/222/71 68/212/72
f 75/192/68 74/201/67 68/212/72 69/202/73
f 77/172/66 76/171/65 70/177/74 71/178/75
f 78/180/69 77/172/66 71/178/75 72/187/76
f 44/42/42 43/41/41 80/45/77 79/46/78
f 42/2/38 41/1/37 82/5/79 81/6/80
f 43/41/41 6/49/11 53/51/54 80/45/77
f 1/7/1 42/2/38 81/6/80 58/12/58
f 41/1/37 14/9/47 59/11/81 82/5/79
f 7/47/45 44/42/42 79/46/78 66/52/82
f 53/179/54 78/180/69 79/188/78 80/189/77
f 73/211/70 58/210/58 81/220/80 82/221/79
f 66/198/82 79/188/78 78/180/69 72/187/76
f 67/222/71 73/211/70 82/221/79 59/231/81
f 51/27/51 13/30/23 60/32/60 83/29/83
f 8/70/13 49/67/49 84/69/84 65/72/64
f 85/181/85 86/190/86 98/182/87 97/175/88
f 86/93/86 85/103/85 88/95/89 87/87/90
f 87/87/90 88/95/89 93/96/91 94/88/92
f 89/249/93 90/250/94 100/236/95 99/243/96
f 90/257/94 89/258/93 92/259/97 91/260/98
f 94/88/92 93/96/91 95/106/99 96/97/100
f 97/175/88 98/182/87 101/183/101 102/176/102
f 102/176/102 101/183/101 103/193/103 104/184/104
f 3/86/5 86/93/86 87/87/90 17/82/6
f 85/103/85 4/112/7 18/104/10 88/95/89
f 10/263/17 90/257/94 91/260/98 24/264/18
f 89/258/93 11/261/19 25/262/22 92/259/97
f 17/82/6 87/87/90 94/88/92 38/83/25
f 88/95/89 18/104/10 37/105/28 93/96/91
f 93/96/91 37/105/28 31/115/33 95/106/99
f 38/83/25 94/88/92 96/97/100 32/89/34
f 4/174/7 85/181/85 97/175/88 55/170/55
f 86/190/86 3/199/5 56/191/57 98/182/87
f 11/36/19 89/39/93 99/40/96 62/38/61
f 90/79/94 10/76/17 63/78/63 100/80/95
f 55/170/55 97/175/88 102/176/102 76/171/65
f 98/182/87 56/191/57 75/192/68 101/183/101
f 101/183/101 75/192/68 69/202/73 103/193/103
f 76/171/65 102/176/102 104/184/104 70/177/74
f 105/154/105 106/146/106 119/153/107 120/159/108
f 106/146/106 105/154/105 107/147/109 108/137/110
f 108/137/110 107/147/109 110/138/111 109/126/112
f 109/126/112 110/138/111 141/127/113 142/116/114
f 111/108/115 112/98/116 143/107/117 144/117/118
f 112/98/116 111/108/115 113/109/119 114/99/120
f 114/99/120 113/109/119 116/120/121 115/110/122
f 115/110/122 116/120/121 123/132/123 124/121/124
f 117/58/125 118/53/126 140/57/127 139/60/128
f 118/53/126 117/58/125 120/59/129 119/54/130
f 121/13/131 122/18/132 138/20/133 137/15/134
f 122/18/132 121/13/131 124/14/135 123/19/136
f 125/240/137 126/232/138 137/239/139 138/245/140
f 126/232/138 125/240/137 127/233/141 128/223/142
f 128/223/142 127/233/141 130/224/143 129/213/144
f 129/213/144 130/224/143 145/214/145 146/203/146
f 131/195/147 132/185/148 147/194/149 148/204/150
f 132/185/148 131/195/147 133/196/151 134/186/152
f 134/186/152 133/196/151 136/207/153 135/197/154
f 135/197/154 136/207/153 139/219/155 140/208/156
f 142/116/114 141/127/113 144/117/118 143/107/117
f 146/203/146 145/214/145 148/204/150 147/194/149
f 30/125/32 29/136/31 106/146/106 108/137/110
f 31/115/33 30/125/32 108/137/110 109/126/112
f 33/90/35 32/89/34 112/98/116 114/99/120
f 34/100/36 33/90/35 114/99/120 115/110/122
f 7/47/45 118/53/126 119/54/130 21/48/46
f 121/13/131 14/9/47 28/10/48 124/14/135
f 34/100/36 115/110/122 124/121/124 28/111/48
f 21/145/46 119/153/107 106/146/106 29/136/31
f 68/212/72 67/222/71 126/232/138 128/223/142
f 69/202/73 68/212/72 128/223/142 129/213/144
f 71/178/75 70/177/74 132/185/148 134/186/152
f 72/187/76 71/178/75 134/186/152 135/197/154
f 14/9/47 121/13/131 137/15/134 59/11/81
f 118/53/126 7/47/45 66/52/82 140/57/127
f 72/187/76 135/197/154 140/208/156 66/198/82
f 59/231/81 137/239/139 126/232/138 67/222/71
f 142/116/114 143/107/117 96/97/100 95/106/99
f 146/203/146 147/194/149 104/184/104 103/193/103
f 95/106/99 31/115/33 109/126/112 142/116/114
f 32/89/34 96/97/100 143/107/117 112/98/116
f 103/193/103 69/202/73 129/213/144 146/203/146
f 70/177/74 104/184/104 147/194/149 132/185/148
f 149/164/157 150/160/158 164/163/159 163/166/160
f 150/160/158 149/164/157 151/161/161 152/155/162
f 152/155/162 151/161/161 153/156/163 154/148/164
f 154/148/164 153/156/163 185/149/165 186/139/166
f 155/129/167 156/118/168 188/128/169 187/140/170
f 156/118/168 155/129/167 157/130/171 158/119/172
f 158/119/172 157/130/171 159/143/173 160/131/174
f 160/131/174 159/143/173 167/152/175 168/144/176
f 161/64/177 162/61/178 184/63/179 183/66/180
f 162/61/178 161/64/177 163/65/181 164/62/182
f 165/24/183 166/21/184 168/22/185 167/25/186
f 166/21/184 165/24/183 181/26/187 182/23/188
f 169/252/189 170/246/190 182/251/191 181/254/192
f 170/246/190 169/252/189 171/247/193 172/241/194
f 172/241/194 171/247/193 173/242/195 174/234/196
f 174/234/196 173/242/195 189/235/197 190/225/198
f 175/216/199 176/205/200 192/215/201 191/226/202
f 176/205/200 175/216/199 177/217/203 178/206/204
f 178/206/204 177/217/203 179/229/205 180/218/206
f 180/218/206 179/229/205 183/238/207 184/230/208
f 186/139/166 185/149/165 187/140/170 188/128/169
f 190/225/198 189/235/197 191/226/202 192/215/201
f 151/161/161 149/164/157 22/167/209 23/165/210
f 153/156/163 151/161/161 23/165/210 24/162/211
f 157/130/171 155/129/167 25/141/212 26/142/213
f 159/143/173 157/130/171 26/142/213 27/151/214
f 161/64/177 49/67/49 50/68/50 163/65/181
f 51/27/51 165/24/183 167/25/186 52/28/52
f 159/143/173 27/151/214 52/158/215 167/152/175
f 22/167/209 149/164/157 163/166/160 50/168/216
f 171/247/193 169/252/189 60/255/217 61/253/218
f 173/242/195 171/247/193 61/253/218 62/248/219
f 177/217/203 175/216/199 63/227/220 64/228/221
f 179/229/205 177/217/203 64/228/221 65/237/222
f 165/24/183 51/27/51 83/29/83 181/26/187
f 49/67/49 161/64/177 183/66/180 84/69/84
f 179/229/205 65/237/222 84/244/223 183/238/207
f 60/255/217 169/252/189 181/254/192 83/256/224
f 91/157/225 92/150/226 187/140/170 185/149/165
f 99/243/227 100/236/228 191/226/202 189/235/197
f 185/149/165 153/156/163 24/162/211 91/157/225
f 155/129/167 187/140/170 92/150/226 25/141/212
f 189/235/197 173/242/195 62/248/219 99/243/227
f 175/216/199 191/226/202 100/236/228 63/227/220
f 107/147/109 105/154/105 150/160/158 152/155/162
f 110/138/111 107/147/109 152/155/162 154/148/164
f 113/109/119 111/108/115 156/118/168 158/119/172
f 116/120/121 113/109/119 158/119/172 160/131/174
f 117/58/125 162/61/178 164/62/182 120/59/129
f 166/21/184 122/18/132 123/19/136 168/22/185
f 116/120/121 160/131/174 168/144/176 123/132/123
f 150/160/158 105/154/105 120/159/108 164/163/159
f 127/233/141 125/240/137 170/246/190 172/241/194
f 130/224/143 127/233/141 172/241/194 174/234/196
f 133/196/151 131/195/147 176/205/200 178/206/204
f 136/207/153 133/196/151 178/206/204 180/218/206
f 122/18/132 166/21/184 182/23/188 138/20/133
f 162/61/178 117/58/125 139/60/128 184/63/179
f 136/207/153 180/218/206 184/230/208 139/219/155
f 170/246/190 125/240/137 138/245/140 182/251/191
f 186/139/166 188/128/169 144/117/118 141/127/113
f 190/225/198 192/215/201 148/204/150 145/214/145
f 141/127/113 110/138/111 154/148/164 186/139/166
f 111/108/115 144/117/118 188/128/169 156/118/168
f 145/214/145 130/224/143 174/234/196 190/225/198
f 131/195/147 148/204/150 192/215/201 176/205/200
