# 3ds Max Wavefront OBJ Exporter v0.97b - (c)2007 guruware
# File Created: 15.05.2022 21:27:19

#
# object Plane001
#

v  -4.00000 -4.00000 0.00000
v  -3.00000 -4.00000 0.00000
v  -2.00000 -4.00000 0.00000
v  -1.00000 -4.00000 0.00000
v  0.00000 -4.00000 0.00000
v  1.00000 -4.00000 0.00000
v  2.00000 -4.00000 0.00000
v  3.00000 -4.00000 0.00000
v  4.00000 -4.00000 0.00000
v  -4.00000 -3.00000 0.00000
v  -3.00000 -3.00000 0.00000
v  -2.00000 -3.00000 0.00000
v  -1.00000 -3.00000 0.00000
v  0.00000 -3.00000 0.00000
v  1.00000 -3.00000 0.00000
v  2.00000 -3.00000 0.00000
v  3.00000 -3.00000 0.00000
v  4.00000 -3.00000 0.00000
v  -4.00000 -2.00000 0.00000
v  -3.00000 -2.00000 0.00000
v  -2.00000 -2.00000 0.00000
v  -1.00000 -2.00000 0.00000
v  0.00000 -2.00000 0.00000
v  1.00000 -2.00000 0.00000
v  2.00000 -2.00000 0.00000
v  3.00000 -2.00000 0.00000
v  4.00000 -2.00000 0.00000
v  -4.00000 -1.00000 0.00000
v  -3.00000 -1.00000 0.00000
v  -2.00000 -1.00000 0.00000
v  -1.00000 -1.00000 0.00000
v  0.00000 -1.00000 0.00000
v  1.00000 -1.00000 0.00000
v  2.00000 -1.00000 0.00000
v  3.00000 -1.00000 0.00000
v  4.00000 -1.00000 0.00000
v  -4.00000 0.00000 0.00000
v  -3.00000 0.00000 0.00000
v  -2.00000 0.00000 0.00000
v  -1.00000 0.00000 0.00000
v  0.00000 0.00000 0.00000
v  1.00000 0.00000 0.00000
v  2.00000 0.00000 0.00000
v  3.00000 0.00000 0.00000
v  4.00000 0.00000 0.00000
v  -4.00000 1.00000 0.00000
v  -3.00000 1.00000 0.00000
v  -2.00000 1.00000 0.00000
v  -1.00000 1.00000 0.00000
v  0.00000 1.00000 0.00000
v  1.00000 1.00000 0.00000
v  2.00000 1.00000 0.00000
v  3.00000 1.00000 0.00000
v  4.00000 1.00000 0.00000
v  -4.00000 2.00000 0.00000
v  -3.00000 2.00000 0.00000
v  -2.00000 2.00000 0.00000
v  -1.00000 2.00000 0.00000
v  0.00000 2.00000 0.00000
v  1.00000 2.00000 0.00000
v  2.00000 2.00000 0.00000
v  3.00000 2.00000 0.00000
v  4.00000 2.00000 0.00000
v  -4.00000 3.00000 0.00000
v  -3.00000 3.00000 0.00000
v  -2.00000 3.00000 0.00000
v  -1.00000 3.00000 0.00000
v  0.00000 3.00000 0.00000
v  1.00000 3.00000 0.00000
v  2.00000 3.00000 0.00000
v  3.00000 3.00000 0.00000
v  4.00000 3.00000 0.00000
v  -4.00000 4.00000 0.00000
v  -3.00000 4.00000 0.00000
v  -2.00000 4.00000 0.00000
v  -1.00000 4.00000 0.00000
v  0.00000 4.00000 0.00000
v  1.00000 4.00000 0.00000
v  2.00000 4.00000 0.00000
v  3.00000 4.00000 0.00000
v  4.00000 4.00000 0.00000
# 81 vertices

vn 0.00000 0.00000 1.00000
vn 0.00000 0.00000 1.00000
vn 0.00000 0.00000 1.00000
vn 0.00000 0.00000 1.00000
vn 0.00000 0.00000 1.00000
vn 0.00000 0.00000 1.00000
vn 0.00000 0.00000 1.00000
vn 0.00000 0.00000 1.00000
vn 0.00000 0.00000 1.00000
vn 0.00000 0.00000 1.00000
vn 0.00000 0.00000 1.00000
vn 0.00000 0.00000 1.00000
vn 0.00000 0.00000 1.00000
vn 0.00000 0.00000 1.00000
vn 0.00000 0.00000 1.00000
vn 0.00000 0.00000 1.00000
vn 0.00000 0.00000 1.00000
vn 0.00000 0.00000 1.00000
vn 0.00000 0.00000 1.00000
vn 0.00000 0.00000 1.00000
vn 0.00000 0.00000 1.00000
vn 0.00000 0.00000 1.00000
vn 0.00000 0.00000 1.00000
vn 0.00000 0.00000 1.00000
vn 0.00000 0.00000 1.00000
vn 0.00000 0.00000 1.00000
vn 0.00000 0.00000 1.00000
vn 0.00000 0.00000 1.00000
vn 0.00000 0.00000 1.00000
vn 0.00000 0.00000 1.00000
vn 0.00000 0.00000 1.00000
vn 0.00000 0.00000 1.00000
vn 0.00000 0.00000 1.00000
vn 0.00000 0.00000 1.00000
vn 0.00000 0.00000 1.00000
vn 0.00000 0.00000 1.00000
vn 0.00000 0.00000 1.00000
vn 0.00000 0.00000 1.00000
vn 0.00000 0.00000 1.00000
vn 0.00000 0.00000 1.00000
vn 0.00000 0.00000 1.00000
vn 0.00000 0.00000 1.00000
vn 0.00000 0.00000 1.00000
vn 0.00000 0.00000 1.00000
vn 0.00000 0.00000 1.00000
vn 0.00000 0.00000 1.00000
vn 0.00000 0.00000 1.00000
vn 0.00000 0.00000 1.00000
vn 0.00000 0.00000 1.00000
vn 0.00000 0.00000 1.00000
vn 0.00000 0.00000 1.00000
vn 0.00000 0.00000 1.00000
vn 0.00000 0.00000 1.00000
vn 0.00000 0.00000 1.00000
vn 0.00000 0.00000 1.00000
vn 0.00000 0.00000 1.00000
vn 0.00000 0.00000 1.00000
vn 0.00000 0.00000 1.00000
vn 0.00000 0.00000 1.00000
vn 0.00000 0.00000 1.00000
vn 0.00000 0.00000 1.00000
vn 0.00000 0.00000 1.00000
vn 0.00000 0.00000 1.00000
vn 0.00000 0.00000 1.00000
vn 0.00000 0.00000 1.00000
vn 0.00000 0.00000 1.00000
vn 0.00000 0.00000 1.00000
vn 0.00000 0.00000 1.00000
vn 0.00000 0.00000 1.00000
vn 0.00000 0.00000 1.00000
vn 0.00000 0.00000 1.00000
vn 0.00000 0.00000 1.00000
vn 0.00000 0.00000 1.00000
vn 0.00000 0.00000 1.00000
vn 0.00000 0.00000 1.00000
vn 0.00000 0.00000 1.00000
vn 0.00000 0.00000 1.00000
vn 0.00000 0.00000 1.00000
vn 0.00000 0.00000 1.00000
vn 0.00000 0.00000 1.00000
vn 0.00000 0.00000 1.00000
vn 0.00000 0.00000 1.00000
vn 0.00000 0.00000 1.00000
vn 0.00000 0.00000 1.00000
vn 0.00000 0.00000 1.00000
vn 0.00000 0.00000 1.00000
vn 0.00000 0.00000 1.00000
vn 0.00000 0.00000 1.00000
vn 0.00000 0.00000 1.00000
vn 0.00000 0.00000 1.00000
vn 0.00000 0.00000 1.00000
vn 0.00000 0.00000 1.00000
vn 0.00000 0.00000 1.00000
vn 0.00000 0.00000 1.00000
vn 0.00000 0.00000 1.00000
vn 0.00000 0.00000 1.00000
vn 0.00000 0.00000 1.00000
vn 0.00000 0.00000 1.00000
vn 0.00000 0.00000 1.00000
vn 0.00000 0.00000 1.00000
vn 0.00000 0.00000 1.00000
vn 0.00000 0.00000 1.00000
vn 0.00000 0.00000 1.00000
vn 0.00000 0.00000 1.00000
vn 0.00000 0.00000 1.00000
vn 0.00000 0.00000 1.00000
vn 0.00000 0.00000 1.00000
vn 0.00000 0.00000 1.00000
vn 0.00000 0.00000 1.00000
vn 0.00000 0.00000 1.00000
vn 0.00000 0.00000 1.00000
vn 0.00000 0.00000 1.00000
vn 0.00000 0.00000 1.00000
vn 0.00000 0.00000 1.00000
vn 0.00000 0.00000 1.00000
vn 0.00000 0.00000 1.00000
vn 0.00000 0.00000 1.00000
vn 0.00000 0.00000 1.00000
vn 0.00000 0.00000 1.00000
vn 0.00000 0.00000 1.00000
vn 0.00000 0.00000 1.00000
vn 0.00000 0.00000 1.00000
vn 0.00000 0.00000 1.00000
vn 0.00000 0.00000 1.00000
vn 0.00000 0.00000 1.00000
vn 0.00000 0.00000 1.00000
vn 0.00000 0.00000 1.00000
vn 0.00000 0.00000 1.00000
vn 0.00000 0.00000 1.00000
vn 0.00000 0.00000 1.00000
vn 0.00000 0.00000 1.00000
vn 0.00000 0.00000 1.00000
vn 0.00000 0.00000 1.00000
vn 0.00000 0.00000 1.00000
vn 0.00000 0.00000 1.00000
vn 0.00000 0.00000 1.00000
vn 0.00000 0.00000 1.00000
vn 0.00000 0.00000 1.00000
vn 0.00000 0.00000 1.00000
vn 0.00000 0.00000 1.00000
vn 0.00000 0.00000 1.00000
vn 0.00000 0.00000 1.00000
vn 0.00000 0.00000 1.00000
vn 0.00000 0.00000 1.00000
vn 0.00000 0.00000 1.00000
vn 0.00000 0.00000 1.00000
vn 0.00000 0.00000 1.00000
vn 0.00000 0.00000 1.00000
vn 0.00000 0.00000 1.00000
vn 0.00000 0.00000 1.00000
vn 0.00000 0.00000 1.00000
vn 0.00000 0.00000 1.00000
vn 0.00000 0.00000 1.00000
vn 0.00000 0.00000 1.00000
vn 0.00000 0.00000 1.00000
vn 0.00000 0.00000 1.00000
vn 0.00000 0.00000 1.00000
vn 0.00000 0.00000 1.00000
vn 0.00000 0.00000 1.00000
vn 0.00000 0.00000 1.00000
vn 0.00000 0.00000 1.00000
vn 0.00000 0.00000 1.00000
vn 0.00000 0.00000 1.00000
vn 0.00000 0.00000 1.00000
vn 0.00000 0.00000 1.00000
vn 0.00000 0.00000 1.00000
vn 0.00000 0.00000 1.00000
vn 0.00000 0.00000 1.00000
vn 0.00000 0.00000 1.00000
vn 0.00000 0.00000 1.00000
vn 0.00000 0.00000 1.00000
vn 0.00000 0.00000 1.00000
vn 0.00000 0.00000 1.00000
vn 0.00000 0.00000 1.00000
vn 0.00000 0.00000 1.00000
vn 0.00000 0.00000 1.00000
vn 0.00000 0.00000 1.00000
vn 0.00000 0.00000 1.00000
vn 0.00000 0.00000 1.00000
vn 0.00000 0.00000 1.00000
vn 0.00000 0.00000 1.00000
vn 0.00000 0.00000 1.00000
vn 0.00000 0.00000 1.00000
vn 0.00000 0.00000 1.00000
vn 0.00000 0.00000 1.00000
vn 0.00000 0.00000 1.00000
vn 0.00000 0.00000 1.00000
vn 0.00000 0.00000 1.00000
vn 0.00000 0.00000 1.00000
vn 0.00000 0.00000 1.00000
vn 0.00000 0.00000 1.00000
vn 0.00000 0.00000 1.00000
vn 0.00000 0.00000 1.00000
vn 0.00000 0.00000 1.00000
vn 0.00000 0.00000 1.00000
vn 0.00000 0.00000 1.00000
vn 0.00000 0.00000 1.00000
vn 0.00000 0.00000 1.00000
vn 0.00000 0.00000 1.00000
vn 0.00000 0.00000 1.00000
vn 0.00000 0.00000 1.00000
vn 0.00000 0.00000 1.00000
vn 0.00000 0.00000 1.00000
vn 0.00000 0.00000 1.00000
vn 0.00000 0.00000 1.00000
vn 0.00000 0.00000 1.00000
vn 0.00000 0.00000 1.00000
vn 0.00000 0.00000 1.00000
vn 0.00000 0.00000 1.00000
vn 0.00000 0.00000 1.00000
vn 0.00000 0.00000 1.00000
vn 0.00000 0.00000 1.00000
vn 0.00000 0.00000 1.00000
vn 0.00000 0.00000 1.00000
vn 0.00000 0.00000 1.00000
vn 0.00000 0.00000 1.00000
vn 0.00000 0.00000 1.00000
vn 0.00000 0.00000 1.00000
vn 0.00000 0.00000 1.00000
vn 0.00000 0.00000 1.00000
vn 0.00000 0.00000 1.00000
vn 0.00000 0.00000 1.00000
vn 0.00000 0.00000 1.00000
vn 0.00000 0.00000 1.00000
vn 0.00000 0.00000 1.00000
vn 0.00000 0.00000 1.00000
vn 0.00000 0.00000 1.00000
vn 0.00000 0.00000 1.00000
vn 0.00000 0.00000 1.00000
vn 0.00000 0.00000 1.00000
vn 0.00000 0.00000 1.00000
vn 0.00000 0.00000 1.00000
vn 0.00000 0.00000 1.00000
vn 0.00000 0.00000 1.00000
vn 0.00000 0.00000 1.00000
vn 0.00000 0.00000 1.00000
vn 0.00000 0.00000 1.00000
vn 0.00000 0.00000 1.00000
vn 0.00000 0.00000 1.00000
vn 0.00000 0.00000 1.00000
vn 0.00000 0.00000 1.00000
vn 0.00000 0.00000 1.00000
vn 0.00000 0.00000 1.00000
vn 0.00000 0.00000 1.00000
vn 0.00000 0.00000 1.00000
vn 0.00000 0.00000 1.00000
vn 0.00000 0.00000 1.00000
vn 0.00000 0.00000 1.00000
vn 0.00000 0.00000 1.00000
vn 0.00000 0.00000 1.00000
vn 0.00000 0.00000 1.00000
vn 0.00000 0.00000 1.00000
vn 0.00000 0.00000 1.00000
vn 0.00000 0.00000 1.00000
vn 0.00000 0.00000 1.00000
vn 0.00000 0.00000 1.00000
vn 0.00000 0.00000 1.00000
vn 0.00000 0.00000 1.00000
vn 0.00000 0.00000 1.00000
vn 0.00000 0.00000 1.00000
vn 0.00000 0.00000 1.00000
vn 0.00000 0.00000 1.00000
vn 0.00000 0.00000 1.00000
vn 0.00000 0.00000 1.00000
vn 0.00000 0.00000 1.00000
vn 0.00000 0.00000 1.00000
vn 0.00000 0.00000 1.00000
vn 0.00000 0.00000 1.00000
vn 0.00000 0.00000 1.00000
vn 0.00000 0.00000 1.00000
vn 0.00000 0.00000 1.00000
vn 0.00000 0.00000 1.00000
vn 0.00000 0.00000 1.00000
vn 0.00000 0.00000 1.00000
vn 0.00000 0.00000 1.00000
vn 0.00000 0.00000 1.00000
vn 0.00000 0.00000 1.00000
vn 0.00000 0.00000 1.00000
vn 0.00000 0.00000 1.00000
vn 0.00000 0.00000 1.00000
vn 0.00000 0.00000 1.00000
vn 0.00000 0.00000 1.00000
vn 0.00000 0.00000 1.00000
vn 0.00000 0.00000 1.00000
vn 0.00000 0.00000 1.00000
vn 0.00000 0.00000 1.00000
vn 0.00000 0.00000 1.00000
vn 0.00000 0.00000 1.00000
vn 0.00000 0.00000 1.00000
vn 0.00000 0.00000 1.00000
vn 0.00000 0.00000 1.00000
vn 0.00000 0.00000 1.00000
vn 0.00000 0.00000 1.00000
vn 0.00000 0.00000 1.00000
vn 0.00000 0.00000 1.00000
vn 0.00000 0.00000 1.00000
vn 0.00000 0.00000 1.00000
vn 0.00000 0.00000 1.00000
vn 0.00000 0.00000 1.00000
vn 0.00000 0.00000 1.00000
vn 0.00000 0.00000 1.00000
vn 0.00000 0.00000 1.00000
vn 0.00000 0.00000 1.00000
vn 0.00000 0.00000 1.00000
vn 0.00000 0.00000 1.00000
vn 0.00000 0.00000 1.00000
vn 0.00000 0.00000 1.00000
vn 0.00000 0.00000 1.00000
vn 0.00000 0.00000 1.00000
vn 0.00000 0.00000 1.00000
vn 0.00000 0.00000 1.00000
vn 0.00000 0.00000 1.00000
vn 0.00000 0.00000 1.00000
vn 0.00000 0.00000 1.00000
vn 0.00000 0.00000 1.00000
vn 0.00000 0.00000 1.00000
vn 0.00000 0.00000 1.00000
vn 0.00000 0.00000 1.00000
vn 0.00000 0.00000 1.00000
vn 0.00000 0.00000 1.00000
vn 0.00000 0.00000 1.00000
vn 0.00000 0.00000 1.00000
vn 0.00000 0.00000 1.00000
vn 0.00000 0.00000 1.00000
vn 0.00000 0.00000 1.00000
vn 0.00000 0.00000 1.00000
vn 0.00000 0.00000 1.00000
vn 0.00000 0.00000 1.00000
vn 0.00000 0.00000 1.00000
vn 0.00000 0.00000 1.00000
vn 0.00000 0.00000 1.00000
vn 0.00000 0.00000 1.00000
vn 0.00000 0.00000 1.00000
vn 0.00000 0.00000 1.00000
vn 0.00000 0.00000 1.00000
vn 0.00000 0.00000 1.00000
vn 0.00000 0.00000 1.00000
vn 0.00000 0.00000 1.00000
vn 0.00000 0.00000 1.00000
vn 0.00000 0.00000 1.00000
vn 0.00000 0.00000 1.00000
vn 0.00000 0.00000 1.00000
vn 0.00000 0.00000 1.00000
vn 0.00000 0.00000 1.00000
vn 0.00000 0.00000 1.00000
vn 0.00000 0.00000 1.00000
vn 0.00000 0.00000 1.00000
vn 0.00000 0.00000 1.00000
vn 0.00000 0.00000 1.00000
vn 0.00000 0.00000 1.00000
vn 0.00000 0.00000 1.00000
vn 0.00000 0.00000 1.00000
vn 0.00000 0.00000 1.00000
vn 0.00000 0.00000 1.00000
vn 0.00000 0.00000 1.00000
vn 0.00000 0.00000 1.00000
vn 0.00000 0.00000 1.00000
vn 0.00000 0.00000 1.00000
vn 0.00000 0.00000 1.00000
vn 0.00000 0.00000 1.00000
vn 0.00000 0.00000 1.00000
vn 0.00000 0.00000 1.00000
vn 0.00000 0.00000 1.00000
vn 0.00000 0.00000 1.00000
vn 0.00000 0.00000 1.00000
vn 0.00000 0.00000 1.00000
vn 0.00000 0.00000 1.00000
vn 0.00000 0.00000 1.00000
vn 0.00000 0.00000 1.00000
vn 0.00000 0.00000 1.00000
vn 0.00000 0.00000 1.00000
vn 0.00000 0.00000 1.00000
vn 0.00000 0.00000 1.00000
vn 0.00000 0.00000 1.00000
vn 0.00000 0.00000 1.00000
vn 0.00000 0.00000 1.00000
vn 0.00000 0.00000 1.00000
vn 0.00000 0.00000 1.00000
vn 0.00000 0.00000 1.00000
vn 0.00000 0.00000 1.00000
vn 0.00000 0.00000 1.00000
vn 0.00000 0.00000 1.00000
vn 0.00000 0.00000 1.00000
vn 0.00000 0.00000 1.00000
# 384 vertex normals

vt 0.00000 0.00000 0.00000
vt 0.12500 0.00000 0.00000
vt 0.25000 0.00000 0.00000
vt 0.37500 0.00000 0.00000
vt 0.50000 0.00000 0.00000
vt 0.62500 0.00000 0.00000
vt 0.75000 0.00000 0.00000
vt 0.87500 0.00000 0.00000
vt 1.00000 0.00000 0.00000
vt 0.00000 0.00000 0.00000
vt 0.12500 0.00000 0.00000
vt 0.25000 0.00000 0.00000
vt 0.37500 0.00000 0.00000
vt 0.50000 0.00000 0.00000
vt 0.62500 0.00000 0.00000
vt 0.75000 0.00000 0.00000
vt 0.87500 0.00000 0.00000
vt 1.00000 0.00000 0.00000
vt 0.00000 0.00000 0.00000
vt 0.12500 0.00000 0.00000
vt 0.25000 0.00000 0.00000
vt 0.37500 0.00000 0.00000
vt 0.50000 0.00000 0.00000
vt 0.62500 0.00000 0.00000
vt 0.75000 0.00000 0.00000
vt 0.87500 0.00000 0.00000
vt 1.00000 0.00000 0.00000
vt 0.00000 0.12500 0.00000
vt 0.12500 0.12500 0.00000
vt 0.25000 0.12500 0.00000
vt 0.37500 0.12500 0.00000
vt 0.50000 0.12500 0.00000
vt 0.62500 0.12500 0.00000
vt 0.75000 0.12500 0.00000
vt 0.87500 0.12500 0.00000
vt 1.00000 0.12500 0.00000
vt 0.00000 0.25000 0.00000
vt 0.12500 0.25000 0.00000
vt 0.25000 0.25000 0.00000
vt 0.37500 0.25000 0.00000
vt 0.50000 0.25000 0.00000
vt 0.62500 0.25000 0.00000
vt 0.75000 0.25000 0.00000
vt 0.87500 0.25000 0.00000
vt 1.00000 0.25000 0.00000
vt 0.00000 0.37500 0.00000
vt 0.12500 0.37500 0.00000
vt 0.25000 0.37500 0.00000
vt 0.37500 0.37500 0.00000
vt 0.50000 0.37500 0.00000
vt 0.62500 0.37500 0.00000
vt 0.75000 0.37500 0.00000
vt 0.87500 0.37500 0.00000
vt 1.00000 0.37500 0.00000
vt 0.00000 0.50000 0.00000
vt 0.12500 0.50000 0.00000
vt 0.25000 0.50000 0.00000
vt 0.37500 0.50000 0.00000
vt 0.50000 0.50000 0.00000
vt 0.62500 0.50000 0.00000
vt 0.75000 0.50000 0.00000
vt 0.87500 0.50000 0.00000
vt 1.00000 0.50000 0.00000
vt 0.00000 0.62500 0.00000
vt 0.12500 0.62500 0.00000
vt 0.25000 0.62500 0.00000
vt 0.37500 0.62500 0.00000
vt 0.50000 0.62500 0.00000
vt 0.62500 0.62500 0.00000
vt 0.75000 0.62500 0.00000
vt 0.87500 0.62500 0.00000
vt 1.00000 0.62500 0.00000
vt 0.00000 0.75000 0.00000
vt 0.12500 0.75000 0.00000
vt 0.25000 0.75000 0.00000
vt 0.37500 0.75000 0.00000
vt 0.50000 0.75000 0.00000
vt 0.62500 0.75000 0.00000
vt 0.75000 0.75000 0.00000
vt 0.87500 0.75000 0.00000
vt 1.00000 0.75000 0.00000
vt 0.00000 0.87500 0.00000
vt 0.12500 0.87500 0.00000
vt 0.25000 0.87500 0.00000
vt 0.37500 0.87500 0.00000
vt 0.50000 0.87500 0.00000
vt 0.62500 0.87500 0.00000
vt 0.75000 0.87500 0.00000
vt 0.87500 0.87500 0.00000
vt 1.00000 0.87500 0.00000
vt 0.00000 1.00000 0.00000
vt 0.12500 1.00000 0.00000
vt 0.25000 1.00000 0.00000
vt 0.37500 1.00000 0.00000
vt 0.50000 1.00000 0.00000
vt 0.62500 1.00000 0.00000
vt 0.75000 1.00000 0.00000
vt 0.87500 1.00000 0.00000
vt 1.00000 1.00000 0.00000
# 99 texture coords

g Plane001
f 10/28/1 1/19/2 11/29/3 
f 2/20/4 11/29/5 1/19/6 
f 11/29/7 2/20/8 12/30/9 
f 3/21/10 12/30/11 2/20/12 
f 12/30/13 3/21/14 13/31/15 
f 4/22/16 13/31/17 3/21/18 
f 13/31/19 4/22/20 14/32/21 
f 5/23/22 14/32/23 4/22/24 
f 14/32/25 5/23/26 15/33/27 
f 6/24/28 15/33/29 5/23/30 
f 15/33/31 6/24/32 16/34/33 
f 7/25/34 16/34/35 6/24/36 
f 16/34/37 7/25/38 17/35/39 
f 8/26/40 17/35/41 7/25/42 
f 17/35/43 8/26/44 18/36/45 
f 9/27/46 18/36/47 8/26/48 
f 19/37/49 10/28/50 20/38/51 
f 11/29/52 20/38/53 10/28/54 
f 20/38/55 11/29/56 21/39/57 
f 12/30/58 21/39/59 11/29/60 
f 21/39/61 12/30/62 22/40/63 
f 13/31/64 22/40/65 12/30/66 
f 22/40/67 13/31/68 23/41/69 
f 14/32/70 23/41/71 13/31/72 
f 23/41/73 14/32/74 24/42/75 
f 15/33/76 24/42/77 14/32/78 
f 24/42/79 15/33/80 25/43/81 
f 16/34/82 25/43/83 15/33/84 
f 25/43/85 16/34/86 26/44/87 
f 17/35/88 26/44/89 16/34/90 
f 26/44/91 17/35/92 27/45/93 
f 18/36/94 27/45/95 17/35/96 
f 28/46/97 19/37/98 29/47/99 
f 20/38/100 29/47/101 19/37/102 
f 29/47/103 20/38/104 30/48/105 
f 21/39/106 30/48/107 20/38/108 
f 30/48/109 21/39/110 31/49/111 
f 22/40/112 31/49/113 21/39/114 
f 31/49/115 22/40/116 32/50/117 
f 23/41/118 32/50/119 22/40/120 
f 32/50/121 23/41/122 33/51/123 
f 24/42/124 33/51/125 23/41/126 
f 33/51/127 24/42/128 34/52/129 
f 25/43/130 34/52/131 24/42/132 
f 34/52/133 25/43/134 35/53/135 
f 26/44/136 35/53/137 25/43/138 
f 35/53/139 26/44/140 36/54/141 
f 27/45/142 36/54/143 26/44/144 
f 37/55/145 28/46/146 38/56/147 
f 29/47/148 38/56/149 28/46/150 
f 38/56/151 29/47/152 39/57/153 
f 30/48/154 39/57/155 29/47/156 
f 39/57/157 30/48/158 40/58/159 
f 31/49/160 40/58/161 30/48/162 
f 40/58/163 31/49/164 41/59/165 
f 32/50/166 41/59/167 31/49/168 
f 41/59/169 32/50/170 42/60/171 
f 33/51/172 42/60/173 32/50/174 
f 42/60/175 33/51/176 43/61/177 
f 34/52/178 43/61/179 33/51/180 
f 43/61/181 34/52/182 44/62/183 
f 35/53/184 44/62/185 34/52/186 
f 44/62/187 35/53/188 45/63/189 
f 36/54/190 45/63/191 35/53/192 
f 46/64/193 37/55/194 47/65/195 
f 38/56/196 47/65/197 37/55/198 
f 47/65/199 38/56/200 48/66/201 
f 39/57/202 48/66/203 38/56/204 
f 48/66/205 39/57/206 49/67/207 
f 40/58/208 49/67/209 39/57/210 
f 49/67/211 40/58/212 50/68/213 
f 41/59/214 50/68/215 40/58/216 
f 50/68/217 41/59/218 51/69/219 
f 42/60/220 51/69/221 41/59/222 
f 51/69/223 42/60/224 52/70/225 
f 43/61/226 52/70/227 42/60/228 
f 52/70/229 43/61/230 53/71/231 
f 44/62/232 53/71/233 43/61/234 
f 53/71/235 44/62/236 54/72/237 
f 45/63/238 54/72/239 44/62/240 
f 55/73/241 46/64/242 56/74/243 
f 47/65/244 56/74/245 46/64/246 
f 56/74/247 47/65/248 57/75/249 
f 48/66/250 57/75/251 47/65/252 
f 57/75/253 48/66/254 58/76/255 
f 49/67/256 58/76/257 48/66/258 
f 58/76/259 49/67/260 59/77/261 
f 50/68/262 59/77/263 49/67/264 
f 59/77/265 50/68/266 60/78/267 
f 51/69/268 60/78/269 50/68/270 
f 60/78/271 51/69/272 61/79/273 
f 52/70/274 61/79/275 51/69/276 
f 61/79/277 52/70/278 62/80/279 
f 53/71/280 62/80/281 52/70/282 
f 62/80/283 53/71/284 63/81/285 
f 54/72/286 63/81/287 53/71/288 
f 64/82/289 55/73/290 65/83/291 
f 56/74/292 65/83/293 55/73/294 
f 65/83/295 56/74/296 66/84/297 
f 57/75/298 66/84/299 56/74/300 
f 66/84/301 57/75/302 67/85/303 
f 58/76/304 67/85/305 57/75/306 
f 67/85/307 58/76/308 68/86/309 
f 59/77/310 68/86/311 58/76/312 
f 68/86/313 59/77/314 69/87/315 
f 60/78/316 69/87/317 59/77/318 
f 69/87/319 60/78/320 70/88/321 
f 61/79/322 70/88/323 60/78/324 
f 70/88/325 61/79/326 71/89/327 
f 62/80/328 71/89/329 61/79/330 
f 71/89/331 62/80/332 72/90/333 
f 63/81/334 72/90/335 62/80/336 
f 73/91/337 64/82/338 74/92/339 
f 65/83/340 74/92/341 64/82/342 
f 74/92/343 65/83/344 75/93/345 
f 66/84/346 75/93/347 65/83/348 
f 75/93/349 66/84/350 76/94/351 
f 67/85/352 76/94/353 66/84/354 
f 76/94/355 67/85/356 77/95/357 
f 68/86/358 77/95/359 67/85/360 
f 77/95/361 68/86/362 78/96/363 
f 69/87/364 78/96/365 68/86/366 
f 78/96/367 69/87/368 79/97/369 
f 70/88/370 79/97/371 69/87/372 
f 79/97/373 70/88/374 80/98/375 
f 71/89/376 80/98/377 70/88/378 
f 80/98/379 71/89/380 81/99/381 
f 72/90/382 81/99/383 71/89/384 
# 128 faces

